<?xml version="1.0" encoding="UTF-8"?>
<!DOCTYPE svg PUBLIC "-//W3C//DTD SVG 1.1//EN" "http://www.w3.org/Graphics/SVG/1.1/DTD/svg11.dtd">
<!-- Creator: CorelDRAW X6 -->
<svg xmlns="http://www.w3.org/2000/svg" xml:space="preserve" width="4000px" height="16750px" version="1.1" style="shape-rendering:geometricPrecision; text-rendering:geometricPrecision; image-rendering:optimizeQuality; fill-rule:evenodd; clip-rule:evenodd"
viewBox="0 0 1405 5932"
 xmlns:xlink="http://www.w3.org/1999/xlink">
 <defs>
  <style type="text/css">
   <![CDATA[
    .fil0 {fill:#000066}
    .fil2 {fill:#597A9C}
    .fil3 {fill:#FFFFCC}
    .fil1 {fill:white;fill-rule:nonzero}
   ]]>
  </style>
 </defs>
 <g id="contact">
  <metadata id="CorelCorpID_0Corel-Layer"/>
  <g id="_1048187200">
   <path class="fil0" d="M1405 5932l-1405 0 0 -5799c0,-73 60,-133 133,-133l1139 0c73,0 133,60 133,133l0 5799z"/>
   <path class="fil1" d="M706 90c114,0 216,25 307,76 91,51 162,122 213,212 51,91 77,194 77,309 0,81 -13,153 -40,216 -27,63 -64,112 -112,147 -48,35 -101,53 -161,53 -68,0 -119,-22 -155,-67 -36,-45 -57,-104 -63,-178 -18,33 -40,57 -64,73 -25,16 -56,24 -93,24 -53,0 -97,-15 -131,-45 -34,-30 -51,-73 -51,-127 0,-47 13,-82 39,-105 26,-23 63,-39 112,-47 50,-7 105,-11 165,-11 0,-53 -2,-81 -7,-83 -6,-4 -21,-5 -44,-5 -40,0 -82,2 -126,7 -44,5 -70,8 -79,9 -10,-44 -14,-90 -14,-140 98,-21 183,-31 254,-31 64,0 112,10 144,31 32,21 53,47 63,80 10,33 15,73 15,122 0,24 -1,51 -3,79 -2,28 -3,49 -3,63 -4,36 -5,70 -5,102 0,77 24,116 71,116 44,0 77,-28 101,-83 24,-55 35,-121 35,-197 0,-91 -19,-172 -58,-243 -39,-71 -92,-127 -160,-167 -68,-40 -143,-60 -227,-60 -83,0 -160,20 -229,60 -69,40 -123,94 -163,162 -40,68 -60,144 -60,228 0,138 39,248 117,330 78,82 187,123 328,123 45,0 93,-5 143,-14l27 116c-63,17 -120,25 -171,25 -123,0 -230,-24 -319,-72 -90,-48 -158,-116 -206,-203 -48,-88 -72,-190 -72,-306 0,-109 26,-207 79,-295 53,-88 125,-157 217,-207 92,-50 195,-75 309,-75zm-22 728c22,0 44,-4 65,-13l0 -87 -9 0c-59,0 -92,3 -98,9 -8,7 -13,21 -13,40 0,19 5,33 14,40 9,7 23,11 41,11z"/>
   <path class="fil2" d="M120 1849l477 0 0 394 -477 0 0 -394zm683 2924l477 0 0 394 -477 0 0 -394zm-683 489l477 0 0 394 -477 0 0 -394zm0 -489l477 0 0 394 -477 0 0 -394zm683 -966l477 0 0 394 -477 0 0 -394zm-683 0l477 0 0 394 -477 0 0 -394zm683 -981l477 0 0 394 -477 0 0 -394zm0 -977l477 0 0 394 -477 0 0 -394zm-683 1466l477 0 0 394 -477 0 0 -394zm0 -977l477 0 0 394 -477 0 0 -394z"/>
   <path class="fil3" d="M804 1375l477 0 0 394 -477 0 0 -394zm-683 2924l477 0 0 394 -477 0 0 -394zm683 963l477 0 0 394 -477 0 0 -394zm0 -963l477 0 0 394 -477 0 0 -394zm0 -984l477 0 0 394 -477 0 0 -394zm-683 -489l477 0 0 394 -477 0 0 -394zm0 -1451l477 0 0 394 -477 0 0 -394zm683 963l477 0 0 394 -477 0 0 -394z"/>
  </g>
 </g>
</svg>
