<?xml version="1.0" encoding="UTF-8"?>
<!DOCTYPE svg PUBLIC "-//W3C//DTD SVG 1.1//EN" "http://www.w3.org/Graphics/SVG/1.1/DTD/svg11.dtd">
<!-- Creator: CorelDRAW X6 -->
<svg xmlns="http://www.w3.org/2000/svg" xml:space="preserve" width="4000px" height="14102px" version="1.1" style="shape-rendering:geometricPrecision; text-rendering:geometricPrecision; image-rendering:optimizeQuality; fill-rule:evenodd; clip-rule:evenodd"
viewBox="0 0 1552 5496"
 xmlns:xlink="http://www.w3.org/1999/xlink">
 <defs>
  <style type="text/css">
   <![CDATA[
    .fil0 {fill:#000066}
    .fil2 {fill:#597A9C}
    .fil1 {fill:#FFFFCC}
    .fil3 {fill:white}
   ]]>
  </style>
 </defs>
 <g id="contact">
  <metadata id="CorelCorpID_0Corel-Layer"/>
  <g id="_964356576">
   <path class="fil0" d="M498 0l555 0c169,0 308,138 308,308l0 545c0,169 -138,308 -308,308l-62 0 114 149 377 0 0 40 68 0 0 176 -68 0 0 3969 -1415 0 0 -3969 -68 0 0 -176 68 0 0 -40 377 0 114 -149 -61 0c-169,0 -308,-138 -308,-308l0 -545c0,-169 138,-308 308,-308z"/>
   <path class="fil1" d="M219 1602l1099 0 0 261 -1099 0 0 -261zm0 2261l1099 0 0 261 -1099 0 0 -261zm0 757l1099 0 0 261 -1099 0 0 -261zm0 -1487l1099 0 0 261 -1099 0 0 -261zm0 -1141l1099 0 0 261 -1099 0 0 -261z"/>
   <path class="fil2" d="M219 2377l1099 0 0 261 -1099 0 0 -261zm0 2599l1099 0 0 261 -1099 0 0 -261zm0 -730l1099 0 0 261 -1099 0 0 -261zm0 -756l1099 0 0 261 -1099 0 0 -261zm0 -730l1099 0 0 261 -1099 0 0 -261z"/>
   <g>
    <g>
     <path class="fil3" d="M1024 1087l-496 0c-143,0 -259,-116 -259,-259l0 -496c0,-143 116,-259 259,-259l496 0c143,0 259,116 259,259l0 496c0,143 -116,259 -259,259zm-496 -956c-111,0 -201,90 -201,201l0 496c0,111 90,201 201,201l496 0c111,0 201,-90 201,-201l0 -496c0,-111 -90,-201 -201,-201l-496 0 0 0z"/>
    </g>
    <g>
     <path class="fil3" d="M1254 454l-357 0c-16,0 -29,-13 -29,-29 0,-16 13,-29 29,-29l357 0c16,0 29,13 29,29 0,16 -13,29 -29,29z"/>
    </g>
    <g>
     <path class="fil3" d="M648 454l-349 0c-16,0 -29,-13 -29,-29 0,-16 13,-29 29,-29l349 0c16,0 29,13 29,29 0,16 -13,29 -29,29z"/>
    </g>
    <g>
     <path class="fil3" d="M776 806c-124,0 -226,-101 -226,-226 0,-125 101,-226 226,-226 124,0 226,101 226,226 0,125 -101,226 -226,226zm0 -394c-93,0 -168,75 -168,168 0,93 75,168 168,168 93,0 168,-75 168,-168 0,-93 -75,-168 -168,-168z"/>
    </g>
    <g>
     <path class="fil3" d="M1103 379l-130 0c-16,0 -29,-13 -29,-29l0 -130c0,-16 13,-29 29,-29l130 0c16,0 29,13 29,29l0 130c0,16 -13,29 -29,29zm-101 -58l72 0 0 -72 -72 0 0 72z"/>
    </g>
   </g>
  </g>
 </g>
</svg>
