<?xml version="1.0" encoding="UTF-8"?>
<!DOCTYPE svg PUBLIC "-//W3C//DTD SVG 1.1//EN" "http://www.w3.org/Graphics/SVG/1.1/DTD/svg11.dtd">
<!-- Creator: CorelDRAW X6 -->
<svg xmlns="http://www.w3.org/2000/svg" xml:space="preserve" width="4000px" height="15869px" version="1.1" style="shape-rendering:geometricPrecision; text-rendering:geometricPrecision; image-rendering:optimizeQuality; fill-rule:evenodd; clip-rule:evenodd"
viewBox="0 0 98479 390772"
 xmlns:xlink="http://www.w3.org/1999/xlink">
 <defs>
  <style type="text/css">
   <![CDATA[
    .fil0 {fill:#000066}
    .fil3 {fill:#597A9C}
    .fil2 {fill:#F7F7F7}
    .fil1 {fill:#FFFFCC}
   ]]>
  </style>
 </defs>
 <g id="contact">
  <metadata id="CorelCorpID_0Corel-Layer"/>
  <g id="_964630560">
   <path class="fil0" d="M98474 390772l-98474 0 0 -354457 7566 0 0 -22651c0,-7926 3742,-13664 8329,-13664l73876 0c5755,0 8332,3326 8709,13606l-6 377165z"/>
   <path class="fil1" d="M53912 105263l10258 0 0 22008 -10258 0 0 -22008zm19606 156411l10258 0 0 22008 -10258 0 0 -22008zm-58279 0l10256 0 0 22008 -10256 0 0 -22008zm58279 -31685l10258 0 0 22008 -10258 0 0 -22008zm-19606 62972l10258 0 0 22008 -10258 0 0 -22008zm-38672 0l10256 0 0 22008 -10256 0 0 -22008zm19606 -93240l10258 0 0 22008 -10258 0 0 -22008zm38672 -62774l10258 0 0 22008 -10258 0 0 -22008zm-58279 0l10256 0 0 22008 -10256 0 0 -22008zm58279 -31685l10258 0 0 22008 -10258 0 0 -22008zm0 -31352l10258 0 0 22008 -10258 0 0 -22008zm-38672 0l10258 0 0 22008 -10258 0 0 -22008zm-19606 0l10256 0 0 22008 -10256 0 0 -22008zm0 -31286l10256 0 0 22008 -10256 0 0 -22008zm0 -31354l10256 0 0 22008 -10256 0 0 -22008zm38672 125677l10258 0 0 22008 -10258 0 0 -22008z"/>
   <path class="fil2" d="M82777 6415l-41148 0c-5723,0 -10407,4684 -10407,10407l0 41148c0,5723 4684,10407 10407,10407l41148 0c5723,0 10407,-4684 10407,-10407l0 -41148c0,-5723 -4684,-10407 -10407,-10407zm-28319 50344l-7746 0 0 -27108 7746 0 0 27108zm-3872 -30982c-2139,0 -3874,-1733 -3874,-3872 0,-2139 1734,-3872 3874,-3872 2138,0 3872,1733 3872,3872 0,2139 -1734,3872 -3872,3872zm30980 30982l-7744 0 0 -15490c0,-2139 -1734,-3874 -3874,-3874 -2139,0 -3872,1734 -3872,3874l0 15490 -7746 0 0 -27108 7746 0 0 4808c1597,-2193 4038,-4808 6777,-4808 4812,0 8714,4334 8714,9681l-2 17427 0 0z"/>
   <path class="fil3" d="M53912 73910l10258 0 0 22008 -10258 0 0 -22008zm19606 280781l10258 0 0 22008 -10258 0 0 -22008zm-19606 0l10258 0 0 22008 -10258 0 0 -22008zm-19066 0l10258 0 0 22008 -10258 0 0 -22008zm-19606 0l10256 0 0 22008 -10256 0 0 -22008zm58279 -30245l10258 0 0 22008 -10258 0 0 -22008zm-19606 0l10258 0 0 22008 -10258 0 0 -22008zm-19066 0l10258 0 0 22008 -10258 0 0 -22008zm-19606 0l10256 0 0 22008 -10256 0 0 -22008zm58279 -31486l10258 0 0 22008 -10258 0 0 -22008zm-38672 0l10258 0 0 22008 -10258 0 0 -22008zm19066 -31287l10258 0 0 22008 -10258 0 0 -22008zm-19066 0l10258 0 0 22008 -10258 0 0 -22008zm19066 -31685l10258 0 0 22008 -10258 0 0 -22008zm-19066 0l10258 0 0 22008 -10258 0 0 -22008zm-19606 0l10256 0 0 22008 -10256 0 0 -22008zm58279 -30267l10258 0 0 22008 -10258 0 0 -22008zm-19606 0l10258 0 0 22008 -10258 0 0 -22008zm-38672 0l10256 0 0 22008 -10256 0 0 -22008zm58279 -31486l10258 0 0 22008 -10258 0 0 -22008zm-19606 0l10258 0 0 22008 -10258 0 0 -22008zm-19066 0l10258 0 0 22008 -10258 0 0 -22008zm-19606 0l10256 0 0 22008 -10256 0 0 -22008zm19606 -31287l10258 0 0 22008 -10258 0 0 -22008zm0 -31685l10258 0 0 22008 -10258 0 0 -22008zm-19606 0l10256 0 0 22008 -10256 0 0 -22008z"/>
  </g>
 </g>
</svg>
