<?xml version="1.0" encoding="UTF-8"?>
<!DOCTYPE svg PUBLIC "-//W3C//DTD SVG 1.1//EN" "http://www.w3.org/Graphics/SVG/1.1/DTD/svg11.dtd">
<!-- Creator: CorelDRAW X6 -->
<svg xmlns="http://www.w3.org/2000/svg" xml:space="preserve" width="4000px" height="15607px" version="1.1" style="shape-rendering:geometricPrecision; text-rendering:geometricPrecision; image-rendering:optimizeQuality; fill-rule:evenodd; clip-rule:evenodd"
viewBox="0 0 851 3319"
 xmlns:xlink="http://www.w3.org/1999/xlink">
 <defs>
  <style type="text/css">
   <![CDATA[
    .fil0 {fill:#000066}
    .fil2 {fill:#597A9C}
    .fil3 {fill:#FFFFCC}
    .fil1 {fill:white}
   ]]>
  </style>
 </defs>
 <g id="contact">
  <metadata id="CorelCorpID_0Corel-Layer"/>
  <g id="_962809152">
   <path class="fil0" d="M0 0l284 175 0 -175 567 351 0 2968c-284,0 -567,0 -851,0l0 -3319z"/>
   <path class="fil1" d="M541 254c-144,0 -260,116 -260,260 0,144 116,260 260,260 144,0 260,-116 260,-260 0,-144 -116,-260 -260,-260zm154 415c-20,20 -43,36 -69,47 -7,3 -13,5 -20,7l0 -39c0,-21 -7,-36 -21,-45 9,-1 17,-2 24,-4 7,-2 15,-4 23,-7 8,-3 16,-6 22,-10 7,-4 13,-9 19,-15 6,-6 11,-14 15,-22 4,-8 7,-18 10,-29 2,-11 4,-24 4,-37 0,-26 -9,-49 -26,-67 8,-20 7,-42 -3,-66l-6 -1c-4,-1 -12,1 -24,6 -11,4 -24,11 -38,21 -20,-6 -41,-8 -63,-8 -22,0 -43,3 -63,8 -9,-6 -17,-11 -26,-15 -8,-4 -14,-7 -19,-8 -5,-1 -9,-2 -13,-3 -4,0 -7,0 -8,0 -1,0 -2,0 -3,0 -9,24 -10,46 -3,66 -17,18 -26,41 -26,67 0,14 1,26 4,37 2,11 6,21 10,29 4,8 9,15 15,22 6,6 12,12 19,15 7,4 14,7 22,10 8,3 16,5 23,7 7,2 15,3 24,4 -14,9 -21,25 -21,45l0 40c-8,-2 -15,-5 -23,-8 -26,-11 -49,-27 -69,-47 -20,-20 -36,-43 -47,-69 -11,-27 -17,-56 -17,-85 0,-30 6,-58 17,-85 11,-26 27,-49 47,-69 20,-20 43,-36 69,-47 27,-11 56,-17 85,-17 30,0 58,6 85,17 26,11 49,27 69,47 20,20 36,43 47,69 11,27 17,56 17,85 0,30 -6,58 -17,85 -11,26 -27,49 -47,69l0 0z"/>
   <path class="fil2" d="M77 456l171 0 0 147 -171 0 0 -147zm523 2561l171 0 0 147 -171 0 0 -147zm0 -366l171 0 0 147 -171 0 0 -147zm0 -183l171 0 0 147 -171 0 0 -147zm-261 549l171 0 0 147 -171 0 0 -147zm0 -183l171 0 0 147 -171 0 0 -147zm0 -183l171 0 0 147 -171 0 0 -147zm0 -360l171 0 0 147 -171 0 0 -147zm-263 726l171 0 0 147 -171 0 0 -147zm0 -549l171 0 0 147 -171 0 0 -147zm0 -360l171 0 0 147 -171 0 0 -147zm523 -192l171 0 0 147 -171 0 0 -147zm0 -184l171 0 0 147 -171 0 0 -147zm0 -366l171 0 0 147 -171 0 0 -147zm0 -183l171 0 0 147 -171 0 0 -147zm-261 733l171 0 0 147 -171 0 0 -147zm-263 0l171 0 0 147 -171 0 0 -147zm263 -550l171 0 0 147 -171 0 0 -147zm0 -360l171 0 0 147 -171 0 0 -147zm-263 726l171 0 0 147 -171 0 0 -147zm0 -549l171 0 0 147 -171 0 0 -147zm0 -360l171 0 0 147 -171 0 0 -147z"/>
   <path class="fil3" d="M77 639l171 0 0 147 -171 0 0 -147zm523 2195l171 0 0 147 -171 0 0 -147zm0 -543l171 0 0 147 -171 0 0 -147zm0 -183l171 0 0 147 -171 0 0 -147zm-261 0l171 0 0 147 -171 0 0 -147zm-263 726l171 0 0 147 -171 0 0 -147zm0 -543l171 0 0 147 -171 0 0 -147zm263 178l171 0 0 147 -171 0 0 -147zm-263 183l171 0 0 147 -171 0 0 -147zm523 -1103l171 0 0 147 -171 0 0 -147zm0 -543l171 0 0 147 -171 0 0 -147zm0 -183l171 0 0 147 -171 0 0 -147zm-523 -692l171 104 0 191 -171 0 0 -295zm263 1602l171 0 0 147 -171 0 0 -147zm0 -909l171 0 0 147 -171 0 0 -147zm-263 726l171 0 0 147 -171 0 0 -147zm0 -543l171 0 0 147 -171 0 0 -147zm263 543l171 0 0 147 -171 0 0 -147zm0 -366l171 0 0 147 -171 0 0 -147zm-263 183l171 0 0 147 -171 0 0 -147z"/>
  </g>
 </g>
</svg>
