<?xml version="1.0" encoding="UTF-8"?>
<!DOCTYPE svg PUBLIC "-//W3C//DTD SVG 1.1//EN" "http://www.w3.org/Graphics/SVG/1.1/DTD/svg11.dtd">
<!-- Creator: CorelDRAW X6 -->
<svg xmlns="http://www.w3.org/2000/svg" xml:space="preserve" width="10000px" height="5128px" version="1.1" style="shape-rendering:geometricPrecision; text-rendering:geometricPrecision; image-rendering:optimizeQuality; fill-rule:evenodd; clip-rule:evenodd"
viewBox="0 0 2583 1331"
 xmlns:xlink="http://www.w3.org/1999/xlink">
 <defs>
  <style type="text/css">
   <![CDATA[
    .fil0 {fill:white}
   ]]>
  </style>
 </defs>
 <g id="UFO">
  <metadata id="CorelCorpID_0Corel-Layer"/>
  <path id="Carl_x0020_Logan" class="fil0" d="M84 896l153 0 0 327 198 0 0 98 -351 0 0 -425zm2498 -167l-2583 0 0 107 2583 0 0 -107zm-545 -721l208 0 0 506 269 0 0 152 -477 0 0 -658zm-68 658l-218 0 -39 -166c-2,-6 -4,-17 -7,-32 -3,-15 -8,-26 -12,-33 -5,-7 -11,-12 -20,-14 -22,1 -53,1 -95,1l0 245 -208 0 0 -653c93,-7 180,-10 261,-10 73,0 132,6 178,18 45,12 80,32 102,61 23,29 34,68 34,118 0,47 -11,84 -32,110 -22,27 -56,43 -104,48l0 7c27,2 49,11 68,26 18,15 30,34 36,57l57 217zm-392 -375c7,1 20,1 40,1 59,0 94,-5 104,-15 9,-9 14,-31 14,-65 0,-32 -8,-53 -25,-65 -17,-12 -44,-17 -81,-17 -8,0 -26,1 -52,2l0 158zm-514 231l-192 0 -35 144 -213 0 213 -658 271 0 203 658 -214 0 -35 -144zm-97 -372l-68 244 137 0 -65 -244 -5 0zm-360 494c-28,12 -62,21 -99,27 -38,5 -73,8 -105,8 -105,0 -187,-27 -246,-82 -59,-55 -89,-139 -89,-252 0,-116 31,-202 94,-259 62,-57 150,-86 263,-86 54,0 110,7 169,22 0,15 -2,38 -5,69 -3,30 -6,52 -9,64l-73 0c-53,0 -95,1 -125,3 -30,2 -49,6 -55,11 -12,11 -20,33 -27,65 -6,33 -9,64 -9,94 0,52 7,93 20,121 13,28 30,47 50,56 19,9 51,14 96,14 35,0 82,-3 139,-9l13 135zm1573 505l0 172 -142 0 0 -425 144 0 128 172c19,25 34,47 44,64l3 0 0 -72 0 -164 141 0 0 425 -145 0 -132 -179 -38 -51 -3 0 -1 58zm-367 78l-141 0 -25 93 -156 0 156 -425 200 0 150 425 -157 0 -25 -93zm-71 -240l-50 157 101 0 -48 -157 -3 0zm-281 98l0 213c-38,11 -74,19 -108,24 -34,5 -63,7 -86,7 -77,0 -137,-18 -181,-53 -44,-35 -65,-89 -65,-163 0,-75 23,-130 69,-167 46,-37 111,-56 194,-56 44,0 96,6 157,17 0,10 -1,25 -3,44 -2,20 -5,33 -7,41l-31 -1c-37,-1 -67,-1 -88,-1 -63,0 -97,3 -103,10 -9,9 -15,24 -19,44 -4,20 -5,39 -5,57 0,33 4,59 13,78 8,18 22,31 39,39 18,7 41,11 71,11l3 0 0 -145 150 0zm-734 245c-84,0 -148,-18 -190,-53 -42,-35 -63,-91 -63,-169 0,-76 23,-131 70,-166 46,-35 108,-52 184,-52 161,0 241,70 241,211 0,71 -20,127 -59,168 -39,41 -100,61 -183,61zm-3 -88c16,0 29,-2 40,-7 11,-5 19,-13 25,-25 12,-20 18,-54 18,-100 0,-45 -6,-78 -18,-98 -12,-21 -34,-32 -65,-33 -12,0 -24,1 -37,3 -13,2 -21,5 -24,9 -7,7 -12,22 -16,44 -4,23 -6,47 -6,74 0,42 5,72 14,92 6,14 15,25 26,31 11,6 25,9 42,9z"/>
 </g>
</svg>
