<?xml version="1.0" encoding="UTF-8"?>
<!DOCTYPE svg PUBLIC "-//W3C//DTD SVG 1.1//EN" "http://www.w3.org/Graphics/SVG/1.1/DTD/svg11.dtd">
<!-- Creator: CorelDRAW X6 -->
<svg xmlns="http://www.w3.org/2000/svg" xml:space="preserve" width="17999px" height="8786px" version="1.1" style="shape-rendering:geometricPrecision; text-rendering:geometricPrecision; image-rendering:optimizeQuality; fill-rule:evenodd; clip-rule:evenodd"
viewBox="0 0 18002 8783"
 xmlns:xlink="http://www.w3.org/1999/xlink">
 <defs>
  <style type="text/css">
   <![CDATA[
    .fil6 {fill:#000066}
    .fil4 {fill:#00CCFF}
    .fil5 {fill:#336699}
    .fil2 {fill:#427DB8}
    .fil7 {fill:#597A9C}
    .fil3 {fill:#70AEEB}
    .fil1 {fill:#FFFFCC}
    .fil0 {fill:#81C7E5}
   ]]>
  </style>
 </defs>
 <g id="stars">
  <metadata id="CorelCorpID_0Corel-Layer"/>
  <path id="stars_0" class="fil0" d="M16178 4818c31,0 57,25 57,57 0,31 -25,57 -57,57 -13,0 -26,-5 -35,-12 -7,11 -20,19 -34,19 -22,0 -40,-18 -40,-40 0,-22 18,-40 40,-40 5,0 10,1 15,3 7,-24 28,-42 55,-42zm-11033 -2435c-6,7 -17,9 -25,2 -7,-6 -9,-17 -2,-25 6,-7 17,-9 25,-2 7,6 9,17 2,25zm165 186c-12,14 -32,16 -46,5 -14,-12 -16,-32 -5,-46 12,-14 32,-16 46,-5 14,12 16,32 5,46zm-4856 -203c-10,12 -28,14 -40,4 -12,-10 -14,-28 -4,-40 10,-12 28,-14 40,-4 12,10 14,28 4,40zm-290 34c-6,7 -17,9 -25,2 -7,-6 -9,-17 -2,-25 6,-7 17,-9 25,-2 7,6 9,17 2,25zm1045 -154c-12,15 -34,17 -48,5 -15,-12 -17,-34 -5,-48 12,-15 34,-17 48,-5 15,12 17,34 5,48zm-950 -47c-6,7 -17,9 -25,2 -7,-6 -9,-17 -2,-25 6,-7 17,-9 25,-2 7,6 9,17 2,25zm2558 69c-10,12 -28,14 -40,4 -12,-10 -14,-28 -4,-40 10,-12 28,-14 40,-4 12,10 14,28 4,40zm-167 410c-6,7 -17,9 -25,2 -7,-6 -9,-17 -2,-25 6,-7 17,-9 25,-2 7,6 9,17 2,25zm-263 -166c-14,17 -40,20 -57,6 -17,-14 -20,-40 -6,-57 14,-17 40,-20 57,-6 17,14 20,40 6,57zm-919 -230c-6,7 -17,9 -25,2 -7,-6 -9,-17 -2,-25 6,-7 17,-9 25,-2 7,6 9,17 2,25zm557 -111c16,0 28,13 28,28 0,16 -13,28 -28,28 -16,0 -28,-13 -28,-28 0,-16 13,-28 28,-28zm1644 106c31,0 57,25 57,57 0,31 -25,57 -57,57 -31,0 -57,-25 -57,-57 0,-31 25,-57 57,-57zm-3207 -1473c-6,7 -17,9 -25,2 -7,-6 -9,-17 -2,-25 6,-7 17,-9 25,-2 7,6 9,17 2,25zm317 -31c-12,14 -32,16 -46,5 -14,-12 -16,-32 -5,-46 12,-14 32,-16 46,-5 14,12 16,32 5,46zm51 -285c16,0 28,13 28,28 0,16 -13,28 -28,28 -16,0 -28,-13 -28,-28 0,-16 13,-28 28,-28zm1059 265c-10,12 -28,14 -40,4 -12,-10 -14,-28 -4,-40 10,-12 28,-14 40,-4 12,10 14,28 4,40zm-300 -127c-6,7 -17,9 -25,2 -7,-6 -9,-17 -2,-25 6,-7 17,-9 25,-2 7,6 9,17 2,25zm743 -228c-10,12 -28,14 -40,4 -12,-10 -14,-28 -4,-40 10,-12 28,-14 40,-4 12,10 14,28 4,40zm-310 -162c-6,7 -17,9 -25,2 -7,-6 -9,-17 -2,-25 6,-7 17,-9 25,-2 7,6 9,17 2,25zm-1770 1141c-10,12 -28,14 -40,4 -12,-10 -14,-28 -4,-40 10,-12 28,-14 40,-4 12,10 14,28 4,40zm1090 215c-6,7 -17,9 -25,2 -7,-6 -9,-17 -2,-25 6,-7 17,-9 25,-2 7,6 9,17 2,25zm-951 -13c-10,12 -28,14 -40,4 -12,-10 -14,-28 -4,-40 10,-12 28,-14 40,-4 12,10 14,28 4,40zm-228 -573c-6,7 -17,9 -25,2 -7,-6 -9,-17 -2,-25 6,-7 17,-9 25,-2 7,6 9,17 2,25zm505 190c-12,14 -32,16 -46,5 -14,-12 -16,-32 -5,-46 12,-14 32,-16 46,-5 14,12 16,32 5,46zm-318 -560c16,0 28,13 28,28 0,16 -13,28 -28,28 -16,0 -28,-13 -28,-28 0,-16 13,-28 28,-28zm2076 835c-6,7 -17,9 -25,2 -7,-6 -9,-17 -2,-25 6,-7 17,-9 25,-2 7,6 9,17 2,25zm-18 281c-7,9 -20,10 -28,3 -9,-7 -10,-20 -3,-28 7,-9 20,-10 28,-3 9,7 10,20 3,28zm-273 -1176c-6,7 -17,9 -25,2 -7,-6 -9,-17 -2,-25 6,-7 17,-9 25,-2 7,6 9,17 2,25zm-695 564c16,0 28,13 28,28 0,16 -13,28 -28,28 -16,0 -28,-13 -28,-28 0,-16 13,-28 28,-28zm-458 -62c22,0 40,18 40,40 0,22 -18,40 -40,40 -22,0 -40,-18 -40,-40 0,-22 18,-40 40,-40zm2111 -211c-6,7 -17,9 -25,2 -7,-6 -9,-17 -2,-25 6,-7 17,-9 25,-2 7,6 9,17 2,25zm472 345c-12,14 -32,16 -46,5 -14,-12 -16,-32 -5,-46 12,-14 32,-16 46,-5 14,12 16,32 5,46zm-104 -661c16,0 28,13 28,28 0,16 -13,28 -28,28 -16,0 -28,-13 -28,-28 0,-16 13,-28 28,-28zm1059 265c-10,12 -28,14 -40,4 -12,-10 -14,-28 -4,-40 10,-12 28,-14 40,-4 12,10 14,28 4,40zm-300 -127c-6,7 -17,9 -25,2 -7,-6 -9,-17 -2,-25 6,-7 17,-9 25,-2 7,6 9,17 2,25zm743 -228c-10,12 -28,14 -40,4 -12,-10 -14,-28 -4,-40 10,-12 28,-14 40,-4 12,10 14,28 4,40zm-310 -162c-6,7 -17,9 -25,2 -7,-6 -9,-17 -2,-25 6,-7 17,-9 25,-2 7,6 9,17 2,25zm-2504 848c-10,12 -28,14 -40,4 -12,-10 -14,-28 -4,-40 10,-12 28,-14 40,-4 12,10 14,28 4,40zm2061 849c-6,7 -17,9 -25,2 -7,-6 -9,-17 -2,-25 6,-7 17,-9 25,-2 7,6 9,17 2,25zm-1189 -354c-10,12 -28,14 -40,4 -12,-10 -14,-28 -4,-40 10,-12 28,-14 40,-4 12,10 14,28 4,40zm-228 -573c-6,7 -17,9 -25,2 -7,-6 -9,-17 -2,-25 6,-7 17,-9 25,-2 7,6 9,17 2,25zm317 -31c-12,14 -32,16 -46,5 -14,-12 -16,-32 -5,-46 12,-14 32,-16 46,-5 14,12 16,32 5,46zm-130 -339c16,0 28,13 28,28 0,16 -13,28 -28,28 -16,0 -28,-13 -28,-28 0,-16 13,-28 28,-28zm3014 1694c-10,12 -28,14 -40,4 -12,-10 -14,-28 -4,-40 10,-12 28,-14 40,-4 12,10 14,28 4,40zm-290 34c-6,7 -17,9 -25,2 -7,-6 -9,-17 -2,-25 6,-7 17,-9 25,-2 7,6 9,17 2,25zm94 -201c-6,7 -17,9 -25,2 -7,-6 -9,-17 -2,-25 6,-7 17,-9 25,-2 7,6 9,17 2,25zm606 -756c12,0 22,10 22,22 0,12 -10,22 -22,22 -12,0 -22,-10 -22,-22 0,-12 10,-22 22,-22zm48 -294c-10,12 -28,14 -40,4 -12,-10 -14,-28 -4,-40 10,-12 28,-14 40,-4 12,10 14,28 4,40zm-261 120c-6,7 -17,9 -25,2 -7,-6 -9,-17 -2,-25 6,-7 17,-9 25,-2 7,6 9,17 2,25zm85 -326c-10,12 -28,14 -40,4 -12,-10 -14,-28 -4,-40 10,-12 28,-14 40,-4 12,10 14,28 4,40zm-596 -773c-6,7 -17,9 -25,2 -7,-6 -9,-17 -2,-25 6,-7 17,-9 25,-2 7,6 9,17 2,25zm89 232c16,0 28,13 28,28 0,16 -13,28 -28,28 -16,0 -28,-13 -28,-28 0,-16 13,-28 28,-28zm-121 244c22,0 40,18 40,40 0,22 -18,40 -40,40 -22,0 -40,-18 -40,-40 0,-22 18,-40 40,-40zm-331 742c-10,12 -28,14 -40,4 -12,-10 -14,-28 -4,-40 10,-12 28,-14 40,-4 12,10 14,28 4,40zm-261 120c-6,7 -17,9 -25,2 -7,-6 -9,-17 -2,-25 6,-7 17,-9 25,-2 7,6 9,17 2,25zm-18 281c-7,9 -20,10 -28,3 -9,-7 -10,-20 -3,-28 7,-9 20,-10 28,-3 9,7 10,20 3,28zm103 -607c-10,12 -28,14 -40,4 -12,-10 -14,-28 -4,-40 10,-12 28,-14 40,-4 12,10 14,28 4,40zm-376 -569c-6,7 -17,9 -25,2 -7,-6 -9,-17 -2,-25 6,-7 17,-9 25,-2 7,6 9,17 2,25zm1025 710c-12,14 -32,16 -46,5 -14,-12 -16,-32 -5,-46 12,-14 32,-16 46,-5 14,12 16,32 5,46zm-1720 -146c16,0 28,13 28,28 0,16 -13,28 -28,28 -16,0 -28,-13 -28,-28 0,-16 13,-28 28,-28zm-121 244c22,0 40,18 40,40 0,22 -18,40 -40,40 -22,0 -40,-18 -40,-40 0,-22 18,-40 40,-40zm2082 235c-10,12 -28,14 -40,4 -12,-10 -14,-28 -4,-40 10,-12 28,-14 40,-4 12,10 14,28 4,40zm5845 811c-6,7 -17,9 -25,2 -7,-6 -9,-17 -2,-25 6,-7 17,-9 25,-2 7,6 9,17 2,25zm165 186c-12,14 -32,16 -46,5 -14,-12 -16,-32 -5,-46 12,-14 32,-16 47,-5 14,12 16,32 5,46zm-4856 -203c-10,12 -28,14 -40,4 -12,-10 -14,-28 -4,-40 10,-12 28,-14 40,-4 12,10 14,28 4,40zm-290 34c-6,7 -17,9 -25,2 -7,-6 -9,-17 -2,-25 6,-7 17,-9 25,-2 7,6 9,17 2,25zm1045 -154c-12,15 -34,17 -48,5 -15,-12 -17,-34 -5,-48 12,-15 34,-17 48,-5 15,12 17,34 5,48zm-950 -47c-6,7 -17,9 -25,2 -7,-6 -9,-17 -2,-25 6,-7 17,-9 25,-2 7,6 9,17 2,25zm2558 69c-10,12 -28,14 -40,4 -12,-10 -14,-28 -4,-40 10,-12 28,-14 40,-4 12,10 14,28 4,40zm-167 410c-6,7 -17,9 -25,2 -7,-6 -9,-17 -2,-25 6,-7 17,-9 25,-2 7,6 9,17 2,25zm-263 -166c-14,17 -40,20 -57,6 -17,-14 -20,-40 -6,-57 14,-17 40,-20 57,-6 17,14 20,40 6,57zm-919 -230c-6,7 -17,9 -25,2 -7,-6 -9,-17 -2,-25 6,-7 17,-9 25,-2 7,6 9,17 2,25zm557 -111c16,0 28,13 28,28 0,16 -13,28 -28,28 -16,0 -28,-13 -28,-28 0,-16 13,-28 28,-28zm1644 106c31,0 57,25 57,57 0,31 -25,57 -57,57 -31,0 -57,-25 -57,-57 0,-31 25,-57 57,-57zm-3207 -1473c-6,7 -17,9 -25,2 -7,-6 -9,-17 -2,-25 6,-7 17,-9 25,-2 7,6 9,17 2,25zm317 -31c-12,14 -32,16 -46,5 -14,-12 -16,-32 -5,-47 12,-14 32,-16 46,-5 14,12 16,32 5,46zm51 -285c16,0 28,13 28,28 0,16 -13,28 -28,28 -16,0 -28,-13 -28,-28 0,-16 13,-28 28,-28zm1059 265c-10,12 -28,14 -40,4 -12,-10 -14,-28 -4,-40 10,-12 28,-14 40,-4 12,10 14,28 4,40zm-300 -127c-6,7 -17,9 -25,2 -7,-6 -9,-17 -2,-25 6,-7 17,-9 25,-2 7,6 9,17 2,25zm743 -228c-10,12 -28,14 -40,4 -12,-10 -14,-28 -4,-40 10,-12 28,-14 40,-4 12,10 14,28 4,40zm-310 -162c-6,7 -17,9 -25,2 -7,-6 -9,-17 -2,-25 6,-7 17,-9 25,-2 7,6 9,17 2,25zm-1770 1141c-10,12 -28,14 -40,4 -12,-10 -14,-28 -4,-40 10,-12 28,-14 40,-4 12,10 14,28 4,40zm1090 215c-6,7 -17,9 -25,2 -7,-6 -9,-17 -2,-25 6,-7 17,-9 25,-2 7,6 9,17 2,25zm-951 -13c-10,12 -28,14 -40,4 -12,-10 -14,-28 -4,-40 10,-12 28,-14 40,-4 12,10 14,28 4,40zm-228 -573c-6,7 -17,9 -25,2 -7,-6 -9,-17 -2,-25 6,-7 17,-9 25,-2 7,6 9,17 2,25zm505 190c-12,14 -32,16 -46,5 -14,-12 -16,-32 -5,-46 12,-14 32,-16 46,-5 14,12 16,32 5,46zm-318 -560c16,0 28,13 28,28 0,16 -13,28 -28,28 -16,0 -28,-13 -28,-28 0,-16 13,-28 28,-28zm2076 835c-6,7 -17,9 -25,2 -7,-6 -9,-17 -2,-25 6,-7 17,-9 25,-2 7,6 9,17 2,25zm-18 281c-7,9 -20,10 -28,3 -9,-7 -10,-20 -3,-28 7,-9 20,-10 28,-3 9,7 10,20 3,28zm-273 -1176c-6,7 -17,9 -25,2 -7,-6 -9,-17 -2,-25 6,-7 17,-9 25,-2 7,6 9,17 2,25zm-695 564c16,0 28,13 28,28 0,16 -13,28 -28,28 -16,0 -28,-13 -28,-28 0,-16 13,-28 28,-28zm-458 -62c22,0 40,18 40,40 0,22 -18,40 -40,40 -22,0 -40,-18 -40,-40 0,-22 18,-40 40,-40zm8048 446c-10,12 -28,14 -40,4 -12,-10 -14,-28 -4,-40 10,-12 28,-14 40,-4 12,10 14,28 4,40zm-290 34c-6,7 -17,9 -25,2 -7,-6 -9,-17 -2,-25 6,-7 17,-9 25,-2 7,6 9,17 2,25zm94 -201c-6,7 -17,9 -25,2 -7,-6 -9,-17 -2,-25 6,-7 17,-9 25,-2 7,6 9,17 2,25zm873 -85c22,0 40,18 40,40 0,22 -18,40 -40,40 -22,0 -40,-18 -40,-40 0,-22 18,-40 40,-40zm-2591 -1095c-6,7 -17,9 -25,2 -7,-6 -9,-17 -2,-25 6,-7 17,-9 25,-2 7,6 9,17 2,25zm93 352c-10,12 -28,14 -40,4 -12,-10 -14,-28 -4,-40 10,-12 28,-14 40,-4 12,10 14,28 4,40zm-302 -240c-6,7 -17,9 -25,2 -7,-6 -9,-17 -2,-25 6,-7 17,-9 25,-2 7,6 9,17 2,25zm3779 1776c-6,7 -17,9 -25,2 -7,-6 -9,-17 -2,-25 6,-7 17,-9 25,-2 7,6 9,17 2,25zm165 186c-12,14 -32,16 -46,5 -14,-12 -16,-32 -5,-46 12,-14 32,-16 46,-5 14,12 16,32 5,46zm-80 -548c16,0 28,13 28,28 0,16 -13,28 -28,28 -16,0 -28,-13 -28,-28 0,-16 13,-28 28,-28zm-7678 -834c-6,7 -17,9 -25,2 -7,-6 -9,-17 -2,-25 6,-7 17,-9 25,-2 7,6 9,17 2,25zm472 345c-12,14 -32,16 -46,5 -14,-12 -16,-32 -5,-47 12,-14 32,-16 46,-5 14,12 16,32 5,46zm-104 -661c16,0 28,13 28,28 0,16 -13,28 -28,28 -16,0 -28,-13 -28,-28 0,-16 13,-28 28,-28zm1059 265c-10,12 -28,14 -40,4 -12,-10 -14,-28 -4,-40 10,-12 28,-14 40,-4 12,10 14,28 4,40zm-300 -127c-6,7 -17,9 -25,2 -7,-6 -9,-17 -2,-25 6,-7 17,-9 25,-2 7,6 9,17 2,25zm743 -228c-10,12 -28,14 -40,4 -12,-10 -14,-28 -4,-40 10,-12 28,-14 40,-4 12,10 14,28 4,40zm-310 -162c-6,7 -17,9 -25,2 -7,-6 -9,-17 -2,-25 6,-7 17,-9 25,-2 7,6 9,17 2,25zm4027 44c16,0 28,13 28,28 0,16 -13,28 -28,28 -16,0 -28,-13 -28,-28 0,-16 13,-28 28,-28zm372 135c22,0 40,18 40,40 0,22 -18,40 -40,40 -22,0 -40,-18 -40,-40 0,-22 18,-40 40,-40zm907 671c-6,7 -17,9 -25,2 -7,-6 -9,-17 -2,-25 6,-7 17,-9 25,-2 7,6 9,17 2,25zm-46 -290c-6,7 -17,9 -25,2 -7,-6 -9,-17 -2,-25 6,-7 17,-9 25,-2 7,6 9,17 2,25zm-468 -128c16,0 28,13 28,28 0,16 -13,28 -28,28 -16,0 -28,-13 -28,-28 0,-16 13,-28 28,-28zm-69 -841c22,0 40,18 40,40 0,22 -18,40 -40,40 -22,0 -40,-18 -40,-40 0,-22 18,-40 40,-40zm1712 1396c-6,7 -17,9 -25,2 -7,-6 -9,-17 -2,-25 6,-7 17,-9 25,-2 7,6 9,17 2,25zm-403 -460c-12,15 -34,17 -48,5 -15,-12 -17,-34 -5,-48 12,-15 34,-17 48,-5 15,12 17,34 5,48zm173 -279c-10,12 -28,14 -40,4 -12,-10 -14,-28 -4,-40 10,-12 28,-14 40,-4 12,10 14,28 4,40zm125 375c-6,7 -17,9 -25,2 -7,-6 -9,-17 -2,-25 6,-7 17,-9 25,-2 7,6 9,17 2,25zm187 -276c-14,17 -40,20 -57,6 -17,-14 -20,-40 -6,-57 14,-17 40,-20 57,-6 17,14 20,40 6,57zm-9020 502c-10,12 -28,14 -40,4 -12,-10 -14,-28 -4,-40 10,-12 28,-14 40,-4 12,10 14,28 4,40zm2061 849c-6,7 -17,9 -25,2 -7,-6 -9,-17 -2,-25 6,-7 17,-9 25,-2 7,6 9,17 2,25zm-1189 -354c-10,12 -28,14 -40,4 -12,-10 -14,-28 -4,-40 10,-12 28,-14 40,-4 12,10 14,28 4,40zm-228 -573c-6,7 -17,9 -25,2 -7,-6 -9,-17 -2,-25 6,-7 17,-9 25,-2 7,6 9,17 2,25zm317 -31c-12,14 -32,16 -46,5 -14,-12 -16,-32 -5,-46 12,-14 32,-16 46,-5 14,12 16,32 5,46zm-130 -339c16,0 28,13 28,28 0,16 -13,28 -28,28 -16,0 -28,-13 -28,-28 0,-16 13,-28 28,-28zm4301 780c-10,12 -28,14 -40,4 -12,-10 -14,-28 -4,-40 10,-12 28,-14 40,-4 12,10 14,28 4,40zm-625 -1222c-6,7 -17,9 -25,2 -7,-6 -9,-17 -2,-25 6,-7 17,-9 25,-2 7,6 9,17 2,25zm-662 2136c-10,12 -28,14 -40,4 -12,-10 -14,-28 -4,-40 10,-12 28,-14 40,-4 12,10 14,28 4,40zm-290 34c-6,7 -17,9 -25,2 -7,-6 -9,-17 -2,-25 6,-7 17,-9 25,-2 7,6 9,17 2,25zm1045 -501c-12,15 -34,17 -48,5 -15,-12 -17,-34 -5,-48 12,-15 34,-17 48,-5 15,12 17,34 5,48zm-950 300c-6,7 -17,9 -25,2 -7,-6 -9,-17 -2,-25 6,-7 17,-9 25,-2 7,6 9,17 2,25zm606 -756c12,0 22,10 22,22 0,12 -10,22 -22,22 -12,0 -22,-10 -22,-22 0,-12 10,-22 22,-22zm48 -294c-10,12 -28,14 -40,4 -12,-10 -14,-28 -4,-40 10,-12 28,-14 40,-4 12,10 14,28 4,40zm-261 120c-6,7 -17,9 -25,2 -7,-6 -9,-17 -2,-25 6,-7 17,-9 25,-2 7,6 9,17 2,25zm85 -326c-10,12 -28,14 -40,4 -12,-10 -14,-28 -4,-40 10,-12 28,-14 40,-4 12,10 14,28 4,40zm-596 -773c-6,7 -17,9 -25,2 -7,-6 -9,-17 -2,-25 6,-7 17,-9 25,-2 7,6 9,17 2,25zm89 232c16,0 28,13 28,28 0,16 -13,28 -28,28 -16,0 -28,-13 -28,-28 0,-16 13,-28 28,-28zm-121 244c22,0 40,18 40,40 0,22 -18,40 -40,40 -22,0 -40,-18 -40,-40 0,-22 18,-40 40,-40zm-331 742c-10,12 -28,14 -40,4 -12,-10 -14,-28 -4,-40 10,-12 28,-14 40,-4 12,10 14,28 4,40zm-261 120c-6,7 -17,9 -25,2 -7,-6 -9,-17 -2,-25 6,-7 17,-9 25,-2 7,6 9,17 2,25zm-18 281c-7,9 -20,10 -28,3 -9,-7 -10,-20 -3,-28 7,-9 20,-10 28,-3 9,7 10,20 3,28zm103 -607c-10,12 -28,14 -40,4 -12,-10 -14,-28 -4,-40 10,-12 28,-14 40,-4 12,10 14,28 4,40zm-376 -569c-6,7 -17,9 -25,2 -7,-6 -9,-17 -2,-25 6,-7 17,-9 25,-2 7,6 9,17 2,25zm1025 710c-12,14 -32,16 -46,5 -14,-12 -16,-32 -5,-46 12,-14 32,-16 46,-5 14,12 16,32 5,46zm-1720 -146c16,0 28,13 28,28 0,16 -13,28 -28,28 -16,0 -28,-13 -28,-28 0,-16 13,-28 28,-28zm-121 244c22,0 40,18 40,40 0,22 -18,40 -40,40 -22,0 -40,-18 -40,-40 0,-22 18,-40 40,-40zm4407 501c-10,12 -28,14 -40,4 -12,-10 -14,-28 -4,-40 10,-12 28,-14 40,-4 12,10 14,28 4,40zm-167 410c-6,7 -17,9 -25,2 -7,-6 -9,-17 -2,-25 6,-7 17,-9 25,-2 7,6 9,17 2,25zm-263 -166c-14,17 -40,20 -57,6 -17,-14 -20,-40 -6,-57 14,-17 40,-20 57,-6 17,14 20,40 6,57zm-1896 -510c-10,12 -28,14 -40,4 -12,-10 -14,-28 -4,-40 10,-12 28,-14 40,-4 12,10 14,28 4,40zm977 280c-6,7 -17,9 -25,2 -7,-6 -9,-17 -2,-25 6,-7 17,-9 25,-2 7,6 9,17 2,25zm325 -1014c-14,17 -40,20 -57,6 -17,-14 -20,-40 -6,-57 14,-17 40,-20 57,-6 17,14 20,40 6,57zm961 109c-10,12 -28,14 -40,4 -12,-10 -14,-28 -4,-40 10,-12 28,-14 40,-4 12,10 14,28 4,40zm-84 185c-6,7 -17,9 -25,2 -7,-6 -9,-17 -2,-25 6,-7 17,-9 25,-2 7,6 9,17 2,25zm-115 -705c-14,17 -40,20 -57,6 -17,-14 -20,-40 -6,-57 14,-17 40,-20 57,-6 17,14 20,40 6,57zm-530 1314c16,0 28,13 28,28 0,16 -13,28 -28,28 -16,0 -28,-13 -28,-28 0,-16 13,-28 28,-28zm364 -109c31,0 57,25 57,57 0,31 -25,57 -57,57 -31,0 -57,-25 -57,-57 0,-31 25,-57 57,-57zm-1014 -1169c22,0 40,18 40,40 0,22 -18,40 -40,40 -22,0 -40,-18 -40,-40 0,-22 18,-40 40,-40zm2634 1052c16,0 28,13 28,28 0,16 -13,28 -28,28 -16,0 -28,-13 -28,-28 0,-16 13,-28 28,-28zm-52 547c31,0 57,25 57,57 0,31 -25,57 -57,57 -31,0 -57,-25 -57,-57 0,-31 25,-57 57,-57zm-11087 4961c-6,7 -17,9 -25,2 -7,-6 -9,-17 -2,-25 6,-7 17,-9 25,-2 7,6 9,17 2,25zm165 186c-12,14 -32,16 -46,5 -14,-12 -16,-32 -5,-46 12,-14 32,-16 46,-5 14,12 16,32 5,46zm-4856 -203c-10,12 -28,14 -40,4 -12,-10 -14,-28 -4,-40 10,-12 28,-14 40,-4 12,10 14,28 4,40zm-290 34c-6,7 -17,9 -25,2 -7,-6 -9,-17 -2,-25 6,-7 17,-9 25,-2 7,6 9,17 2,25zm1045 -154c-12,15 -34,17 -48,5 -15,-12 -17,-34 -5,-48 12,-15 34,-17 48,-5 15,12 17,34 5,48zm-950 -47c-6,7 -17,9 -25,2 -7,-6 -9,-17 -2,-25 6,-7 17,-9 25,-2 7,6 9,17 2,25zm2558 69c-10,12 -28,14 -40,4 -12,-10 -14,-28 -4,-40 10,-12 28,-14 40,-4 12,10 14,28 4,40zm-1348 14c-6,7 -17,9 -25,2 -7,-6 -9,-17 -2,-25 6,-7 17,-9 25,-2 7,6 9,17 2,25zm557 -111c16,0 28,13 28,28 0,16 -13,28 -28,28 -16,0 -28,-13 -28,-28 0,-16 13,-28 28,-28zm1644 106c31,0 57,25 57,57 0,31 -25,57 -57,57 -31,0 -57,-25 -57,-57 0,-31 25,-57 57,-57zm-3207 -1473c-6,7 -17,9 -25,2 -7,-6 -9,-17 -2,-25 6,-7 17,-9 25,-2 7,6 9,17 2,25zm317 -31c-12,14 -32,16 -46,5 -14,-12 -16,-32 -5,-46 12,-14 32,-16 46,-5 14,12 16,32 5,46zm51 -285c16,0 28,13 28,28 0,16 -13,28 -28,28 -16,0 -28,-13 -28,-28 0,-16 13,-28 28,-28zm1059 265c-10,12 -28,14 -40,4 -12,-10 -14,-28 -4,-40 10,-12 28,-14 40,-4 12,10 14,28 4,40zm-300 -127c-6,7 -17,9 -25,2 -7,-6 -9,-17 -2,-25 6,-7 17,-9 25,-2 7,6 9,17 2,25zm743 -228c-10,12 -28,14 -40,4 -12,-10 -14,-28 -4,-40 10,-12 28,-14 40,-4 12,10 14,28 4,40zm-310 -162c-6,7 -17,9 -25,2 -7,-6 -9,-17 -2,-25 6,-7 17,-9 25,-2 7,6 9,17 2,25zm-1770 1141c-10,12 -28,14 -40,4 -12,-10 -14,-28 -4,-40 10,-12 28,-14 40,-4 12,10 14,28 4,40zm1090 215c-6,7 -17,9 -25,2 -7,-6 -9,-17 -2,-25 6,-7 17,-9 25,-2 7,6 9,17 2,25zm-951 -13c-10,12 -28,14 -40,4 -12,-10 -14,-28 -4,-40 10,-12 28,-14 40,-4 12,10 14,28 4,40zm-228 -573c-6,7 -17,9 -25,2 -7,-6 -9,-17 -2,-25 6,-7 17,-9 25,-2 7,6 9,17 2,25zm505 190c-12,14 -32,16 -46,5 -14,-12 -16,-32 -5,-46 12,-14 32,-16 46,-5 14,12 16,32 5,46zm-318 -560c16,0 28,13 28,28 0,16 -13,28 -28,28 -16,0 -28,-13 -28,-28 0,-16 13,-28 28,-28zm2076 835c-6,7 -17,9 -25,2 -7,-6 -9,-17 -2,-25 6,-7 17,-9 25,-2 7,6 9,17 2,25zm-18 281c-7,9 -20,10 -28,3 -9,-7 -10,-20 -3,-28 7,-9 20,-10 28,-3 9,7 10,20 3,28zm-273 -1176c-6,7 -17,9 -25,2 -7,-6 -9,-17 -2,-25 6,-7 17,-9 25,-2 7,6 9,17 2,25zm-695 564c16,0 28,13 28,28 0,16 -13,28 -28,28 -16,0 -28,-13 -28,-28 0,-16 13,-28 28,-28zm-458 -62c22,0 40,18 40,40 0,22 -18,40 -40,40 -22,0 -40,-18 -40,-40 0,-22 18,-40 40,-40zm2111 -211c-6,7 -17,9 -25,2 -7,-6 -9,-17 -2,-25 6,-7 17,-9 25,-2 7,6 9,17 2,25zm472 345c-12,14 -32,16 -46,5 -14,-12 -16,-32 -5,-46 12,-14 32,-16 46,-5 14,12 16,32 5,46zm-104 -661c16,0 28,13 28,28 0,16 -13,28 -28,28 -16,0 -28,-13 -28,-28 0,-16 13,-28 28,-28zm1059 265c-10,12 -28,14 -40,4 -12,-10 -14,-28 -4,-40 10,-12 28,-14 40,-4 12,10 14,28 4,40zm-300 -127c-6,7 -17,9 -25,2 -7,-6 -9,-17 -2,-25 6,-7 17,-9 25,-2 7,6 9,17 2,25zm743 -228c-10,12 -28,14 -40,4 -12,-10 -14,-28 -4,-40 10,-12 28,-14 40,-4 12,10 14,28 4,40zm-310 -162c-6,7 -17,9 -25,2 -7,-6 -9,-17 -2,-25 6,-7 17,-9 25,-2 7,6 9,17 2,25zm-2504 848c-10,12 -28,14 -40,4 -12,-10 -14,-28 -4,-40 10,-12 28,-14 40,-4 12,10 14,28 4,40zm2061 849c-6,7 -17,9 -25,2 -7,-6 -9,-17 -2,-25 6,-7 17,-9 25,-2 7,6 9,17 2,25zm-1189 -354c-10,12 -28,14 -40,4 -12,-10 -14,-28 -4,-40 10,-12 28,-14 40,-4 12,10 14,28 4,40zm-228 -573c-6,7 -17,9 -25,2 -7,-6 -9,-17 -2,-25 6,-7 17,-9 25,-2 7,6 9,17 2,25zm317 -31c-12,14 -32,16 -46,5 -14,-12 -16,-32 -5,-46 12,-14 32,-16 46,-5 14,12 16,32 5,46zm-130 -339c16,0 28,13 28,28 0,16 -13,28 -28,28 -16,0 -28,-13 -28,-28 0,-16 13,-28 28,-28zm3014 1694c-10,12 -28,14 -40,4 -12,-10 -14,-28 -4,-40 10,-12 28,-14 40,-4 12,10 14,28 4,40zm-290 34c-6,7 -17,9 -25,2 -7,-6 -9,-17 -2,-25 6,-7 17,-9 25,-2 7,6 9,17 2,25zm94 -201c-6,7 -17,9 -25,2 -7,-6 -9,-17 -2,-25 6,-7 17,-9 25,-2 7,6 9,17 2,25zm606 -756c12,0 22,10 22,22 0,12 -10,22 -22,22 -12,0 -22,-10 -22,-22 0,-12 10,-22 22,-22zm48 -294c-10,12 -28,14 -40,4 -12,-10 -14,-28 -4,-40 10,-12 28,-14 40,-4 12,10 14,28 4,40zm-261 120c-6,7 -17,9 -25,2 -7,-6 -9,-17 -2,-25 6,-7 17,-9 25,-2 7,6 9,17 2,25zm85 -326c-10,12 -28,14 -40,4 -12,-10 -14,-28 -4,-40 10,-12 28,-14 40,-4 12,10 14,28 4,40zm-596 -773c-6,7 -17,9 -25,2 -7,-6 -9,-17 -2,-25 6,-7 17,-9 25,-2 7,6 9,17 2,25zm89 232c16,0 28,13 28,28 0,16 -13,28 -28,28 -16,0 -28,-13 -28,-28 0,-16 13,-28 28,-28zm-121 244c22,0 40,18 40,40 0,22 -18,40 -40,40 -22,0 -40,-18 -40,-40 0,-22 18,-40 40,-40zm-331 742c-10,12 -28,14 -40,4 -12,-10 -14,-28 -4,-40 10,-12 28,-14 40,-4 12,10 14,28 4,40zm-261 120c-6,7 -17,9 -25,2 -7,-6 -9,-17 -2,-25 6,-7 17,-9 25,-2 7,6 9,17 2,25zm-18 281c-7,9 -20,10 -28,3 -9,-7 -10,-20 -3,-28 7,-9 20,-10 28,-3 9,7 10,20 3,28zm103 -607c-10,12 -28,14 -40,4 -12,-10 -14,-28 -4,-40 10,-12 28,-14 40,-4 12,10 14,28 4,40zm-376 -569c-6,7 -17,9 -25,2 -7,-6 -9,-17 -2,-25 6,-7 17,-9 25,-2 7,6 9,17 2,25zm1025 710c-12,14 -32,16 -46,5 -14,-12 -16,-32 -5,-46 12,-14 32,-16 46,-5 14,12 16,32 5,46zm-1720 -146c16,0 28,13 28,28 0,16 -13,28 -28,28 -16,0 -28,-13 -28,-28 0,-16 13,-28 28,-28zm-121 244c22,0 40,18 40,40 0,22 -18,40 -40,40 -22,0 -40,-18 -40,-40 0,-22 18,-40 40,-40zm2082 235c-10,12 -28,14 -40,4 -12,-10 -14,-28 -4,-40 10,-12 28,-14 40,-4 12,10 14,28 4,40zm864 828c-6,7 -17,9 -25,2 -7,-6 -9,-17 -2,-25 6,-7 17,-9 25,-2 7,6 9,17 2,25zm94 -201c-6,7 -17,9 -25,2 -7,-6 -9,-17 -2,-25 6,-7 17,-9 25,-2 7,6 9,17 2,25zm2558 69c-10,12 -28,14 -40,4 -12,-10 -14,-28 -4,-40 10,-12 28,-14 40,-4 12,10 14,28 4,40zm-429 244c-14,17 -40,20 -57,6 -17,-14 -20,-40 -6,-57 14,-17 40,-20 57,-6 17,14 20,40 6,57zm-919 -230c-6,7 -17,9 -25,2 -7,-6 -9,-17 -2,-25 6,-7 17,-9 25,-2 7,6 9,17 2,25zm557 -111c16,0 28,13 28,28 0,16 -13,28 -28,28 -16,0 -28,-13 -28,-28 0,-16 13,-28 28,-28zm-1562 -1367c-6,7 -17,9 -25,2 -7,-6 -9,-17 -2,-25 6,-7 17,-9 25,-2 7,6 9,17 2,25zm317 -31c-12,14 -32,16 -46,5 -14,-12 -16,-32 -5,-46 12,-14 32,-16 46,-5 14,12 16,32 5,46zm51 -285c16,0 28,13 28,28 0,16 -13,28 -28,28 -16,0 -28,-13 -28,-28 0,-16 13,-28 28,-28zm1059 265c-10,12 -28,14 -40,4 -12,-10 -14,-28 -4,-40 10,-12 28,-14 40,-4 12,10 14,28 4,40zm-300 -127c-6,7 -17,9 -25,2 -7,-6 -9,-17 -2,-25 6,-7 17,-9 25,-2 7,6 9,17 2,25zm743 -228c-10,12 -28,14 -40,4 -12,-10 -14,-28 -4,-40 10,-12 28,-14 40,-4 12,10 14,28 4,40zm-310 -162c-6,7 -17,9 -25,2 -7,-6 -9,-17 -2,-25 6,-7 17,-9 25,-2 7,6 9,17 2,25zm-1770 1141c-10,12 -28,14 -40,4 -12,-10 -14,-28 -4,-40 10,-12 28,-14 40,-4 12,10 14,28 4,40zm1090 215c-6,7 -17,9 -25,2 -7,-6 -9,-17 -2,-25 6,-7 17,-9 25,-2 7,6 9,17 2,25zm-951 -13c-10,12 -28,14 -40,4 -12,-10 -14,-28 -4,-40 10,-12 28,-14 40,-4 12,10 14,28 4,40zm-228 -573c-6,7 -17,9 -25,2 -7,-6 -9,-17 -2,-25 6,-7 17,-9 25,-2 7,6 9,17 2,25zm505 190c-12,14 -32,16 -46,5 -14,-12 -16,-32 -5,-46 12,-14 32,-16 46,-5 14,12 16,32 5,46zm-318 -560c16,0 28,13 28,28 0,16 -13,28 -28,28 -16,0 -28,-13 -28,-28 0,-16 13,-28 28,-28zm2076 835c-6,7 -17,9 -25,2 -7,-6 -9,-17 -2,-25 6,-7 17,-9 25,-2 7,6 9,17 2,25zm-18 281c-7,9 -20,10 -28,3 -9,-7 -10,-20 -3,-28 7,-9 20,-10 28,-3 9,7 10,20 3,28zm-273 -1176c-6,7 -17,9 -25,2 -7,-6 -9,-17 -2,-25 6,-7 17,-9 25,-2 7,6 9,17 2,25zm-695 564c16,0 28,13 28,28 0,16 -13,28 -28,28 -16,0 -28,-13 -28,-28 0,-16 13,-28 28,-28zm-458 -62c22,0 40,18 40,40 0,22 -18,40 -40,40 -22,0 -40,-18 -40,-40 0,-22 18,-40 40,-40zm8726 193c22,0 40,18 40,40 0,22 -18,40 -40,40 -22,0 -40,-18 -40,-40 0,-22 18,-40 40,-40zm-2591 -1095c-6,7 -17,9 -25,2 -7,-6 -9,-17 -2,-25 6,-7 17,-9 25,-2 7,6 9,17 2,25zm93 352c-10,12 -28,14 -40,4 -12,-10 -14,-28 -4,-40 10,-12 28,-14 40,-4 12,10 14,28 4,40zm-302 -240c-6,7 -17,9 -25,2 -7,-6 -9,-17 -2,-25 6,-7 17,-9 25,-2 7,6 9,17 2,25zm3779 1776c-6,7 -17,9 -25,2 -7,-6 -9,-17 -2,-25 6,-7 17,-9 25,-2 7,6 9,17 2,25zm165 186c-12,14 -32,16 -46,5 -14,-12 -16,-32 -5,-46 12,-14 32,-16 46,-5 14,12 16,32 5,46zm-80 -548c16,0 28,13 28,28 0,16 -13,28 -28,28 -16,0 -28,-13 -28,-28 0,-16 13,-28 28,-28zm-7678 -834c-6,7 -17,9 -25,2 -7,-6 -9,-17 -2,-25 6,-7 17,-9 25,-2 7,6 9,17 2,25zm472 345c-12,14 -32,16 -46,5 -14,-12 -16,-32 -5,-46 12,-14 32,-16 46,-5 14,12 16,32 5,46zm-104 -661c16,0 28,13 28,28 0,16 -13,28 -28,28 -16,0 -28,-13 -28,-28 0,-16 13,-28 28,-28zm1059 265c-10,12 -28,14 -40,4 -12,-10 -14,-28 -4,-40 10,-12 28,-14 40,-4 12,10 14,28 4,40zm-300 -127c-6,7 -17,9 -25,2 -7,-6 -9,-17 -2,-25 6,-7 17,-9 25,-2 7,6 9,17 2,25zm743 -228c-10,12 -28,14 -40,4 -12,-10 -14,-28 -4,-40 10,-12 28,-14 40,-4 12,10 14,28 4,40zm-310 -162c-6,7 -17,9 -25,2 -7,-6 -9,-17 -2,-25 6,-7 17,-9 25,-2 7,6 9,17 2,25zm4027 44c16,0 28,13 28,28 0,16 -13,28 -28,28 -16,0 -28,-13 -28,-28 0,-16 13,-28 28,-28zm372 135c22,0 40,18 40,40 0,22 -18,40 -40,40 -22,0 -40,-18 -40,-40 0,-22 18,-40 40,-40zm907 671c-6,7 -17,9 -25,2 -7,-6 -9,-17 -2,-25 6,-7 17,-9 25,-2 7,6 9,17 2,25zm-46 -290c-6,7 -17,9 -25,2 -7,-6 -9,-17 -2,-25 6,-7 17,-9 25,-2 7,6 9,17 2,25zm-468 -128c16,0 28,13 28,28 0,16 -13,28 -28,28 -16,0 -28,-13 -28,-28 0,-16 13,-28 28,-28zm1643 555c-6,7 -17,9 -25,2 -7,-6 -9,-17 -2,-25 6,-7 17,-9 25,-2 7,6 9,17 2,25zm-403 -460c-12,15 -34,17 -48,5 -15,-12 -17,-34 -5,-48 12,-15 34,-17 48,-5 15,12 17,34 5,48zm173 -279c-10,12 -28,14 -40,4 -12,-10 -14,-28 -4,-40 10,-12 28,-14 40,-4 12,10 14,28 4,40zm125 375c-6,7 -17,9 -25,2 -7,-6 -9,-17 -2,-25 6,-7 17,-9 25,-2 7,6 9,17 2,25zm187 -276c-14,17 -40,20 -57,6 -17,-14 -20,-40 -6,-57 14,-17 40,-20 57,-6 17,14 20,40 6,57zm-9020 502c-10,12 -28,14 -40,4 -12,-10 -14,-28 -4,-40 10,-12 28,-14 40,-4 12,10 14,28 4,40zm2061 849c-6,7 -17,9 -25,2 -7,-6 -9,-17 -2,-25 6,-7 17,-9 25,-2 7,6 9,17 2,25zm-1189 -354c-10,12 -28,14 -40,4 -12,-10 -14,-28 -4,-40 10,-12 28,-14 40,-4 12,10 14,28 4,40zm-228 -573c-6,7 -17,9 -25,2 -7,-6 -9,-17 -2,-25 6,-7 17,-9 25,-2 7,6 9,17 2,25zm317 -31c-12,14 -32,16 -46,5 -14,-12 -16,-32 -5,-46 12,-14 32,-16 46,-5 14,12 16,32 5,46zm-130 -339c16,0 28,13 28,28 0,16 -13,28 -28,28 -16,0 -28,-13 -28,-28 0,-16 13,-28 28,-28zm4301 780c-10,12 -28,14 -40,4 -12,-10 -14,-28 -4,-40 10,-12 28,-14 40,-4 12,10 14,28 4,40zm-625 -1222c-6,7 -17,9 -25,2 -7,-6 -9,-17 -2,-25 6,-7 17,-9 25,-2 7,6 9,17 2,25zm-251 1213c12,0 22,10 22,22 0,12 -10,22 -22,22 -12,0 -22,-10 -22,-22 0,-12 10,-22 22,-22zm48 -294c-10,12 -28,14 -40,4 -12,-10 -14,-28 -4,-40 10,-12 28,-14 40,-4 12,10 14,28 4,40zm-261 120c-6,7 -17,9 -25,2 -7,-6 -9,-17 -2,-25 6,-7 17,-9 25,-2 7,6 9,17 2,25zm85 -326c-10,12 -28,14 -40,4 -12,-10 -14,-28 -4,-40 10,-12 28,-14 40,-4 12,10 14,28 4,40zm-596 -773c-6,7 -17,9 -25,2 -7,-6 -9,-17 -2,-25 6,-7 17,-9 25,-2 7,6 9,17 2,25zm89 232c16,0 28,13 28,28 0,16 -13,28 -28,28 -16,0 -28,-13 -28,-28 0,-16 13,-28 28,-28zm-121 244c22,0 40,18 40,40 0,22 -18,40 -40,40 -22,0 -40,-18 -40,-40 0,-22 18,-40 40,-40zm-331 742c-10,12 -28,14 -40,4 -12,-10 -14,-28 -4,-40 10,-12 28,-14 40,-4 12,10 14,28 4,40zm-261 120c-6,7 -17,9 -25,2 -7,-6 -9,-17 -2,-25 6,-7 17,-9 25,-2 7,6 9,17 2,25zm-18 281c-7,9 -20,10 -28,3 -9,-7 -10,-20 -3,-28 7,-9 20,-10 28,-3 9,7 10,20 3,28zm103 -607c-10,12 -28,14 -40,4 -12,-10 -14,-28 -4,-40 10,-12 28,-14 40,-4 12,10 14,28 4,40zm-376 -569c-6,7 -17,9 -25,2 -7,-6 -9,-17 -2,-25 6,-7 17,-9 25,-2 7,6 9,17 2,25zm1025 710c-12,14 -32,16 -46,5 -14,-12 -16,-32 -5,-46 12,-14 32,-16 46,-5 14,12 16,32 5,46zm-1720 -146c16,0 28,13 28,28 0,16 -13,28 -28,28 -16,0 -28,-13 -28,-28 0,-16 13,-28 28,-28zm-121 244c22,0 40,18 40,40 0,22 -18,40 -40,40 -22,0 -40,-18 -40,-40 0,-22 18,-40 40,-40zm2082 235c-10,12 -28,14 -40,4 -12,-10 -14,-28 -4,-40 10,-12 28,-14 40,-4 12,10 14,28 4,40zm1302 -735c-14,17 -40,20 -57,6 -17,-14 -20,-40 -6,-57 14,-17 40,-20 57,-6 17,14 20,40 6,57zm763 -411c-14,17 -40,20 -57,6 -17,-14 -20,-40 -6,-57 14,-17 40,-20 57,-6 17,14 20,40 6,57zm-1180 35c22,0 40,18 40,40 0,22 -18,40 -40,40 -22,0 -40,-18 -40,-40 0,-22 18,-40 40,-40zm2634 1052c16,0 28,13 28,28 0,16 -13,28 -28,28 -16,0 -28,-13 -28,-28 0,-16 13,-28 28,-28zm-11193 -1669c-6,7 -17,9 -25,2 -7,-6 -9,-17 -2,-25 6,-7 17,-9 25,-2 7,6 9,17 2,25zm165 186c-12,14 -32,16 -46,5 -14,-12 -16,-32 -5,-46 12,-14 32,-16 47,-5 14,12 16,32 5,46zm-4856 -203c-10,12 -28,14 -40,4 -12,-10 -14,-28 -4,-40 10,-12 28,-14 40,-4 12,10 14,28 4,40zm-290 34c-6,7 -17,9 -25,2 -7,-6 -9,-17 -2,-25 6,-7 17,-9 25,-2 7,6 9,17 2,25zm1045 -154c-12,15 -34,17 -48,5 -15,-12 -17,-34 -5,-48 12,-15 34,-17 48,-5 15,12 17,34 5,48zm-950 -47c-6,7 -17,9 -25,2 -7,-6 -9,-17 -2,-25 6,-7 17,-9 25,-2 7,6 9,17 2,25zm2558 69c-10,12 -28,14 -40,4 -12,-10 -14,-28 -4,-40 10,-12 28,-14 40,-4 12,10 14,28 4,40zm-167 410c-6,7 -17,9 -25,2 -7,-6 -9,-17 -2,-25 6,-7 17,-9 25,-2 7,6 9,17 2,25zm-263 -166c-14,17 -40,20 -57,6 -17,-14 -20,-40 -6,-57 14,-17 40,-20 57,-6 17,14 20,40 6,57zm-919 -230c-6,7 -17,9 -25,2 -7,-6 -9,-17 -2,-25 6,-7 17,-9 25,-2 7,6 9,17 2,25zm557 -111c16,0 28,13 28,28 0,16 -13,28 -28,28 -16,0 -28,-13 -28,-28 0,-16 13,-28 28,-28zm1644 106c31,0 57,25 57,57 0,31 -25,57 -57,57 -31,0 -57,-25 -57,-57 0,-31 25,-57 57,-57zm-3207 -1473c-6,7 -17,9 -25,2 -7,-6 -9,-17 -2,-25 6,-7 17,-9 25,-2 7,6 9,17 2,25zm317 -31c-12,14 -32,16 -46,5 -14,-12 -16,-32 -5,-47 12,-14 32,-16 46,-5 14,12 16,32 5,46zm51 -285c16,0 28,13 28,28 0,16 -13,28 -28,28 -16,0 -28,-13 -28,-28 0,-16 13,-28 28,-28zm1059 265c-10,12 -28,14 -40,4 -12,-10 -14,-28 -4,-40 10,-12 28,-14 40,-4 12,10 14,28 4,40zm-300 -127c-6,7 -17,9 -25,2 -7,-6 -9,-17 -2,-25 6,-7 17,-9 25,-2 7,6 9,17 2,25zm743 -228c-10,12 -28,14 -40,4 -12,-10 -14,-28 -4,-40 10,-12 28,-14 40,-4 12,10 14,28 4,40zm-310 -162c-6,7 -17,9 -25,2 -7,-6 -9,-17 -2,-25 6,-7 17,-9 25,-2 7,6 9,17 2,25zm-1770 1141c-10,12 -28,14 -40,4 -12,-10 -14,-28 -4,-40 10,-12 28,-14 40,-4 12,10 14,28 4,40zm1090 215c-6,7 -17,9 -25,2 -7,-6 -9,-17 -2,-25 6,-7 17,-9 25,-2 7,6 9,17 2,25zm-951 -13c-10,12 -28,14 -40,4 -12,-10 -14,-28 -4,-40 10,-12 28,-14 40,-4 12,10 14,28 4,40zm-228 -573c-6,7 -17,9 -25,2 -7,-6 -9,-17 -2,-25 6,-7 17,-9 25,-2 7,6 9,17 2,25zm505 190c-12,14 -32,16 -46,5 -14,-12 -16,-32 -5,-46 12,-14 32,-16 46,-5 14,12 16,32 5,46zm-318 -560c16,0 28,13 28,28 0,16 -13,28 -28,28 -16,0 -28,-13 -28,-28 0,-16 13,-28 28,-28zm2076 835c-6,7 -17,9 -25,2 -7,-6 -9,-17 -2,-25 6,-7 17,-9 25,-2 7,6 9,17 2,25zm-18 281c-7,9 -20,10 -28,3 -9,-7 -10,-20 -3,-28 7,-9 20,-10 28,-3 9,7 10,20 3,28zm-273 -1176c-6,7 -17,9 -25,2 -7,-6 -9,-17 -2,-25 6,-7 17,-9 25,-2 7,6 9,17 2,25zm-695 564c16,0 28,13 28,28 0,16 -13,28 -28,28 -16,0 -28,-13 -28,-28 0,-16 13,-28 28,-28zm-458 -62c22,0 40,18 40,40 0,22 -18,40 -40,40 -22,0 -40,-18 -40,-40 0,-22 18,-40 40,-40zm2111 -211c-6,7 -17,9 -25,2 -7,-6 -9,-17 -2,-25 6,-7 17,-9 25,-2 7,6 9,17 2,25zm472 345c-12,14 -32,16 -46,5 -14,-12 -16,-32 -5,-46 12,-14 32,-16 46,-5 14,12 16,32 5,46zm-104 -661c16,0 28,13 28,28 0,16 -13,28 -28,28 -16,0 -28,-13 -28,-28 0,-16 13,-28 28,-28zm1059 265c-10,12 -28,14 -40,4 -12,-10 -14,-28 -4,-40 10,-12 28,-14 40,-4 12,10 14,28 4,40zm-300 -127c-6,7 -17,9 -25,2 -7,-6 -9,-17 -2,-25 6,-7 17,-9 25,-2 7,6 9,17 2,25zm743 -228c-10,12 -28,14 -40,4 -12,-10 -14,-28 -4,-40 10,-12 28,-14 40,-4 12,10 14,28 4,40zm-310 -162c-6,7 -17,9 -25,2 -7,-6 -9,-17 -2,-25 6,-7 17,-9 25,-2 7,6 9,17 2,25zm-2504 848c-10,12 -28,14 -40,4 -12,-10 -14,-28 -4,-40 10,-12 28,-14 40,-4 12,10 14,28 4,40zm2061 849c-6,7 -17,9 -25,2 -7,-6 -9,-17 -2,-25 6,-7 17,-9 25,-2 7,6 9,17 2,25zm-1189 -354c-10,12 -28,14 -40,4 -12,-10 -14,-28 -4,-40 10,-12 28,-14 40,-4 12,10 14,28 4,40zm-228 -573c-6,7 -17,9 -25,2 -7,-6 -9,-17 -2,-25 6,-7 17,-9 25,-2 7,6 9,17 2,25zm317 -31c-12,14 -32,16 -46,5 -14,-12 -16,-32 -5,-47 12,-14 32,-16 46,-5 14,12 16,32 5,46zm-130 -339c16,0 28,13 28,28 0,16 -13,28 -28,28 -16,0 -28,-13 -28,-28 0,-16 13,-28 28,-28zm3014 1694c-10,12 -28,14 -40,4 -12,-10 -14,-28 -4,-40 10,-12 28,-14 40,-4 12,10 14,28 4,40zm-290 34c-6,7 -17,9 -25,2 -7,-6 -9,-17 -2,-25 6,-7 17,-9 25,-2 7,6 9,17 2,25zm94 -201c-6,7 -17,9 -25,2 -7,-6 -9,-17 -2,-25 6,-7 17,-9 25,-2 7,6 9,17 2,25zm606 -756c12,0 22,10 22,22 0,12 -10,22 -22,22 -12,0 -22,-10 -22,-22 0,-12 10,-22 22,-22zm48 -294c-10,12 -28,14 -40,4 -12,-10 -14,-28 -4,-40 10,-12 28,-14 40,-4 12,10 14,28 4,40zm-261 120c-6,7 -17,9 -25,2 -7,-6 -9,-17 -2,-25 6,-7 17,-9 25,-2 7,6 9,17 2,25zm85 -326c-10,12 -28,14 -40,4 -12,-10 -14,-28 -4,-40 10,-12 28,-14 40,-4 12,10 14,28 4,40zm-596 -773c-6,7 -17,9 -25,2 -7,-6 -9,-17 -2,-25 6,-7 17,-9 25,-2 7,6 9,17 2,25zm89 232c16,0 28,13 28,28 0,16 -13,28 -28,28 -16,0 -28,-13 -28,-28 0,-16 13,-28 28,-28zm-121 244c22,0 40,18 40,40 0,22 -18,40 -40,40 -22,0 -40,-18 -40,-40 0,-22 18,-40 40,-40zm-331 742c-10,12 -28,14 -40,4 -12,-10 -14,-28 -4,-40 10,-12 28,-14 40,-4 12,10 14,28 4,40zm-261 120c-6,7 -17,9 -25,2 -7,-6 -9,-17 -2,-25 6,-7 17,-9 25,-2 7,6 9,17 2,25zm-18 281c-7,9 -20,10 -28,3 -9,-7 -10,-20 -3,-28 7,-9 20,-10 28,-3 9,7 10,20 3,28zm103 -607c-10,12 -28,14 -40,4 -12,-10 -14,-28 -4,-40 10,-12 28,-14 40,-4 12,10 14,28 4,40zm-376 -569c-6,7 -17,9 -25,2 -7,-6 -9,-17 -2,-25 6,-7 17,-9 25,-2 7,6 9,17 2,25zm1025 710c-12,14 -32,16 -46,5 -14,-12 -16,-32 -5,-46 12,-14 32,-16 46,-5 14,12 16,32 5,46zm-1720 -146c16,0 28,13 28,28 0,16 -13,28 -28,28 -16,0 -28,-13 -28,-28 0,-16 13,-28 28,-28zm-121 244c22,0 40,18 40,40 0,22 -18,40 -40,40 -22,0 -40,-18 -40,-40 0,-22 18,-40 40,-40zm2082 235c-10,12 -28,14 -40,4 -12,-10 -14,-28 -4,-40 10,-12 28,-14 40,-4 12,10 14,28 4,40zm5845 811c-6,7 -17,9 -25,2 -7,-6 -9,-17 -2,-25 6,-7 17,-9 25,-2 7,6 9,17 2,25zm165 186c-12,14 -32,16 -46,5 -14,-12 -16,-32 -5,-47 12,-14 32,-16 46,-5 14,12 16,32 5,46zm-4856 -203c-10,12 -28,14 -40,4 -12,-10 -14,-28 -4,-40 10,-12 28,-14 40,-4 12,10 14,28 4,40zm-290 34c-6,7 -17,9 -25,2 -7,-6 -9,-17 -2,-25 6,-7 17,-9 25,-2 7,6 9,17 2,25zm1045 -154c-12,15 -34,17 -48,5 -15,-12 -17,-34 -5,-48 12,-15 34,-17 48,-5 15,12 17,34 5,48zm-950 -47c-6,7 -17,9 -25,2 -7,-6 -9,-17 -2,-25 6,-7 17,-9 25,-2 7,6 9,17 2,25zm2558 69c-10,12 -28,14 -40,4 -12,-10 -14,-28 -4,-40 10,-12 28,-14 40,-4 12,10 14,28 4,40zm-167 410c-6,7 -17,9 -25,2 -7,-6 -9,-17 -2,-25 6,-7 17,-9 25,-2 7,6 9,17 2,25zm-263 -166c-14,17 -40,20 -57,6 -17,-14 -20,-40 -6,-57 14,-17 40,-20 57,-6 17,14 20,40 6,57zm-919 -230c-6,7 -17,9 -25,2 -7,-6 -9,-17 -2,-25 6,-7 17,-9 25,-2 7,6 9,17 2,25zm557 -111c16,0 28,13 28,28 0,16 -13,28 -28,28 -16,0 -28,-13 -28,-28 0,-16 13,-28 28,-28zm1644 106c31,0 57,25 57,57 0,31 -25,57 -57,57 -31,0 -57,-25 -57,-57 0,-31 25,-57 57,-57zm-3207 -1473c-6,7 -17,9 -25,2 -7,-6 -9,-17 -2,-25 6,-7 17,-9 25,-2 7,6 9,17 2,25zm317 -31c-12,14 -32,16 -46,5 -14,-12 -16,-32 -5,-46 12,-14 32,-16 46,-5 14,12 16,32 5,46zm51 -285c16,0 28,13 28,28 0,16 -13,28 -28,28 -16,0 -28,-13 -28,-28 0,-16 13,-28 28,-28zm1059 265c-10,12 -28,14 -40,4 -12,-10 -14,-28 -4,-40 10,-12 28,-14 40,-4 12,10 14,28 4,40zm-300 -127c-6,7 -17,9 -25,2 -7,-6 -9,-17 -2,-25 6,-7 17,-9 25,-2 7,6 9,17 2,25zm743 -228c-10,12 -28,14 -40,4 -12,-10 -14,-28 -4,-40 10,-12 28,-14 40,-4 12,10 14,28 4,40zm-310 -162c-6,7 -17,9 -25,2 -7,-6 -9,-17 -2,-25 6,-7 17,-9 25,-2 7,6 9,17 2,25zm-1770 1141c-10,12 -28,14 -40,4 -12,-10 -14,-28 -4,-40 10,-12 28,-14 40,-4 12,10 14,28 4,40zm1090 215c-6,7 -17,9 -25,2 -7,-6 -9,-17 -2,-25 6,-7 17,-9 25,-2 7,6 9,17 2,25zm-951 -13c-10,12 -28,14 -40,4 -12,-10 -14,-28 -4,-40 10,-12 28,-14 40,-4 12,10 14,28 4,40zm-228 -573c-6,7 -17,9 -25,2 -7,-6 -9,-17 -2,-25 6,-7 17,-9 25,-2 7,6 9,17 2,25zm505 190c-12,14 -32,16 -46,5 -14,-12 -16,-32 -5,-46 12,-14 32,-16 46,-5 14,12 16,32 5,46zm-318 -560c16,0 28,13 28,28 0,16 -13,28 -28,28 -16,0 -28,-13 -28,-28 0,-16 13,-28 28,-28zm2076 835c-6,7 -17,9 -25,2 -7,-6 -9,-17 -2,-25 6,-7 17,-9 25,-2 7,6 9,17 2,25zm-18 281c-7,9 -20,10 -28,3 -9,-7 -10,-20 -3,-28 7,-9 20,-10 28,-3 9,7 10,20 3,28zm-273 -1176c-6,7 -17,9 -25,2 -7,-6 -9,-17 -2,-25 6,-7 17,-9 25,-2 7,6 9,17 2,25zm-695 564c16,0 28,13 28,28 0,16 -13,28 -28,28 -16,0 -28,-13 -28,-28 0,-16 13,-28 28,-28zm-458 -62c22,0 40,18 40,40 0,22 -18,40 -40,40 -22,0 -40,-18 -40,-40 0,-22 18,-40 40,-40zm8048 446c-10,12 -28,14 -40,4 -12,-10 -14,-28 -4,-40 10,-12 28,-14 40,-4 12,10 14,28 4,40zm-290 34c-6,7 -17,9 -25,2 -7,-6 -9,-17 -2,-25 6,-7 17,-9 25,-2 7,6 9,17 2,25zm94 -201c-6,7 -17,9 -25,2 -7,-6 -9,-17 -2,-25 6,-7 17,-9 25,-2 7,6 9,17 2,25zm873 -85c22,0 40,18 40,40 0,22 -18,40 -40,40 -22,0 -40,-18 -40,-40 0,-22 18,-40 40,-40zm-2591 -1095c-6,7 -17,9 -25,2 -7,-6 -9,-17 -2,-25 6,-7 17,-9 25,-2 7,6 9,17 2,25zm93 352c-10,12 -28,14 -40,4 -12,-10 -14,-28 -4,-40 10,-12 28,-14 40,-4 12,10 14,28 4,40zm-302 -240c-6,7 -17,9 -25,2 -7,-6 -9,-17 -2,-25 6,-7 17,-9 25,-2 7,6 9,17 2,25zm3779 1776c-6,7 -17,9 -25,2 -7,-6 -9,-17 -2,-25 6,-7 17,-9 25,-2 7,6 9,17 2,25zm165 186c-12,14 -32,16 -46,5 -14,-12 -16,-32 -5,-46 12,-14 32,-16 46,-5 14,12 16,32 5,46zm-80 -548c16,0 28,13 28,28 0,16 -13,28 -28,28 -16,0 -28,-13 -28,-28 0,-16 13,-28 28,-28zm-7678 -834c-6,7 -17,9 -25,2 -7,-6 -9,-17 -2,-25 6,-7 17,-9 25,-2 7,6 9,17 2,25zm472 345c-12,14 -32,16 -46,5 -14,-12 -16,-32 -5,-46 12,-14 32,-16 46,-5 14,12 16,32 5,46zm-104 -661c16,0 28,13 28,28 0,16 -13,28 -28,28 -16,0 -28,-13 -28,-28 0,-16 13,-28 28,-28zm1059 265c-10,12 -28,14 -40,4 -12,-10 -14,-28 -4,-40 10,-12 28,-14 40,-4 12,10 14,28 4,40zm-300 -127c-6,7 -17,9 -25,2 -7,-6 -9,-17 -2,-25 6,-7 17,-9 25,-2 7,6 9,17 2,25zm743 -228c-10,12 -28,14 -40,4 -12,-10 -14,-28 -4,-40 10,-12 28,-14 40,-4 12,10 14,28 4,40zm-310 -162c-6,7 -17,9 -25,2 -7,-6 -9,-17 -2,-25 6,-7 17,-9 25,-2 7,6 9,17 2,25zm4027 44c16,0 28,13 28,28 0,16 -13,28 -28,28 -16,0 -28,-13 -28,-28 0,-16 13,-28 28,-28zm372 135c22,0 40,18 40,40 0,22 -18,40 -40,40 -22,0 -40,-18 -40,-40 0,-22 18,-40 40,-40zm907 671c-6,7 -17,9 -25,2 -7,-6 -9,-17 -2,-25 6,-7 17,-9 25,-2 7,6 9,17 2,25zm-46 -290c-6,7 -17,9 -25,2 -7,-6 -9,-17 -2,-25 6,-7 17,-9 25,-2 7,6 9,17 2,25zm-468 -128c16,0 28,13 28,28 0,16 -13,28 -28,28 -16,0 -28,-13 -28,-28 0,-16 13,-28 28,-28zm-69 -841c22,0 40,18 40,40 0,22 -18,40 -40,40 -22,0 -40,-18 -40,-40 0,-22 18,-40 40,-40zm1712 1396c-6,7 -17,9 -25,2 -7,-6 -9,-17 -2,-25 6,-7 17,-9 25,-2 7,6 9,17 2,25zm-403 -460c-12,15 -34,17 -48,5 -15,-12 -17,-34 -5,-48 12,-15 34,-17 48,-5 15,12 17,34 5,48zm173 -279c-10,12 -28,14 -40,4 -12,-10 -14,-28 -4,-40 10,-12 28,-14 40,-4 12,10 14,28 4,40zm125 375c-6,7 -17,9 -25,2 -7,-6 -9,-17 -2,-25 6,-7 17,-9 25,-2 7,6 9,17 2,25zm187 -276c-14,17 -40,20 -57,6 -17,-14 -20,-40 -6,-57 14,-17 40,-20 57,-6 17,14 20,40 6,57zm-9020 502c-10,12 -28,14 -40,4 -12,-10 -14,-28 -4,-40 10,-12 28,-14 40,-4 12,10 14,28 4,40zm2061 849c-6,7 -17,9 -25,2 -7,-6 -9,-17 -2,-25 6,-7 17,-9 25,-2 7,6 9,17 2,25zm-1189 -354c-10,12 -28,14 -40,4 -12,-10 -14,-28 -4,-40 10,-12 28,-14 40,-4 12,10 14,28 4,40zm-228 -573c-6,7 -17,9 -25,2 -7,-6 -9,-17 -2,-25 6,-7 17,-9 25,-2 7,6 9,17 2,25zm317 -31c-12,14 -32,16 -46,5 -14,-12 -16,-32 -5,-46 12,-14 32,-16 46,-5 14,12 16,32 5,46zm-130 -339c16,0 28,13 28,28 0,16 -13,28 -28,28 -16,0 -28,-13 -28,-28 0,-16 13,-28 28,-28zm4301 780c-10,12 -28,14 -40,4 -12,-10 -14,-28 -4,-40 10,-12 28,-14 40,-4 12,10 14,28 4,40zm-625 -1222c-6,7 -17,9 -25,2 -7,-6 -9,-17 -2,-25 6,-7 17,-9 25,-2 7,6 9,17 2,25zm-662 2136c-10,12 -28,14 -40,4 -12,-10 -14,-28 -4,-40 10,-12 28,-14 40,-4 12,10 14,28 4,40zm-290 34c-6,7 -17,9 -25,2 -7,-6 -9,-17 -2,-25 6,-7 17,-9 25,-2 7,6 9,17 2,25zm1045 -501c-12,15 -34,17 -48,5 -15,-12 -17,-34 -5,-48 12,-15 34,-17 48,-5 15,12 17,34 5,48zm-950 300c-6,7 -17,9 -25,2 -7,-6 -9,-17 -2,-25 6,-7 17,-9 25,-2 7,6 9,17 2,25zm606 -756c12,0 22,10 22,22 0,12 -10,22 -22,22 -12,0 -22,-10 -22,-22 0,-12 10,-22 22,-22zm48 -294c-10,12 -28,14 -40,4 -12,-10 -14,-28 -4,-40 10,-12 28,-14 40,-4 12,10 14,28 4,40zm-261 120c-6,7 -17,9 -25,2 -7,-6 -9,-17 -2,-25 6,-7 17,-9 25,-2 7,6 9,17 2,25zm85 -326c-10,12 -28,14 -40,4 -12,-10 -14,-28 -4,-40 10,-12 28,-14 40,-4 12,10 14,28 4,40zm-596 -773c-6,7 -17,9 -25,2 -7,-6 -9,-17 -2,-25 6,-7 17,-9 25,-2 7,6 9,17 2,25zm89 232c16,0 28,13 28,28 0,16 -13,28 -28,28 -16,0 -28,-13 -28,-28 0,-16 13,-28 28,-28zm-121 244c22,0 40,18 40,40 0,22 -18,40 -40,40 -22,0 -40,-18 -40,-40 0,-22 18,-40 40,-40zm-331 742c-10,12 -28,14 -40,4 -12,-10 -14,-28 -4,-40 10,-12 28,-14 40,-4 12,10 14,28 4,40zm-261 120c-6,7 -17,9 -25,2 -7,-6 -9,-17 -2,-25 6,-7 17,-9 25,-2 7,6 9,17 2,25zm-18 281c-7,9 -20,10 -28,3 -9,-7 -10,-20 -3,-28 7,-9 20,-10 28,-3 9,7 10,20 3,28zm103 -607c-10,12 -28,14 -40,4 -12,-10 -14,-28 -4,-40 10,-12 28,-14 40,-4 12,10 14,28 4,40zm-376 -569c-6,7 -17,9 -25,2 -7,-6 -9,-17 -2,-25 6,-7 17,-9 25,-2 7,6 9,17 2,25zm1025 710c-12,14 -32,16 -46,5 -14,-12 -16,-32 -5,-46 12,-14 32,-16 46,-5 14,12 16,32 5,46zm-1720 -146c16,0 28,13 28,28 0,16 -13,28 -28,28 -16,0 -28,-13 -28,-28 0,-16 13,-28 28,-28zm-121 244c22,0 40,18 40,40 0,22 -18,40 -40,40 -22,0 -40,-18 -40,-40 0,-22 18,-40 40,-40zm4407 501c-10,12 -28,14 -40,4 -12,-10 -14,-28 -4,-40 10,-12 28,-14 40,-4 12,10 14,28 4,40zm-167 410c-6,7 -17,9 -25,2 -7,-6 -9,-17 -2,-25 6,-7 17,-9 25,-2 7,6 9,17 2,25zm-263 -166c-14,17 -40,20 -57,6 -17,-14 -20,-40 -6,-57 14,-17 40,-20 57,-6 17,14 20,40 6,57zm-1896 -510c-10,12 -28,14 -40,4 -12,-10 -14,-28 -4,-40 10,-12 28,-14 40,-4 12,10 14,28 4,40zm977 280c-6,7 -17,9 -25,2 -7,-6 -9,-17 -2,-25 6,-7 17,-9 25,-2 7,6 9,17 2,25zm325 -1014c-14,17 -40,20 -57,6 -17,-14 -20,-40 -6,-57 14,-17 40,-20 57,-6 17,14 20,40 6,57zm961 109c-10,12 -28,14 -40,4 -12,-10 -14,-28 -4,-40 10,-12 28,-14 40,-4 12,10 14,28 4,40zm-84 185c-6,7 -17,9 -25,2 -7,-6 -9,-17 -2,-25 6,-7 17,-9 25,-2 7,6 9,17 2,25zm-115 -704c-14,17 -40,20 -57,6 -17,-14 -20,-40 -6,-57 14,-17 40,-20 57,-6 17,14 20,40 6,57zm-530 1314c16,0 28,13 28,28 0,16 -13,28 -28,28 -16,0 -28,-13 -28,-28 0,-16 13,-28 28,-28zm364 -109c31,0 57,25 57,57 0,31 -25,57 -57,57 -31,0 -57,-25 -57,-57 0,-31 25,-57 57,-57zm-1014 -1169c22,0 40,18 40,40 0,22 -18,40 -40,40 -22,0 -40,-18 -40,-40 0,-22 18,-40 40,-40zm2634 1052c16,0 28,13 28,28 0,16 -13,28 -28,28 -16,0 -28,-13 -28,-28 0,-16 13,-28 28,-28z"/>
  <path id="moon" class="fil1" d="M2198 1854c-48,61 -123,101 -206,101 -145,0 -262,-117 -262,-262 0,-106 63,-198 154,-239 -35,44 -56,101 -56,161 0,145 117,262 262,262 38,0 75,-8 108,-23z"/>
 </g>
 <g id="mountains">
  <metadata id="CorelCorpID_1Corel-Layer"/>
  <g id="mountain_x0020_group">
   <polygon class="fil2" points="15316,5461 16488,7089 17660,8717 15873,8717 15316,8717 13529,8717 12971,8717 11185,8717 12357,7440 13529,6164 14247,6945 "/>
   <path class="fil3" d="M13529 6164l565 615c-234,40 -402,-211 -426,-267 -23,-54 -171,333 -227,249 -243,-361 -50,14 -437,-26l525 -572zm1786 -703l699 971c-360,0 -282,-79 -576,-269 -109,-70 -164,339 -285,317 -39,-7 -42,-179 -52,-231 -62,-333 -242,110 -455,140l669 -929z"/>
  </g>
 </g>
 <g id="water">
  <metadata id="CorelCorpID_2Corel-Layer"/>
  <rect class="fil4" y="8689" width="3912" height="94"/>
 </g>
 <g id="background_x0020_-_x0020_buildings">
  <metadata id="CorelCorpID_3Corel-Layer"/>
  <path id="skyline_x0020_shadows" class="fil5" d="M10917 7652l71 0 214 -161 0 0 214 161 71 0 0 53 0 1072 -312 0 -257 0 -149 0 -330 0 -144 0 -309 0 -116 0 -448 0 -5 0 -564 0 -67 0 -382 0 -109 0 -382 0 -135 0 -319 0 -289 0 0 -1450 -43 0 0 -52c0,-21 17,-39 39,-39l5 0 58 0 0 -28c0,-21 17,-39 39,-39l58 0 0 -10c0,-21 17,-39 39,-39l99 0 12 -273 0 0 12 273 99 0c21,0 39,17 39,39l0 10 58 0c21,0 39,17 39,39l0 28 58 0 4 0c21,0 39,17 39,39l0 52 -43 0 0 1248 135 0 0 -845 382 0 0 845 109 0 0 -1108 382 0 0 1108 67 0 0 -858c0,-43 35,-78 78,-78l414 0c43,0 78,35 78,78l0 190c11,-29 39,-49 72,-49l414 0c43,0 78,35 78,78l0 110 309 0 0 -646 87 0 179 -153 88 0 0 153 121 0 0 1176 149 0 0 -869 0 -53zm3792 645l91 0 0 -451 -9 -79 86 -98 252 -34 0 132 9 0 0 79 -9 0c0,278 0,556 0,834l-207 0 0 46 -212 -47 0 1 -328 0 0 -620 -9 -59 92 0 246 -98 0 98 9 0 0 59 -9 0 0 238zm-1751 -945l0 -163 18 0 0 163 77 0 0 472 35 0c23,-40 71,-68 126,-68 55,0 103,28 126,68l105 0 0 856 -392 0 -16 0 -392 0 0 -1327 313 0zm1181 1327l-408 0 0 -884 109 -139 298 0 0 1023zm-1574 -1151l-313 0 -31 -81 -49 0 -62 81 -57 0 0 1159 512 0 0 -1159zm-686 372l-212 0 0 -27 -21 0 0 -27 -33 0 0 27 -42 0 0 27 -39 0 0 787 348 0 0 -787z"/>
 </g>
 <g id="foreground">
  <metadata id="CorelCorpID_4Corel-Layer"/>
  <path id="skyline_x0020_MAIN" class="fil6" d="M7531 6861l469 290 0 808 322 0 0 -29 33 0 0 -29 52 0 0 29 66 0 0 29 61 0 0 679 139 0 0 -1013 -20 0 0 -51 20 0 0 -12 110 0 79 -103 17 -272 0 0 17 272 79 104 110 0 0 12 20 0 0 51 -20 0 0 1013 150 0 0 -866 36 0 0 -64c0,-21 17,-39 39,-39l40 0 0 -70 19 0 0 -12c0,-4 9,-7 20,-7l166 0c11,0 20,3 20,7l0 12 19 0 0 70 40 0c21,0 39,17 39,39l0 64 36 0 0 866 104 0 0 -454 -37 0 0 -44 37 0 0 -14 52 0 0 -36 140 0 0 36 191 0 0 -97 228 0 0 97 43 0 0 14 37 0 0 44 -37 0 0 454 198 0 0 -873c0,-21 17,-39 39,-39l332 0c21,0 39,17 39,39l0 873 247 0 0 -411 0 -221 95 0 23 -55 62 0 15 -155 0 0 0 155 42 0 0 55 0 221 0 411 13 9 17 -9 180 0 0 -1189 141 0 0 -183 161 0 0 576 152 0 0 796 80 0 0 -1416 36 0 0 -91c0,-9 83,-182 118,-182l166 0c35,0 118,173 118,182l0 91 36 0 0 1416 211 0 0 -612 -62 0 0 -48 62 0 0 -15 85 0 0 -39 231 0 0 39 577 0 0 -104 112 0 0 104 60 0 0 -292 0 0 0 -95 -11 0 0 -105 11 0 0 -70 290 40 16 30 114 0 0 105 -11 0 0 1061 507 0 0 -1121 196 0 212 455 0 667 435 0 0 -148c-8,7 -19,11 -32,11 -23,0 -41,-14 -46,-33 -22,-1 -39,-17 -39,-37 0,-20 18,-36 40,-37 -6,-6 -9,-14 -9,-23 0,-21 19,-37 42,-37 8,0 15,2 21,5 9,-21 22,-34 37,-34 15,0 29,13 38,34 6,-4 14,-6 22,-6 23,0 42,17 42,37 0,9 -3,17 -9,23 22,1 40,17 40,37 0,20 -17,36 -39,37 -4,19 -23,33 -46,33 -13,0 -24,-5 -33,-12 -1,1 -2,1 -2,2l0 148 1100 0 0 -148c-8,7 -19,11 -32,11 -23,0 -41,-14 -46,-33 -22,-1 -39,-17 -39,-37 0,-20 18,-36 40,-37 -6,-6 -9,-14 -9,-23 0,-21 19,-37 42,-37 8,0 15,2 21,5 9,-21 22,-34 37,-34 15,0 29,13 38,34 6,-4 14,-6 22,-6 23,0 42,17 42,37 0,9 -3,17 -9,23 22,1 40,17 40,37 0,20 -17,36 -39,37 -4,19 -23,33 -46,33 -13,0 -24,-5 -33,-12 -1,1 -2,1 -2,2l0 148 1038 0 0 145 0 0 -6248 0 0 0 -434 0 -3865 0 -596 0 -3112 0 0 0 147 -144 0 -234 -3227 0 0 240 142 138 0 0 -809 0 0 -131 0 -14 0 -113 448 -190 0 -455 44 -79 129 0 47 79 0 127c344,-390 941,-647 1619,-647 671,0 1262,252 1608,635l0 -115 44 -79 129 0 46 79 0 483 643 273 135 0 0 -148c-8,7 -19,11 -32,11 -23,0 -41,-14 -46,-33 -22,-1 -39,-17 -39,-37 0,-20 18,-36 40,-37 -6,-6 -9,-14 -9,-23 0,-21 19,-37 42,-37 8,0 15,2 21,5 9,-21 22,-34 37,-34 15,0 29,13 38,34 6,-4 14,-6 22,-6 23,0 42,17 42,37 0,9 -3,17 -9,23 22,1 40,17 40,37 0,20 -17,36 -39,37 -4,19 -23,33 -46,33 -13,0 -24,-5 -33,-12 -1,1 -2,1 -2,2l0 148 1123 0 0 -148c-8,7 -19,11 -32,11 -23,0 -41,-14 -46,-33 -22,-1 -39,-17 -39,-37 0,-20 18,-36 40,-37 -6,-6 -9,-14 -9,-23 0,-21 19,-37 42,-37 8,0 15,2 21,5 9,-21 22,-34 37,-34 15,0 29,13 38,34 6,-4 14,-6 22,-6 8,0 15,2 21,5l0 0c6,-3 13,-5 21,-5 8,0 15,2 21,5 9,-21 22,-34 37,-34 15,0 29,13 38,34 6,-4 14,-6 22,-6 23,0 42,17 42,37 0,9 -3,17 -9,23 22,1 40,17 40,37 0,20 -17,36 -39,37 -4,19 -23,33 -46,33 -13,0 -24,-5 -33,-12 -1,1 -2,1 -2,2l0 148 824 0 0 -809 -34 0 0 -19 34 0 0 -26 -34 0 0 -19 34 0 0 -25 -34 0 0 -19 34 0 0 -46 343 0 0 46 34 0 0 19 -34 0 0 25 34 0 0 19 -34 0 0 26 34 0 0 19 -34 0 0 809 134 0 0 -1777zm-1461 1777l133 0 0 -148c-8,7 -19,11 -32,11 -13,0 -25,-5 -33,-12 -8,7 -20,12 -33,12 -13,0 -24,-5 -33,-12 -1,1 -2,1 -2,2l0 148zm-3771 -1167l0 280 16 0 263 -263c-91,-11 -184,-16 -279,-17zm-32 280l0 -280c-92,1 -183,6 -272,17l263 263 9 0zm1224 49l-135 135 0 -214c47,25 92,51 135,78zm-178 -100l-163 163 0 -234c56,22 110,46 163,72zm-210 -89l-195 195 0 -256c67,18 132,38 195,61zm-236 -71l-229 229 0 -273c78,11 155,26 229,44zm-508 212l248 -248 0 263c-81,-8 -164,-13 -248,-15zm319 22l199 -199 0 229c-65,-12 -131,-22 -199,-30zm264 43l177 -177 0 220c-58,-16 -117,-30 -177,-43zm239 60l144 -144 0 192c-47,-17 -95,-33 -144,-48zm207 71l116 -116 0 165c-38,-17 -77,-33 -116,-49zm175 76l80 -80 0 120c-26,-14 -53,-27 -80,-40zm141 74l71 -71 1 1 0 113c-23,-15 -47,-29 -72,-43zm103 63l0 -100c31,34 60,69 87,105l0 55c-28,-21 -57,-41 -87,-60zm-55 -156l-77 77 -1 0 0 -148c27,23 53,47 78,71zm-114 -100l-102 102 0 -178c36,24 70,49 102,76zm-2557 -105l136 136 0 -215c-47,25 -92,51 -136,79zm179 -100l163 163 0 -235c-56,22 -111,46 -163,72zm210 -89l196 196 0 -256c-67,18 -132,38 -196,61zm236 -71l229 229 0 -273c-78,11 -155,26 -229,44zm509 212l-248 -248 0 262c81,-8 164,-13 248,-15zm-319 22l-199 -199 0 229c65,-12 131,-22 199,-30zm-264 43l-177 -177 0 220c58,-16 117,-30 177,-43zm-239 60l-144 -144 0 191c47,-17 95,-33 144,-47zm-208 71l-116 -116 0 164c38,-17 76,-33 116,-49zm-175 76l-79 -79 0 119c26,-14 52,-27 79,-40zm-141 74l-71 -71 0 114c23,-14 47,-29 71,-42zm-103 63l0 -101c-36,39 -70,80 -100,123l0 48c32,-24 65,-47 100,-69zm54 -156l78 78 1 -1 0 -149c-27,23 -54,47 -79,71zm101 -90l13 -11 103 103 0 -179c-41,28 -80,57 -117,87zm2863 367c-25,-17 -50,-34 -77,-51l0 51 77 0zm-108 0l0 -70c-26,-16 -53,-31 -81,-46l0 116 81 0zm-113 0l0 -133c-26,-14 -53,-27 -81,-40l0 172 81 0zm-113 0l0 -187c-27,-12 -53,-23 -81,-34l0 221 81 0zm-113 0l0 -234c-27,-10 -54,-20 -81,-30l0 264 81 0zm-113 0l0 -275c-27,-9 -54,-17 -81,-26l0 300 81 0zm-113 0l0 -309c-27,-8 -54,-15 -81,-22l0 331 81 0zm-113 0l0 -339c-27,-6 -54,-13 -81,-18l0 357 81 0zm-113 0l0 -364c-27,-5 -54,-10 -81,-15l0 379 81 0zm-113 0l0 -384c-27,-4 -54,-8 -81,-12l0 395 81 0zm-113 0l0 -399c-27,-3 -54,-6 -81,-9l0 408 81 0zm-113 0l0 -411c-27,-2 -54,-4 -81,-6l0 417 81 0zm-113 0l0 -418c-27,-1 -54,-2 -81,-3l0 421 81 0zm-113 0l0 -422c-13,0 -26,0 -40,0 -14,0 -28,0 -41,0l0 422 81 0zm-113 0l0 -421c-27,1 -54,2 -81,3l0 418 81 0zm-113 0l0 -417c-27,2 -54,3 -81,6l0 411 81 0zm-113 0l0 -408c-27,3 -54,5 -81,9l0 399 81 0zm-113 0l0 -395c-27,4 -54,7 -81,12l0 384 81 0zm-113 0l0 -378c-27,5 -54,10 -81,15l0 363 81 0zm-113 0l0 -357c-27,6 -54,12 -81,18l0 339 81 0zm-113 0l0 -331c-27,7 -54,14 -81,22l0 309 81 0zm-113 0l0 -300c-27,8 -54,17 -81,26l0 274 81 0zm-113 0l0 -263c-27,10 -54,20 -81,30l0 233 81 0zm-113 0l0 -221c-27,11 -54,23 -81,35l0 186 81 0zm-113 0l0 -172c-27,13 -54,26 -81,40l0 132 81 0zm-113 0l0 -115c-28,15 -55,30 -81,46l0 69 81 0zm-113 0l0 -49c-26,16 -50,32 -75,49l75 0zm5997 502l0 0z"/>
 </g>
 <g id="windows">
  <metadata id="CorelCorpID_5Corel-Layer"/>
  <path id="lights_x0020_off" class="fil7" d="M7081 7788l279 0 0 52 -279 0 0 -52zm8245 782l0 -74 -315 0 0 74 315 0zm0 -338l0 -74 -315 0 0 74 315 0zm0 -113l0 -74 -102 0 -213 0 0 74 315 0zm0 -113l0 -26 -22 -48 -293 0 0 74 213 0 102 0zm-93 -225l-34 -74 -188 0 0 74 223 0zm-907 868l-228 0 0 -105 228 0 0 105zm40 -586l49 0 0 -105 -49 0 0 105zm-40 0l-228 0 0 -105 228 0 0 105zm0 -147l-228 0 0 -105 228 0 0 105zm40 -150l49 0 0 -105 -49 0 0 105zm0 440l49 0 0 -105 -49 0 0 105zm-40 147l-228 0 0 -105 228 0 0 105zm40 297l49 0 0 -105 -49 0 0 105zm-1058 -38l-200 0 0 -50 200 0 0 50zm0 -295l-200 0 0 -100 200 0 0 100zm341 0l-200 0 0 -100 200 0 0 100zm331 179l-200 0 0 -100 200 0 0 100zm-331 116l-200 0 0 -50 200 0 0 50zm331 0l-200 0 0 -50 200 0 0 50zm-1515 -764l52 0 0 111 -52 0 0 -111zm195 -318l52 0 0 111 -52 0 0 -111zm-99 0l52 0 0 111 -52 0 0 -111zm-96 0l52 0 0 111 -52 0 0 -111zm-99 0l52 0 0 111 -52 0 0 -111zm99 -158l52 0 0 111 -52 0 0 -111zm96 0l52 0 0 111 -52 0 0 -111zm0 -160l52 0 0 111 -52 0 0 -111zm-96 0l52 0 0 111 -52 0 0 -111zm-99 0l52 0 0 111 -52 0 0 -111zm294 635l52 0 0 111 -52 0 0 -111zm-99 158l52 0 0 111 -52 0 0 -111zm-195 158l52 0 0 111 -52 0 0 -111zm99 0l52 0 0 111 -52 0 0 -111zm96 0l52 0 0 111 -52 0 0 -111zm-96 160l52 0 0 111 -52 0 0 -111zm96 0l52 0 0 111 -52 0 0 -111zm-195 158l52 0 0 111 -52 0 0 -111zm99 0l52 0 0 111 -52 0 0 -111zm96 0l52 0 0 111 -52 0 0 -111zm99 0l52 0 0 111 -52 0 0 -111zm-851 -845l70 0 0 115 -70 0 0 -115zm0 771l70 0 0 104 -70 11 0 -115zm143 -19l70 0 0 100 -70 11 0 -111zm137 -27l83 0 0 103 -75 12 -8 0 0 -115zm0 -161l83 0 0 115 -83 0 0 -115zm-280 52l70 0 0 115 -70 0 0 -115zm143 -172l70 0 0 115 -70 0 0 -115zm0 -152l70 0 0 115 -70 0 0 -115zm-143 16l70 0 0 115 -70 0 0 -115zm143 -324l70 0 0 115 -70 0 0 -115zm-2557 254l49 0 0 106 -49 0 0 -106zm186 0l49 0 0 106 -49 0 0 -106zm-94 151l49 0 0 106 -49 0 0 -106zm-186 151l49 0 0 106 -49 0 0 -106zm94 0l49 0 0 106 -49 0 0 -106zm92 0l49 0 0 106 -49 0 0 -106zm-92 153l49 0 0 106 -49 0 0 -106zm92 0l49 0 0 106 -49 0 0 -106zm-186 151l49 0 0 106 -49 0 0 -106zm94 0l49 0 0 106 -49 0 0 -106zm92 0l49 0 0 106 -49 0 0 -106zm94 0l49 0 0 106 -49 0 0 -106zm608 -159l-133 0 0 49 133 0 0 -49zm177 0l-132 0 0 49 132 0 0 -49zm-352 120l-132 0 0 49 132 0 0 -49zm175 0l-133 0 0 49 133 0 0 -49zm-175 118l-132 0 0 49 132 0 0 -49zm175 0l-133 0 0 49 133 0 0 -49zm177 0l-132 0 0 49 132 0 0 -49zm327 -649l139 0 0 115 -139 0 0 -115zm0 143l139 0 0 115 -139 0 0 -115zm0 285l139 0 0 115 -139 0 0 -115zm199 -428l139 0 0 115 -139 0 0 -115zm0 285l139 0 0 115 -139 0 0 -115zm-199 286l139 0 0 115 -139 0 0 -115zm199 0l139 0 0 115 -139 0 0 -115zm445 -359l193 0 0 52 -193 0 0 -52zm0 180l193 0 0 52 -193 0 0 -52zm0 270l193 0 0 52 -193 0 0 -52zm-2627 -566l319 0 0 121 -319 0 0 -121zm0 177l319 0 0 121 -319 0 0 -121zm0 339l319 0 0 121 -319 0 0 -121zm-535 -315l133 0 0 61 -133 0 0 -61zm-177 0l133 0 0 61 -133 0 0 -61zm352 150l133 0 0 61 -133 0 0 -61zm-175 0l133 0 0 61 -133 0 0 -61zm175 147l133 0 0 61 -133 0 0 -61zm-175 0l133 0 0 61 -133 0 0 -61zm-177 0l133 0 0 61 -133 0 0 -61zm-409 -1266l142 0 0 122 -142 0 0 -122zm0 151l142 0 0 122 -142 0 0 -122zm0 151l142 0 0 122 -142 0 0 -122zm0 298l142 0 0 122 -142 0 0 -122zm0 151l142 0 0 122 -142 0 0 -122zm0 303l142 0 0 122 -142 0 0 -122zm203 -904l142 0 0 122 -142 0 0 -122zm0 303l142 0 0 122 -142 0 0 -122zm0 147l142 0 0 122 -142 0 0 -122zm0 151l142 0 0 122 -142 0 0 -122zm0 151l142 0 0 122 -142 0 0 -122zm-203 304l142 0 0 122 -142 0 0 -122zm-507 -479l279 0 0 52 -279 0 0 -52zm0 90l279 0 0 52 -279 0 0 -52zm0 90l279 0 0 52 -279 0 0 -52zm0 180l279 0 0 52 -279 0 0 -52zm0 180l279 0 0 52 -279 0 0 -52zm0 90l279 0 0 52 -279 0 0 -52zm710 -151l142 0 0 122 -142 0 0 -122z"/>
  <path id="lights_x0020_on" class="fil1" d="M11337 8392l193 0 0 52 -193 0 0 -52zm615 -1080l70 0 0 115 -70 0 0 -115zm3229 357l-50 -107 -120 0 0 107 170 0zm145 675l0 -74 -315 0 0 74 315 0zm0 113l0 -74 -315 0 0 74 315 0zm-40 -563l-34 -74 -241 0 0 74 275 0zm-920 -274l49 0 0 -105 -49 0 0 105zm-40 883l-228 0 0 -105 228 0 0 105zm40 0l49 0 0 -105 -49 0 0 105zm0 -150l49 0 0 -105 -49 0 0 105zm-40 -147l-228 0 0 -105 228 0 0 105zm40 -289l49 0 0 -105 -49 0 0 105zm-40 -150l-228 0 0 -105 228 0 0 105zm0 -147l-228 0 0 -105 228 0 0 105zm-1018 875l-200 0 0 -100 200 0 0 100zm0 -366l-200 0 0 -100 200 0 0 100zm341 0l-200 0 0 -100 200 0 0 100zm331 0l-200 0 0 -100 200 0 0 100zm0 187l-200 0 0 -100 200 0 0 100zm-331 179l-200 0 0 -100 200 0 0 100zm-1246 -1442l14 0 0 111 -52 0c-3,-36 28,-99 38,-111zm157 0l52 0 0 111 -52 0 0 -111zm114 0l-14 0 0 111 52 0c3,-36 -28,-99 -38,-111zm-309 635l52 0 0 111 -52 0 0 -111zm99 0l52 0 0 111 -52 0 0 -111zm96 0l52 0 0 111 -52 0 0 -111zm99 0l52 0 0 111 -52 0 0 -111zm-294 158l52 0 0 111 -52 0 0 -111zm195 0l52 0 0 111 -52 0 0 -111zm-195 158l52 0 0 111 -52 0 0 -111zm99 0l52 0 0 111 -52 0 0 -111zm195 0l52 0 0 111 -52 0 0 -111zm0 158l52 0 0 111 -52 0 0 -111zm-294 160l52 0 0 111 -52 0 0 -111zm294 0l52 0 0 111 -52 0 0 -111zm-195 -1269l52 0 0 111 -52 0 0 -111zm195 158l52 0 0 111 -52 0 0 -111zm-294 160l52 0 0 111 -52 0 0 -111zm294 0l52 0 0 111 -52 0 0 -111zm-570 670l83 0 0 115 -83 0 0 -115zm-137 194l70 0 0 115 -70 0 0 -115zm137 -355l83 0 0 115 -83 0 0 -115zm-280 219l70 0 0 115 -70 0 0 -115zm0 -308l70 0 0 115 -70 0 0 -115zm143 -19l70 0 0 115 -70 0 0 -115zm0 -308l70 0 0 115 -70 0 0 -115zm-143 19l70 0 0 115 -70 0 0 -115zm-4220 209l142 0 0 122 -142 0 0 -122zm0 450l142 0 0 122 -142 0 0 -122zm203 -904l142 0 0 122 -142 0 0 -122zm0 303l142 0 0 122 -142 0 0 -122zm0 753l142 0 0 122 -142 0 0 -122zm-203 -1326l345 210 0 34 -345 0 0 -244zm-507 730l279 0 0 52 -279 0 0 -52zm0 180l279 0 0 52 -279 0 0 -52zm0 360l279 0 0 52 -279 0 0 -52zm0 180l279 0 0 52 -279 0 0 -52zm1629 -771l319 0 0 121 -319 0 0 -121zm0 181l319 0 0 121 -319 0 0 -121zm0 530l319 0 0 121 -319 0 0 -121zm-360 -302l133 0 0 61 -133 0 0 -61zm-175 0l133 0 0 61 -133 0 0 -61zm175 152l133 0 0 61 -133 0 0 -61zm-352 150l133 0 0 61 -133 0 0 -61zm0 -302l133 0 0 61 -133 0 0 -61zm1303 -333l49 0 0 106 -49 0 0 -106zm94 0l49 0 0 106 -49 0 0 -106zm92 0l49 0 0 106 -49 0 0 -106zm94 0l49 0 0 106 -49 0 0 -106zm-281 151l49 0 0 106 -49 0 0 -106zm186 0l49 0 0 106 -49 0 0 -106zm-186 151l49 0 0 106 -49 0 0 -106zm94 0l49 0 0 106 -49 0 0 -106zm186 0l49 0 0 106 -49 0 0 -106zm0 151l49 0 0 106 -49 0 0 -106zm-281 153l49 0 0 106 -49 0 0 -106zm281 0l49 0 0 106 -49 0 0 -106zm-213 -717l43 0 0 53 -43 0 0 -53zm69 0l126 0 0 53 -126 0 0 -53zm577 587l-132 0 0 49 132 0 0 -49zm175 0l-132 0 0 49 132 0 0 -49zm-175 122l-132 0 0 49 132 0 0 -49zm352 120l-132 0 0 49 132 0 0 -49zm0 -243l-132 0 0 49 132 0 0 -49zm526 -427l139 0 0 115 -139 0 0 -115zm0 281l139 0 0 115 -139 0 0 -115zm-199 -281l139 0 0 115 -139 0 0 -115zm0 423l139 0 0 115 -139 0 0 -115zm645 287l193 0 0 52 -193 0 0 -52zm0 -450l193 0 0 52 -193 0 0 -52zm0 180l193 0 0 52 -193 0 0 -52zm110 -243l83 0 0 40 -97 0 13 -40zm-556 369l139 0 0 115 -139 0 0 -115z"/>
 </g>
</svg>
