<?xml version="1.0" encoding="UTF-8"?>
<!DOCTYPE svg PUBLIC "-//W3C//DTD SVG 1.1//EN" "http://www.w3.org/Graphics/SVG/1.1/DTD/svg11.dtd">
<!-- Creator: CorelDRAW X6 -->
<svg xmlns="http://www.w3.org/2000/svg" xml:space="preserve" width="4000px" height="4276px" version="1.1" style="shape-rendering:geometricPrecision; text-rendering:geometricPrecision; image-rendering:optimizeQuality; fill-rule:evenodd; clip-rule:evenodd"
viewBox="0 0 725 766"
 xmlns:xlink="http://www.w3.org/1999/xlink">
 <defs>
  <style type="text/css">
   <![CDATA[
    .fil0 {fill:#000066}
   ]]>
  </style>
 </defs>
 <g id="text">
  <metadata id="CorelCorpID_0Corel-Layer"/>
  <path class="fil0" d="M253 602c-72,-50 -120,-147 -120,-233 0,-125 101,-226 226,-226 125,0 226,101 226,226 0,86 -49,181 -120,232 -6,37 -13,74 -15,111l-50 32c-1,13 -21,23 -45,23 -24,0 -44,-10 -45,-23l-44 -33c-1,-36 -8,-73 -13,-109zm291 -428c21,-14 55,-54 66,-72 16,-28 -98,93 -66,72zm90 147c25,-5 72,-29 88,-42 25,-20 -126,50 -88,42zm-288 -219c-7,-25 -6,-77 -1,-98 7,-31 11,135 1,98zm-151 52c-21,-14 -55,-54 -66,-72 -16,-28 98,93 66,72zm-104 142c-25,-5 -72,-29 -88,-42 -25,-20 126,50 88,42zm328 82c-2,8 -4,18 -6,29 -4,-7 -29,-12 -59,-12 -26,0 -49,4 -56,9 -7,-37 -11,-54 -9,-28 5,64 28,217 45,285l1 2c-13,-1 -26,-2 -38,-4 -3,-26 -8,-52 -11,-78 -69,-41 -117,-133 -117,-213 0,-106 86,-192 192,-192 106,0 192,86 192,192 0,79 -49,170 -117,212 -4,27 -9,54 -12,80l0 -1c-14,2 -29,3 -44,4 14,-64 62,-368 41,-286zm-7 33c-15,76 -33,197 -37,252l0 1c-12,0 -25,0 -37,0 -4,-41 -26,-180 -39,-253 4,-1 12,-3 22,-6 9,-2 21,-5 33,-5 28,0 52,12 58,11z"/>
 </g>
</svg>
