<?xml version="1.0" encoding="UTF-8"?>
<!DOCTYPE svg PUBLIC "-//W3C//DTD SVG 1.1//EN" "http://www.w3.org/Graphics/SVG/1.1/DTD/svg11.dtd">
<!-- Creator: CorelDRAW X6 -->
<svg xmlns="http://www.w3.org/2000/svg" xml:space="preserve" width="24000px" height="18400px" version="1.1" style="shape-rendering:geometricPrecision; text-rendering:geometricPrecision; image-rendering:optimizeQuality; fill-rule:evenodd; clip-rule:evenodd"
viewBox="0 0 485 377"
 xmlns:xlink="http://www.w3.org/1999/xlink">
 <defs>
  <style type="text/css">
   <![CDATA[
    .fil0 {fill:#000066}
   ]]>
  </style>
 </defs>
 <g id="icons">
  <metadata id="CorelCorpID_0Corel-Layer"/>
  <path class="fil0" d="M1 30c-9,40 42,96 89,132 22,18 47,37 75,54 52,32 103,55 146,67l8 12 51 81 9 -86 3 0 19 31 24 -39 24 -39 -36 -4 -1 -3 73 -46 -95 -10 -15 -2c-29,-33 -72,-70 -124,-102 -28,-17 -55,-32 -81,-44 -57,-24 -130,-49 -158,-23 -6,5 -9,12 -11,19zm87 106l0 0c0,-1 -32,-31 -31,-32 2,-14 8,-30 16,-42 8,-12 20,-25 31,-33 0,0 41,14 43,14 -17,9 -32,22 -43,39 -10,16 -16,35 -16,54zm272 57c-33,-38 -77,-72 -120,-98 -23,-14 -47,-28 -72,-39 -20,7 -37,19 -48,37 -11,18 -15,39 -12,59 21,17 44,33 67,48 42,27 92,52 141,65 34,9 76,-35 45,-71zm-319 -110c3,-11 8,-22 14,-32 6,-10 14,-19 22,-27 -22,-10 -50,-12 -58,3 -9,14 3,41 21,55z"/>
 </g>
</svg>
