<?xml version="1.0" encoding="UTF-8"?>
<!DOCTYPE svg PUBLIC "-//W3C//DTD SVG 1.1//EN" "http://www.w3.org/Graphics/SVG/1.1/DTD/svg11.dtd">
<!-- Creator: CorelDRAW X6 -->
<svg xmlns="http://www.w3.org/2000/svg" xml:space="preserve" width="24000px" height="10400px" version="1.1" style="shape-rendering:geometricPrecision; text-rendering:geometricPrecision; image-rendering:optimizeQuality; fill-rule:evenodd; clip-rule:evenodd"
viewBox="0 0 489 215"
 xmlns:xlink="http://www.w3.org/1999/xlink">
 <defs>
  <style type="text/css">
   <![CDATA[
    .fil0 {fill:#000066}
   ]]>
  </style>
 </defs>
 <g id="icons">
  <metadata id="CorelCorpID_0Corel-Layer"/>
  <path class="fil0" d="M315 31c55,-9 161,-20 173,27 16,65 -180,121 -225,132 -45,11 -245,56 -261,-9 -13,-50 102,-93 141,-106 4,-1 3,-1 4,-5 6,-32 39,-58 70,-66 29,-8 70,-1 92,23 4,5 2,5 8,4zm-141 62c22,14 126,-17 123,-37 -15,-52 -119,-37 -129,17 -2,9 -2,15 6,20zm-28 3c-42,15 -131,51 -124,80 8,31 209,-21 230,-27 20,-5 222,-55 215,-86 -7,-28 -102,-18 -146,-11 -1,0 -1,0 -1,1 3,45 -154,90 -172,43 0,-1 0,-1 -1,-1z"/>
 </g>
</svg>
