<?xml version="1.0" encoding="UTF-8"?>
<!DOCTYPE svg PUBLIC "-//W3C//DTD SVG 1.1//EN" "http://www.w3.org/Graphics/SVG/1.1/DTD/svg11.dtd">
<!-- Creator: CorelDRAW X6 -->
<svg xmlns="http://www.w3.org/2000/svg" xml:space="preserve" width="900px" height="753px" version="1.1" style="shape-rendering:geometricPrecision; text-rendering:geometricPrecision; image-rendering:optimizeQuality; fill-rule:evenodd; clip-rule:evenodd"
viewBox="0 0 224 187"
 xmlns:xlink="http://www.w3.org/1999/xlink">
 <defs>
  <style type="text/css">
   <![CDATA[
    .fil0 {fill:black}
   ]]>
  </style>
 </defs>
 <g id="Layer_x0020_1">
  <metadata id="CorelCorpID_0Corel-Layer"/>
  <path class="fil0" d="M143 0c24,0 44,22 44,50 0,21 -12,39 -28,46l0 4 26 0c21,0 38,17 38,38l0 48 -56 0 0 -48c0,-25 -20,-45 -45,-45l-2 0c-2,-1 -3,-2 -5,-4 10,-11 15,-25 15,-40 0,-15 -5,-29 -15,-40 7,-6 17,-10 26,-10zm-62 0c24,0 44,22 44,50 0,21 -12,39 -28,46l0 4 26 0c21,0 38,17 38,38l0 48 -161 0 0 -48c0,-21 17,-38 38,-38l26 0 0 -4c-16,-7 -28,-25 -28,-46 0,-28 20,-50 44,-50z"/>
 </g>
</svg>
