<?xml version="1.0" encoding="UTF-8"?>
<!DOCTYPE svg PUBLIC "-//W3C//DTD SVG 1.1//EN" "http://www.w3.org/Graphics/SVG/1.1/DTD/svg11.dtd">
<!-- Creator: CorelDRAW X6 -->
<svg xmlns="http://www.w3.org/2000/svg" xml:space="preserve" width="423px" height="423px" version="1.1" style="shape-rendering:geometricPrecision; text-rendering:geometricPrecision; image-rendering:optimizeQuality; fill-rule:evenodd; clip-rule:evenodd"
viewBox="0 0 754 754"
 xmlns:xlink="http://www.w3.org/1999/xlink">
 <defs>
  <style type="text/css">
   <![CDATA[
    .fil0 {fill:black}
   ]]>
  </style>
 </defs>
 <g id="Layer_x0020_1">
  <metadata id="CorelCorpID_0Corel-Layer"/>
  <path class="fil0" d="M108 0l537 0c60,0 108,49 108,108l0 537c0,60 -49,108 -108,108l-537 0c-60,0 -108,-49 -108,-108l0 -537c0,-60 49,-108 108,-108zm415 471l170 129 26 19 0 -511c0,-40 -33,-73 -73,-73l-537 0c-40,0 -73,33 -73,73l0 446 86 -127 102 151 54 80 76 -58 170 -129zm-42 -273c-38,0 -68,31 -68,68 0,38 31,68 68,68 38,0 68,-31 68,-68 0,-38 -31,-68 -68,-68z"/>
 </g>
</svg>
