<?xml version="1.0" encoding="UTF-8"?>
<!DOCTYPE svg PUBLIC "-//W3C//DTD SVG 1.1//EN" "http://www.w3.org/Graphics/SVG/1.1/DTD/svg11.dtd">
<!-- Creator: CorelDRAW X6 -->
<svg xmlns="http://www.w3.org/2000/svg" xml:space="preserve" width="900px" height="1468px" version="1.1" style="shape-rendering:geometricPrecision; text-rendering:geometricPrecision; image-rendering:optimizeQuality; fill-rule:evenodd; clip-rule:evenodd"
viewBox="0 0 142 233"
 xmlns:xlink="http://www.w3.org/1999/xlink">
 <defs>
  <style type="text/css">
   <![CDATA[
    .fil0 {fill:black}
   ]]>
  </style>
 </defs>
 <g id="Layer_x0020_1">
  <metadata id="CorelCorpID_0Corel-Layer"/>
  <path class="fil0" d="M0 218l0 -203c0,-8 7,-15 15,-15l112 0c8,0 15,7 15,15l0 203c0,8 -7,15 -15,15l-112 0c-8,0 -15,-7 -15,-15zm54 -26l34 0 0 15 -34 0 0 -15zm-24 -155l82 0 0 7 -82 0 0 -7zm0 129l82 0 0 7 -82 0 0 -7zm0 -44l82 0 0 7 -82 0 0 -7zm0 -43l82 0 0 7 -82 0 0 -7zm-23 138l0 -203c0,-4 4,-8 8,-8l112 0c4,0 8,4 8,8l0 203c0,4 -4,8 -8,8l-112 0c-4,0 -8,-4 -8,-8z"/>
 </g>
</svg>
