<?xml version="1.0" encoding="UTF-8"?>
<!DOCTYPE svg PUBLIC "-//W3C//DTD SVG 1.1//EN" "http://www.w3.org/Graphics/SVG/1.1/DTD/svg11.dtd">
<!-- Creator: CorelDRAW X6 -->
<svg xmlns="http://www.w3.org/2000/svg" xml:space="preserve" width="10001px" height="2404px" version="1.1" style="shape-rendering:geometricPrecision; text-rendering:geometricPrecision; image-rendering:optimizeQuality; fill-rule:evenodd; clip-rule:evenodd"
viewBox="0 0 70956 17078"
 xmlns:xlink="http://www.w3.org/1999/xlink">
 <defs>
  <style type="text/css">
   <![CDATA[
    .fil0 {fill:white}
    .fil1 {fill:#000066;fill-rule:nonzero}
   ]]>
  </style>
 </defs>
 <g id="speech_x0020_bubble">
  <metadata id="CorelCorpID_0Corel-Layer"/>
  <path class="fil0" d="M65924 9205l2149 7873 -84 -7873c253,0 506,0 759,0 1219,0 2207,-989 2207,-2207 0,-1597 0,-3193 0,-4790 0,-1219 -989,-2207 -2207,-2207 -4271,0 -8542,0 -12813,0 -1219,0 -2207,989 -2207,2207 0,1597 0,3193 0,4790 0,1219 989,2207 2207,2207 2483,0 7505,0 9989,0zm-53728 0l2149 7873 -84 -7873c253,0 506,0 759,0 1219,0 2207,-989 2207,-2207 0,-1597 0,-3193 0,-4790 0,-1219 -989,-2207 -2207,-2207 -4271,0 -8542,0 -12813,0 -1219,0 -2207,989 -2207,2207 0,1597 0,3193 0,4790 0,1219 989,2207 2207,2207 2483,0 7505,0 9989,0zm20143 0l-2149 7873 84 -7873c-253,0 -506,0 -759,0 -1219,0 -2207,-989 -2207,-2207 0,-1597 0,-3193 0,-4790 0,-1219 989,-2207 2207,-2207 4271,0 8542,0 12813,0 1219,0 2207,989 2207,2207 0,1597 0,3193 0,4790 0,1219 -989,2207 -2207,2207 -2483,0 -7505,0 -9989,0z"/>
  <path class="fil1" d="M59132 3855l-815 0 -385 -1736 661 0 170 1291 11 0 192 -1291 698 0 204 1287 15 0 159 -1287 664 0 -385 1736 -819 0 -181 -1049 -11 0 -177 1049zm-56146 -1627c23,28 40,97 51,208 11,111 17,279 17,506l0 913 -645 0 0 -906c0,-10 0,-60 0,-149 0,-89 -6,-144 -19,-164 -8,-10 -26,-18 -55,-23 -29,-5 -62,-8 -100,-8l-64 4c-70,3 -143,19 -219,49l0 1196 -645 0 0 -2265 645 -26 0 442c0,181 -6,302 -19,362l4 4c171,-194 376,-291 615,-291 91,0 176,13 255,38 79,25 139,62 179,109zm1419 1174c63,0 180,-6 351,-19 23,0 64,-2 125,-7l57 389c-194,91 -445,136 -755,136 -289,0 -512,-73 -666,-219 -155,-146 -232,-366 -232,-661 0,-151 20,-297 59,-438 39,-141 84,-239 134,-294 53,-55 151,-103 294,-143 143,-40 286,-60 426,-60 227,0 396,40 510,121 113,80 187,192 223,334 35,142 53,333 53,572 -171,10 -339,15 -502,15l-536 0c0,80 17,141 51,181 34,40 82,66 145,77 63,11 151,17 264,17zm-423 -868c-15,8 -26,40 -34,98 -8,58 -13,123 -15,196l196 0c118,0 204,-1 257,-4 0,-121 -17,-206 -51,-257 -34,-50 -93,-75 -176,-75 -68,0 -127,14 -177,41zm3023 -415l-453 1453c-88,279 -167,483 -238,610 -70,127 -141,216 -211,266 -40,28 -104,49 -191,64 -87,15 -181,23 -281,23 -151,0 -272,-14 -362,-42 -3,-60 0,-134 8,-221 8,-87 18,-160 30,-221 106,5 209,8 309,8 75,0 132,-1 170,-4 38,-73 73,-150 106,-230l-260 -15 -581 -1691 683 0 302 1215 4 72 11 0 272 -1287 683 0zm249 883c-5,-206 -23,-624 -53,-1253l-11 -260 612 -34c2,50 4,125 4,223 0,262 -13,571 -38,929 -10,161 -16,264 -19,309 -121,68 -279,103 -476,106l-19 -19zm238 876c-83,0 -152,-27 -206,-81 -54,-54 -81,-128 -81,-221 0,-80 28,-149 85,-204 57,-55 127,-83 209,-83 81,0 148,28 202,83 54,55 81,123 81,204 0,93 -26,167 -79,221 -53,54 -123,81 -211,81zm1261 -2174l679 0 0 2152 -679 0 0 -2152zm2661 2152l-815 0 -385 -1736 661 0 170 1291 11 0 192 -1291 698 0 204 1287 15 0 159 -1287 664 0 -385 1736 -819 0 -181 -1049 -11 0 -177 1049zm2684 0l-60 -238c-116,189 -277,283 -483,283 -169,0 -306,-47 -413,-142 -107,-94 -160,-227 -160,-398 0,-106 31,-198 92,-277 62,-79 147,-135 255,-168 141,-40 359,-63 653,-68 0,-166 -8,-254 -23,-264 -13,-10 -53,-15 -121,-15 -43,0 -102,2 -177,8 -121,5 -284,19 -491,41 -20,-136 -35,-282 -45,-438 133,-28 273,-51 419,-70 146,-19 277,-28 393,-28 201,0 352,33 453,100 101,67 166,154 196,262 30,108 44,245 41,411l-4 555 11 445 -536 0zm-325 -377c65,0 135,-13 208,-38l0 -279 -30 0c-186,0 -289,10 -309,30 -13,13 -22,31 -28,57 -6,25 -9,49 -9,72 0,60 14,102 41,125 28,23 70,34 128,34zm2548 -211c0,224 -71,385 -213,483 -142,98 -344,147 -606,147 -184,0 -395,-26 -634,-79 5,-50 17,-123 36,-217 19,-94 35,-167 47,-217 91,15 191,27 302,36 111,9 205,13 283,13 68,0 110,-4 125,-11 3,-2 6,-9 10,-21 4,-11 6,-23 6,-36 0,-50 -31,-84 -94,-102 -20,-5 -97,-26 -230,-64 -133,-38 -242,-106 -326,-206 -84,-99 -126,-223 -126,-372 0,-78 18,-165 53,-260 35,-96 73,-156 113,-181 30,-20 103,-41 219,-62 116,-21 223,-32 321,-32 209,0 419,15 630,45 0,45 -6,121 -19,228 -13,107 -24,174 -34,202 -214,-28 -386,-41 -517,-41 -68,0 -112,4 -132,11 -5,2 -10,9 -15,21 -5,11 -8,26 -8,43 0,35 11,60 34,75 23,18 82,39 177,64 113,33 211,67 293,102 82,35 154,88 215,159 62,70 92,161 92,272zm-13194 3549c0,224 -71,385 -213,483 -142,98 -344,147 -606,147 -184,0 -395,-26 -634,-79 5,-50 17,-123 36,-217 19,-94 35,-167 47,-217 91,15 191,27 302,36 111,9 205,13 283,13 68,0 110,-4 125,-11 3,-2 6,-9 10,-21 4,-11 6,-23 6,-36 0,-50 -31,-84 -94,-102 -20,-5 -97,-26 -230,-64 -133,-38 -242,-106 -326,-206 -84,-99 -126,-223 -126,-372 0,-78 18,-165 53,-260 35,-96 73,-156 113,-181 30,-20 103,-41 219,-62 116,-21 223,-32 321,-32 209,0 419,15 630,45 0,45 -6,121 -19,228 -13,107 -24,174 -34,202 -214,-28 -386,-41 -517,-41 -68,0 -112,4 -132,11 -5,2 -10,9 -15,21 -5,11 -8,26 -8,43 0,35 11,60 34,75 23,18 82,39 177,64 113,33 211,67 293,102 82,35 154,88 215,159 62,70 92,161 92,272zm227 -1676l645 -26 0 2291 -645 0 0 -2265zm2019 1812c63,0 180,-6 351,-19 23,0 64,-2 125,-7l57 389c-194,91 -445,136 -755,136 -289,0 -512,-73 -666,-219 -155,-146 -232,-366 -232,-661 0,-151 20,-297 59,-438 39,-141 84,-239 134,-294 53,-55 151,-103 294,-143 143,-40 286,-60 426,-60 227,0 396,40 510,121 113,80 187,192 223,334 35,142 53,333 53,572 -171,10 -339,15 -502,15l-536 0c0,80 17,141 51,181 34,40 82,66 145,77 63,11 151,17 264,17zm-423 -868c-15,8 -26,40 -34,98 -8,58 -13,123 -15,196l196 0c118,0 204,-1 257,-4 0,-121 -17,-206 -51,-257 -34,-50 -93,-75 -176,-75 -68,0 -127,14 -177,41zm2280 868c63,0 180,-6 351,-19 23,0 64,-2 125,-7l57 389c-194,91 -445,136 -755,136 -289,0 -512,-73 -666,-219 -155,-146 -232,-366 -232,-661 0,-151 20,-297 59,-438 39,-141 84,-239 134,-294 53,-55 151,-103 294,-143 143,-40 286,-60 426,-60 227,0 396,40 510,121 113,80 187,192 223,334 35,142 53,333 53,572 -171,10 -339,15 -502,15l-536 0c0,80 17,141 51,181 34,40 82,66 145,77 63,11 151,17 264,17zm-423 -868c-15,8 -26,40 -34,98 -8,58 -13,123 -15,196l196 0c118,0 204,-1 257,-4 0,-121 -17,-206 -51,-257 -34,-50 -93,-75 -176,-75 -68,0 -127,14 -177,41zm2420 -453c181,0 325,60 432,179 107,120 160,328 160,625 0,221 -21,402 -64,542 -43,140 -92,232 -147,277 -55,45 -152,82 -289,110 -137,28 -279,41 -425,41 -43,0 -115,-3 -215,-8l0 536 -645 26 0 -2291 528 0 64 268c65,-93 149,-167 251,-223 102,-55 218,-83 349,-83zm-151 1314c28,-20 48,-77 60,-172 13,-94 19,-184 19,-270 0,-141 -18,-245 -53,-313 -35,-68 -106,-102 -211,-102 -76,0 -146,7 -211,23l0 838 106 11c33,3 79,4 140,4 86,0 136,-6 151,-19zm1333 -1491c-86,0 -159,-29 -221,-87 -62,-58 -92,-127 -92,-208 0,-80 31,-150 92,-208 62,-58 135,-87 221,-87 85,0 159,29 219,87 60,58 91,127 91,208 0,80 -30,150 -91,208 -60,58 -133,87 -219,87zm-325 215l645 0 0 1736 -645 0 0 -1736zm2646 109c23,28 40,97 51,208 11,111 17,279 17,506l0 913 -645 0 0 -906 0 -155c0,-80 -6,-131 -19,-151 -20,-25 -67,-38 -140,-38 -35,0 -62,1 -79,4 -70,3 -143,19 -219,49l0 1196 -645 0 0 -1736 525 0 72 291c181,-219 398,-328 649,-328 91,0 176,13 255,38 79,25 139,62 179,109zm1272 -140c118,0 242,8 370,25 128,16 278,38 449,66l0 1502c0,360 -120,639 -359,838 -30,25 -98,47 -204,64 -106,18 -225,26 -359,26 -289,0 -518,-38 -687,-113 -2,-55 2,-128 13,-219 11,-90 23,-162 36,-215 181,28 359,42 532,42 88,0 163,-5 224,-13 62,-9 100,-22 115,-40 20,-20 35,-96 45,-226 2,-35 4,-87 4,-155l0 -94c-63,93 -143,160 -242,200 -98,40 -186,60 -264,60 -211,0 -371,-69 -479,-208 -108,-138 -162,-341 -162,-608 0,-176 25,-342 74,-496 49,-155 116,-262 202,-323 55,-38 145,-66 270,-85 125,-19 265,-28 421,-28zm-79 1276c93,0 177,-15 253,-45l0 -789c-28,-5 -69,-10 -125,-15 -25,-2 -63,-4 -113,-4 -78,0 -127,8 -147,23 -28,20 -50,76 -66,168 -16,92 -25,188 -25,289 0,138 16,235 47,291 31,55 90,83 175,83zm1302 -362c-5,-206 -23,-624 -53,-1253l-11 -260 612 -34c2,50 4,125 4,223 0,262 -13,571 -38,929 -10,161 -16,264 -19,309 -121,68 -279,103 -476,106l-19 -19zm238 876c-83,0 -152,-27 -206,-81 -54,-54 -81,-128 -81,-221 0,-80 28,-149 85,-204 57,-55 127,-83 209,-83 81,0 148,28 202,83 54,55 81,123 81,204 0,93 -26,167 -79,221 -53,54 -123,81 -211,81zm15308 -4285c0,45 1,93 4,142 2,49 10,80 23,93 18,18 79,26 185,26l128 -4c23,121 34,260 34,419 -48,18 -118,34 -209,49 -92,15 -179,23 -262,23 -174,0 -308,-38 -402,-115 -94,-77 -141,-196 -141,-357l0 -929 -283 0 0 -343 283 -26 170 -415 472 -26 0 442 400 0 0 370 -400 0 0 653zm2329 -1023l0 1736 -525 0 -72 -291c-181,219 -398,328 -649,328 -90,0 -175,-13 -255,-38 -79,-25 -139,-62 -179,-110 -23,-28 -40,-97 -51,-208 -11,-111 -17,-279 -17,-506l0 -913 646 0 0 906c0,50 1,110 4,177 3,68 10,111 23,128 18,25 68,38 151,38l60 -4c70,-2 144,-19 219,-49l0 -1196 645 0zm1385 -38c33,0 67,4 104,11 36,8 64,16 81,26 0,55 -6,147 -19,274 -13,127 -24,217 -34,270 -25,-3 -72,-4 -140,-4 -159,0 -299,9 -423,26l0 1170 -645 0 0 -1736 540 0 75 279 4 0c73,-96 151,-172 234,-230 83,-58 157,-87 223,-87zm2034 147c23,28 40,97 51,208 11,111 17,279 17,506l0 913 -645 0 0 -906 0 -155c0,-80 -6,-131 -19,-151 -20,-25 -67,-38 -140,-38 -35,0 -62,1 -79,4 -70,3 -143,19 -219,49l0 1196 -645 0 0 -1736 525 0 72 291c181,-219 398,-328 649,-328 91,0 176,13 255,38 79,25 139,62 179,109zm1770 1676c-302,0 -528,-71 -678,-213 -150,-142 -224,-367 -224,-674 0,-169 16,-316 47,-443 31,-127 70,-216 115,-266 58,-65 164,-120 319,-162 155,-43 300,-64 436,-64 325,0 556,69 695,208 138,138 208,360 208,664 0,327 -74,568 -223,721 -149,153 -380,230 -694,230zm11 -442c98,0 162,-35 192,-104 30,-69 45,-192 45,-368 0,-123 -6,-218 -19,-285 -13,-67 -36,-116 -70,-147 -34,-31 -86,-47 -157,-47 -101,0 -159,9 -174,26 -20,18 -36,73 -49,166 -13,93 -19,190 -19,291 0,171 17,292 51,362 34,70 100,106 198,106zm3182 -1540c-18,18 -26,72 -26,162l0 34 400 0 0 370 -400 0 0 1366 -646 0 0 -1366 -283 0 -279 0 0 1366 -645 0 0 -1366 -283 0 0 -336 283 -34 0 -57c0,-111 15,-216 45,-317 30,-101 58,-161 83,-181 78,-65 244,-98 498,-98 138,0 293,10 464,30 0,30 -4,91 -13,181 -9,91 -17,167 -25,230l-162 -4c-133,0 -206,6 -219,19 -18,18 -26,72 -26,162l0 34 562 0 0 -57c0,-111 15,-216 45,-317 30,-101 58,-161 83,-181 78,-65 244,-98 498,-98 138,0 293,10 464,30 0,30 -4,91 -13,181 -9,91 -17,167 -25,230l-162 -4c-133,0 -206,6 -219,19zm-12637 4768c0,45 1,93 4,142 2,49 10,80 23,93 18,18 79,26 185,26l128 -4c23,121 34,260 34,419 -48,18 -118,34 -209,49 -92,15 -179,23 -262,23 -174,0 -308,-38 -402,-115 -94,-77 -141,-196 -141,-357l0 -929 -283 0 0 -343 283 -26 170 -415 472 -26 0 442 400 0 0 370 -400 0 0 653zm2272 -913c23,28 40,97 51,208 11,111 17,279 17,506l0 913 -645 0 0 -906c0,-10 0,-60 0,-149 0,-89 -6,-144 -19,-164 -8,-10 -26,-18 -55,-23 -29,-5 -62,-8 -100,-8l-64 4c-70,3 -143,19 -219,49l0 1196 -645 0 0 -2265 645 -26 0 442c0,181 -6,302 -19,362l4 4c171,-194 376,-291 615,-291 91,0 176,13 255,38 79,25 139,62 179,109zm1419 1174c63,0 180,-6 351,-19 23,0 64,-2 125,-7l57 389c-194,91 -445,136 -755,136 -289,0 -512,-73 -666,-219 -155,-146 -232,-366 -232,-661 0,-151 20,-297 59,-438 39,-141 84,-239 134,-294 53,-55 151,-103 294,-143 143,-40 286,-60 426,-60 227,0 396,40 510,121 113,80 187,192 223,334 35,142 53,333 53,572 -171,10 -339,15 -502,15l-536 0c0,80 17,141 51,181 34,40 82,66 145,77 63,11 151,17 264,17zm-423 -868c-15,8 -26,40 -34,98 -8,58 -13,123 -15,196l196 0c118,0 204,-1 257,-4 0,-121 -17,-206 -51,-257 -34,-50 -93,-75 -176,-75 -68,0 -127,14 -177,41zm1804 -944l645 -26 0 2291 -645 0 0 -2265zm1302 313c-86,0 -159,-29 -221,-87 -62,-58 -92,-127 -92,-208 0,-80 31,-150 92,-208 62,-58 135,-87 221,-87 85,0 159,29 219,87 60,58 91,127 91,208 0,80 -30,150 -91,208 -60,58 -133,87 -219,87zm-325 215l645 0 0 1736 -645 0 0 -1736zm1872 -30c118,0 242,8 370,25 128,16 278,38 449,66l0 1502c0,360 -120,639 -359,838 -30,25 -98,47 -204,64 -106,18 -225,26 -359,26 -289,0 -518,-38 -687,-113 -2,-55 2,-128 13,-219 11,-90 23,-162 36,-215 181,28 359,42 532,42 88,0 163,-5 224,-13 62,-9 100,-22 115,-40 20,-20 35,-96 45,-226 2,-35 4,-87 4,-155l0 -94c-63,93 -143,160 -242,200 -98,40 -186,60 -264,60 -211,0 -371,-69 -479,-208 -108,-138 -162,-341 -162,-608 0,-176 25,-342 74,-496 49,-155 116,-262 202,-323 55,-38 145,-66 270,-85 125,-19 265,-28 421,-28zm-79 1276c93,0 177,-15 253,-45l0 -789c-28,-5 -69,-10 -125,-15 -25,-2 -63,-4 -113,-4 -78,0 -127,8 -147,23 -28,20 -50,76 -66,168 -16,92 -25,188 -25,289 0,138 16,235 47,291 31,55 90,83 175,83zm2884 -1136c23,28 40,97 51,208 11,111 17,279 17,506l0 913 -645 0 0 -906c0,-10 0,-60 0,-149 0,-89 -6,-144 -19,-164 -8,-10 -26,-18 -55,-23 -29,-5 -62,-8 -100,-8l-64 4c-70,3 -143,19 -219,49l0 1196 -645 0 0 -2265 645 -26 0 442c0,181 -6,302 -19,362l4 4c171,-194 376,-291 615,-291 91,0 176,13 255,38 79,25 139,62 179,109zm1166 913c0,45 1,93 4,142 2,49 10,80 23,93 18,18 79,26 185,26l128 -4c23,121 34,260 34,419 -48,18 -118,34 -209,49 -92,15 -179,23 -262,23 -174,0 -308,-38 -402,-115 -94,-77 -141,-196 -141,-357l0 -929 -283 0 0 -343 283 -26 170 -415 472 -26 0 442 400 0 0 370 -400 0 0 653zm1997 125c0,224 -71,385 -213,483 -142,98 -344,147 -606,147 -184,0 -395,-26 -634,-79 5,-50 17,-123 36,-217 19,-94 35,-167 47,-217 91,15 191,27 302,36 111,9 205,13 283,13 68,0 110,-4 125,-11 3,-2 6,-9 10,-21 4,-11 6,-23 6,-36 0,-50 -31,-84 -94,-102 -20,-5 -97,-26 -230,-64 -133,-38 -242,-106 -326,-206 -84,-99 -126,-223 -126,-372 0,-78 18,-165 53,-260 35,-96 73,-156 113,-181 30,-20 103,-41 219,-62 116,-21 223,-32 321,-32 209,0 419,15 630,45 0,45 -6,121 -19,228 -13,107 -24,174 -34,202 -214,-28 -386,-41 -517,-41 -68,0 -112,4 -132,11 -5,2 -10,9 -15,21 -5,11 -8,26 -8,43 0,35 11,60 34,75 23,18 82,39 177,64 113,33 211,67 293,102 82,35 154,88 215,159 62,70 92,161 92,272zm313 -264c-5,-206 -23,-624 -53,-1253l-11 -260 612 -34c2,50 4,125 4,223 0,262 -13,571 -38,929 -10,161 -16,264 -19,309 -121,68 -279,103 -476,106l-19 -19zm238 876c-83,0 -152,-27 -206,-81 -54,-54 -81,-128 -81,-221 0,-80 28,-149 85,-204 57,-55 127,-83 209,-83 81,0 148,28 202,83 54,55 81,123 81,204 0,93 -26,167 -79,221 -53,54 -123,81 -211,81zm19275 -5198c23,28 40,97 51,208 11,111 17,279 17,506l0 913 -645 0 0 -906c0,-10 0,-60 0,-149 0,-89 -6,-144 -19,-164 -8,-10 -26,-18 -55,-23 -29,-5 -62,-8 -100,-8l-64 4c-70,3 -143,19 -219,49l0 1196 -645 0 0 -2265 645 -26 0 442c0,181 -6,302 -19,362l4 4c171,-194 376,-291 615,-291 91,0 176,13 255,38 79,25 139,62 179,109zm1204 1676c-302,0 -528,-71 -678,-213 -150,-142 -224,-367 -224,-674 0,-169 16,-316 47,-443 31,-127 70,-216 115,-266 58,-65 164,-120 319,-162 155,-43 300,-64 436,-64 325,0 556,69 695,208 138,138 208,360 208,664 0,327 -74,568 -223,721 -149,153 -380,230 -694,230zm11 -442c98,0 162,-35 192,-104 30,-69 45,-192 45,-368 0,-123 -6,-218 -19,-285 -13,-67 -36,-116 -70,-147 -34,-31 -86,-47 -157,-47 -101,0 -159,9 -174,26 -20,18 -36,73 -49,166 -13,93 -19,190 -19,291 0,171 17,292 51,362 34,70 100,106 198,106zm1034 -1083c60,-186 93,-454 98,-804 18,-2 45,-4 83,-4 65,0 130,9 193,26 63,18 117,44 162,79 -13,126 -38,265 -76,419 -38,154 -92,273 -162,359 -48,2 -100,-4 -157,-19 -57,-15 -104,-34 -142,-57zm2208 887c0,224 -71,385 -213,483 -142,98 -344,147 -606,147 -184,0 -395,-26 -634,-79 5,-50 17,-123 36,-217 19,-94 35,-167 47,-217 91,15 191,27 302,36 111,9 205,13 283,13 68,0 110,-4 125,-11 3,-2 6,-9 10,-21 4,-11 6,-23 6,-36 0,-50 -31,-84 -94,-102 -20,-5 -97,-26 -230,-64 -133,-38 -242,-106 -326,-206 -84,-99 -126,-223 -126,-372 0,-78 18,-165 53,-260 35,-96 73,-156 113,-181 30,-20 103,-41 219,-62 116,-21 223,-32 321,-32 209,0 419,15 630,45 0,45 -6,121 -19,228 -13,107 -24,174 -34,202 -214,-28 -386,-41 -517,-41 -68,0 -112,4 -132,11 -5,2 -10,9 -15,21 -5,11 -8,26 -8,43 0,35 11,60 34,75 23,18 82,39 177,64 113,33 211,67 293,102 82,35 154,88 215,159 62,70 92,161 92,272zm-8515 3424c0,45 1,93 4,142 2,49 10,80 23,93 18,18 79,26 185,26l128 -4c23,121 34,260 34,419 -48,18 -118,34 -209,49 -92,15 -179,23 -262,23 -174,0 -308,-38 -402,-115 -94,-77 -141,-196 -141,-357l0 -929 -283 0 0 -343 283 -26 170 -415 472 -26 0 442 400 0 0 370 -400 0 0 653zm2272 -913c23,28 40,97 51,208 11,111 17,279 17,506l0 913 -645 0 0 -906c0,-10 0,-60 0,-149 0,-89 -6,-144 -19,-164 -8,-10 -26,-18 -55,-23 -29,-5 -62,-8 -100,-8l-64 4c-70,3 -143,19 -219,49l0 1196 -645 0 0 -2265 645 -26 0 442c0,181 -6,302 -19,362l4 4c171,-194 376,-291 615,-291 91,0 176,13 255,38 79,25 139,62 179,109zm1419 1174c63,0 180,-6 351,-19 23,0 64,-2 125,-7l57 389c-194,91 -445,136 -755,136 -289,0 -512,-73 -666,-219 -155,-146 -232,-366 -232,-661 0,-151 20,-297 59,-438 39,-141 84,-239 134,-294 53,-55 151,-103 294,-143 143,-40 286,-60 426,-60 227,0 396,40 510,121 113,80 187,192 223,334 35,142 53,333 53,572 -171,10 -339,15 -502,15l-536 0c0,80 17,141 51,181 34,40 82,66 145,77 63,11 151,17 264,17zm-423 -868c-15,8 -26,40 -34,98 -8,58 -13,123 -15,196l196 0c118,0 204,-1 257,-4 0,-121 -17,-206 -51,-257 -34,-50 -93,-75 -176,-75 -68,0 -127,14 -177,41zm2302 -453c33,0 67,4 104,11 36,8 64,16 81,26 0,55 -6,147 -19,274 -13,127 -24,217 -34,270 -25,-3 -72,-4 -140,-4 -159,0 -299,9 -423,26l0 1170 -645 0 0 -1736 540 0 75 279 4 0c73,-96 151,-172 234,-230 83,-58 157,-87 223,-87zm1408 1321c63,0 180,-6 351,-19 23,0 64,-2 125,-7l57 389c-194,91 -445,136 -755,136 -289,0 -512,-73 -666,-219 -155,-146 -232,-366 -232,-661 0,-151 20,-297 59,-438 39,-141 84,-239 134,-294 53,-55 151,-103 294,-143 143,-40 286,-60 426,-60 227,0 396,40 510,121 113,80 187,192 223,334 35,142 53,333 53,572 -171,10 -339,15 -502,15l-536 0c0,80 17,141 51,181 34,40 82,66 145,77 63,11 151,17 264,17zm-423 -868c-15,8 -26,40 -34,98 -8,58 -13,123 -15,196l196 0c118,0 204,-1 257,-4 0,-121 -17,-206 -51,-257 -34,-50 -93,-75 -176,-75 -68,0 -127,14 -177,41zm1782 563c-189,-3 -356,-38 -502,-106 0,-113 -6,-241 -17,-383 -11,-142 -31,-276 -59,-402l30 -15c139,28 268,42 389,42 98,0 176,-10 234,-28 58,-19 87,-47 87,-85 0,-38 -33,-65 -100,-83 -67,-18 -154,-26 -262,-26 -63,0 -155,5 -276,15l-83 -461c58,-55 115,-92 172,-111 57,-19 118,-28 183,-28 154,0 285,35 394,106 110,70 192,162 247,275 55,113 83,232 83,355 0,191 -43,342 -130,451 -87,110 -212,175 -376,198l4 268 -19 19zm-230 781c-88,0 -159,-27 -211,-81 -53,-54 -79,-128 -79,-221 0,-80 27,-149 81,-204 54,-55 121,-83 202,-83 83,0 153,28 209,83 57,55 85,123 85,204 0,93 -27,167 -81,221 -54,54 -123,81 -206,81z"/>
 </g>
</svg>
