<?xml version="1.0" encoding="UTF-8"?>
<!DOCTYPE svg PUBLIC "-//W3C//DTD SVG 1.1//EN" "http://www.w3.org/Graphics/SVG/1.1/DTD/svg11.dtd">
<!-- Creator: CorelDRAW X6 -->
<svg xmlns="http://www.w3.org/2000/svg" xml:space="preserve" width="24000px" height="18934px" version="1.1" style="shape-rendering:geometricPrecision; text-rendering:geometricPrecision; image-rendering:optimizeQuality; fill-rule:evenodd; clip-rule:evenodd"
viewBox="0 0 23952 18891"
 xmlns:xlink="http://www.w3.org/1999/xlink">
 <defs>
  <style type="text/css">
   <![CDATA[
    .fil1 {fill:#FFFFCC}
    .fil0 {fill:#81C7E5}
   ]]>
  </style>
 </defs>
 <g id="stars">
  <metadata id="CorelCorpID_0Corel-Layer"/>
  <path id="stars_0" class="fil0" d="M21626 15303c42,0 76,34 76,76 0,42 -34,76 -76,76 -18,0 -34,-6 -47,-16 -10,15 -27,25 -46,25 -30,0 -54,-24 -54,-54 0,-30 24,-54 54,-54 7,0 14,1 20,4 9,-32 38,-56 73,-56zm-19300 -11716c-42,0 -76,-34 -76,-76 0,-42 34,-76 76,-76 18,0 34,6 47,16 10,-15 27,-25 46,-25 30,0 54,24 54,54 0,30 -24,54 -54,54 -7,0 -14,-1 -20,-4 -9,32 -38,56 -73,56zm14796 3265c8,-10 23,-12 33,-3 10,8 12,23 3,33 -8,10 -23,12 -33,3 -10,-8 -11,-23 -3,-33zm-222 -249c16,-19 43,-22 62,-6 19,16 22,43 6,62 -16,19 -43,22 -62,6 -19,-16 -22,-43 -6,-62zm6512 272c13,-16 37,-19 53,-5 16,13 19,37 5,53 -13,16 -37,18 -53,5 -16,-13 -19,-37 -5,-53zm389 -45c8,-10 23,-12 33,-3 10,8 11,23 3,33 -8,10 -23,12 -33,3 -10,-8 -12,-23 -3,-33zm-1401 206c16,-20 45,-22 65,-6 20,16 22,45 6,65 -16,20 -45,22 -65,6 -20,-16 -22,-45 -6,-65zm1275 63c8,-10 23,-12 33,-3 10,8 12,23 3,33 -8,10 -23,12 -33,3 -10,-8 -12,-23 -3,-33zm-3430 -93c13,-16 37,-19 53,-5 16,13 18,37 5,53 -13,16 -37,19 -53,5 -16,-13 -18,-37 -5,-53zm224 -550c8,-10 23,-12 33,-3 10,8 12,23 3,33 -8,10 -23,11 -33,3 -10,-8 -12,-23 -3,-33zm352 223c19,-23 53,-26 76,-7 23,19 26,53 7,76 -19,23 -53,26 -76,7 -23,-19 -26,-53 -7,-76zm1232 309c8,-10 23,-12 33,-3 10,8 12,23 3,33 -8,10 -23,12 -33,3 -10,-8 -12,-23 -3,-33zm-747 149c-21,0 -38,-17 -38,-38 0,-21 17,-38 38,-38 21,0 38,17 38,38 0,21 -17,38 -38,38zm-2205 -142c-42,0 -76,-34 -76,-76 0,-42 34,-76 76,-76 42,0 76,34 76,76 0,42 -34,76 -76,76zm4301 1975c8,-10 23,-12 33,-3 10,8 12,23 3,33 -8,10 -23,12 -33,3 -10,-8 -11,-23 -3,-33zm-426 41c16,-19 43,-22 62,-6 19,16 22,43 6,62 -16,19 -43,22 -62,6 -19,-16 -22,-43 -6,-62zm-68 382c-21,0 -38,-17 -38,-38 0,-21 17,-38 38,-38 21,0 38,17 38,38 0,21 -17,38 -38,38zm-1420 -356c13,-16 37,-19 53,-5 16,13 19,37 5,53 -13,16 -37,18 -53,5 -16,-13 -19,-37 -5,-53zm403 170c8,-10 23,-12 33,-3 10,8 12,23 3,33 -8,10 -23,11 -33,3 -10,-8 -12,-23 -3,-33zm-996 306c13,-16 37,-19 53,-5 16,13 18,37 5,53 -13,16 -37,19 -53,5 -16,-13 -18,-37 -5,-53zm415 217c8,-10 23,-11 33,-3 10,8 12,23 3,33 -8,10 -23,12 -33,3 -10,-8 -12,-23 -3,-33zm2374 -1530c13,-16 37,-19 53,-5 16,13 18,37 5,53 -13,16 -37,18 -53,5 -16,-13 -18,-37 -5,-53zm-1462 -289c8,-10 23,-12 33,-3 10,8 11,23 3,33 -8,10 -23,12 -33,3 -10,-8 -12,-23 -3,-33zm1275 18c13,-16 37,-19 53,-5 16,13 18,37 5,53 -13,16 -37,18 -53,5 -16,-13 -18,-37 -5,-53zm306 769c8,-10 23,-12 33,-3 10,8 11,23 3,33 -8,10 -23,12 -33,3 -10,-8 -12,-23 -3,-33zm-677 -254c16,-19 43,-22 62,-6 19,16 22,43 6,62 -16,19 -43,22 -62,6 -19,-16 -22,-43 -6,-62zm427 751c-21,0 -38,-17 -38,-38 0,-21 17,-38 38,-38 21,0 38,17 38,38 0,21 -17,38 -38,38zm-2784 -1120c8,-10 23,-11 33,-3 10,8 11,23 3,33 -8,10 -23,12 -33,3 -10,-8 -12,-23 -3,-33zm24 -377c9,-12 27,-13 38,-4 12,9 13,27 4,38 -9,12 -27,13 -38,4 -12,-9 -13,-27 -4,-38zm366 1578c8,-10 23,-12 33,-3 10,8 12,23 3,33 -8,10 -23,11 -33,3 -10,-8 -11,-23 -3,-33zm932 -756c-21,0 -38,-17 -38,-38 0,-21 17,-38 38,-38 21,0 38,17 38,38 0,21 -17,38 -38,38zm614 83c-30,0 -54,-24 -54,-54 0,-30 24,-54 54,-54 30,0 54,24 54,54 0,30 -24,54 -54,54zm-2831 282c8,-10 23,-12 33,-3 10,8 12,23 3,33 -8,10 -23,11 -33,3 -10,-8 -12,-23 -3,-33zm-633 -463c16,-19 43,-22 62,-6 19,16 22,43 6,62 -16,19 -43,22 -62,6 -19,-16 -22,-43 -6,-62zm139 887c-21,0 -38,-17 -38,-38 0,-21 17,-38 38,-38 21,0 38,17 38,38 0,21 -17,38 -38,38zm-1420 -356c13,-16 37,-19 53,-5 16,13 19,37 5,53 -13,16 -37,19 -53,5 -16,-13 -19,-37 -5,-53zm403 170c8,-10 23,-12 33,-3 10,8 11,23 3,33 -8,10 -23,12 -33,3 -10,-8 -12,-23 -3,-33zm-996 306c13,-16 37,-19 53,-5 16,13 19,37 5,53 -13,16 -37,19 -53,5 -16,-13 -19,-37 -5,-53zm415 217c8,-10 23,-12 33,-3 10,8 11,23 3,33 -8,10 -23,12 -33,3 -10,-8 -12,-23 -3,-33zm3357 -1138c13,-16 37,-19 53,-5 16,13 18,37 5,53 -13,16 -37,18 -53,5 -16,-13 -18,-37 -5,-53zm-2764 -1138c8,-10 23,-12 33,-3 10,8 12,23 3,33 -8,10 -23,12 -33,3 -10,-8 -12,-23 -3,-33zm1594 475c13,-16 37,-19 53,-5 16,13 19,37 5,53 -13,16 -37,19 -53,5 -16,-13 -19,-37 -5,-53zm306 769c8,-10 23,-11 33,-3 10,8 12,23 3,33 -8,10 -23,12 -33,3 -10,-8 -11,-23 -3,-33zm-426 41c16,-19 43,-22 62,-6 19,16 22,43 6,62 -16,19 -43,22 -62,6 -19,-16 -22,-43 -6,-62zm175 455c-21,0 -38,-17 -38,-38 0,-21 17,-38 38,-38 21,0 38,17 38,38 0,21 -17,38 -38,38zm-4041 -2272c13,-16 37,-19 53,-5 16,13 19,37 5,53 -13,16 -37,19 -53,5 -16,-13 -19,-37 -5,-53zm389 -45c8,-10 23,-11 33,-3 10,8 11,23 3,33 -8,10 -23,11 -33,3 -10,-8 -11,-23 -3,-33zm-127 270c8,-10 23,-12 33,-3 10,8 12,23 3,33 -8,10 -23,12 -33,3 -10,-8 -12,-23 -3,-33zm-812 1014c-17,0 -30,-13 -30,-30 0,-17 13,-30 30,-30 17,0 30,13 30,30 0,17 -13,30 -30,30zm-65 394c13,-16 37,-19 53,-5 16,13 19,37 5,53 -13,16 -37,19 -53,5 -16,-13 -19,-37 -5,-53zm350 -161c8,-10 23,-12 33,-3 10,8 12,23 3,33 -8,10 -23,11 -33,3 -10,-8 -11,-23 -3,-33zm-114 437c13,-16 37,-19 53,-5 16,13 19,37 5,53 -13,16 -37,19 -53,5 -16,-13 -19,-37 -5,-53zm799 1037c8,-10 23,-12 33,-3 10,8 12,23 3,33 -8,10 -23,12 -33,3 -10,-8 -12,-23 -3,-33zm-119 -311c-21,0 -38,-17 -38,-38 0,-21 17,-38 38,-38 21,0 38,17 38,38 0,21 -17,38 -38,38zm163 -328c-30,0 -54,-24 -54,-54 0,-30 24,-54 54,-54 30,0 54,24 54,54 0,30 -24,54 -54,54zm444 -994c13,-16 37,-19 53,-5 16,13 19,37 5,53 -13,16 -37,19 -53,5 -16,-13 -19,-37 -5,-53zm350 -161c8,-10 23,-12 33,-3 10,8 12,23 3,33 -8,10 -23,11 -33,3 -10,-8 -11,-23 -3,-33zm24 -377c9,-12 27,-13 38,-4 12,9 13,27 4,38 -9,12 -27,13 -38,4 -12,-9 -13,-27 -4,-38zm-138 814c13,-16 37,-19 53,-5 16,13 19,37 5,53 -13,16 -37,19 -53,5 -16,-13 -19,-37 -5,-53zm504 763c8,-10 23,-12 33,-3 10,8 12,23 3,33 -8,10 -23,12 -33,3 -10,-8 -12,-23 -3,-33zm-1374 -952c16,-19 43,-22 62,-6 19,16 22,43 6,62 -16,19 -43,22 -62,6 -19,-16 -22,-43 -6,-62zm2307 196c-21,0 -38,-17 -38,-38 0,-21 17,-38 38,-38 21,0 38,17 38,38 0,21 -17,38 -38,38zm163 -328c-30,0 -54,-24 -54,-54 0,-30 24,-54 54,-54 30,0 54,24 54,54 0,30 -24,54 -54,54zm-2792 -315c13,-16 37,-19 53,-5 16,13 19,37 5,53 -13,16 -37,18 -53,5 -16,-13 -19,-37 -5,-53zm-7838 -1088c8,-10 23,-12 33,-3 10,8 11,23 3,33 -8,10 -23,11 -33,3 -10,-8 -12,-23 -3,-33zm-222 -249c16,-19 43,-22 62,-6 19,16 22,43 6,62 -16,19 -43,22 -62,6 -19,-16 -22,-43 -6,-62zm6512 272c13,-16 37,-19 53,-5 16,13 18,37 5,53 -13,16 -37,19 -53,5 -16,-13 -18,-37 -5,-53zm389 -45c8,-10 23,-12 33,-3 10,8 12,23 3,33 -8,10 -23,12 -33,3 -10,-8 -12,-23 -3,-33zm-1401 206c16,-20 45,-22 65,-6 20,16 22,45 6,65 -16,20 -45,22 -65,6 -20,-16 -22,-45 -6,-65zm1275 63c8,-10 23,-11 33,-3 10,8 11,23 3,33 -8,10 -23,12 -33,3 -10,-8 -11,-23 -3,-33zm-3430 -93c13,-16 37,-19 53,-5 16,13 19,37 5,53 -13,16 -37,18 -53,5 -16,-13 -19,-37 -5,-53zm224 -550c8,-10 23,-12 33,-3 10,8 12,23 3,33 -8,10 -23,12 -33,3 -10,-8 -12,-23 -3,-33zm352 223c19,-23 53,-26 76,-7 23,19 26,53 7,76 -19,23 -53,26 -76,7 -23,-19 -26,-53 -7,-76zm1232 309c8,-10 23,-12 33,-3 10,8 11,23 3,33 -8,10 -23,12 -33,3 -10,-8 -12,-23 -3,-33zm-747 149c-21,0 -38,-17 -38,-38 0,-21 17,-38 38,-38 21,0 38,17 38,38 0,21 -17,38 -38,38zm-2205 -142c-42,0 -76,-34 -76,-76 0,-42 34,-76 76,-76 42,0 76,34 76,76 0,42 -34,76 -76,76zm4301 1975c8,-10 23,-12 33,-3 10,8 12,23 3,33 -8,10 -23,12 -33,3 -10,-8 -12,-23 -3,-33zm-426 41c16,-19 43,-22 62,-6 19,16 22,43 6,62 -16,19 -43,22 -62,6 -19,-16 -22,-43 -6,-62zm-68 382c-21,0 -38,-17 -38,-38 0,-21 17,-38 38,-38 21,0 38,17 38,38 0,21 -17,38 -38,38zm-1420 -356c13,-16 37,-19 53,-5 16,13 18,37 5,53 -13,16 -37,19 -53,5 -16,-13 -19,-37 -5,-53zm403 170c8,-10 23,-12 33,-3 10,8 12,23 3,33 -8,10 -23,12 -33,3 -10,-8 -11,-23 -3,-33zm-996 306c13,-16 37,-19 53,-5 16,13 19,37 5,53 -13,16 -37,18 -53,5 -16,-13 -19,-37 -5,-53zm415 217c8,-10 23,-12 33,-3 10,8 12,23 3,33 -8,10 -23,12 -33,3 -10,-8 -11,-23 -3,-33zm2374 -1530c13,-16 37,-19 53,-5 16,13 19,37 5,53 -13,16 -37,19 -53,5 -16,-13 -19,-37 -5,-53zm-1462 -289c8,-10 23,-11 33,-3 10,8 12,23 3,33 -8,10 -23,12 -33,3 -10,-8 -12,-23 -3,-33zm1275 18c13,-16 37,-19 53,-5 16,13 19,37 5,53 -13,16 -37,19 -53,5 -16,-13 -19,-37 -5,-53zm306 769c8,-10 23,-12 33,-3 10,8 12,23 3,33 -8,10 -23,11 -33,3 -10,-8 -12,-23 -3,-33zm-677 -254c16,-19 43,-22 62,-6 19,16 22,43 6,62 -16,19 -43,22 -62,6 -19,-16 -22,-43 -6,-62zm427 751c-21,0 -38,-17 -38,-38 0,-21 17,-38 38,-38 21,0 38,17 38,38 0,21 -17,38 -38,38zm-2784 -1120c8,-10 23,-12 33,-3 10,8 12,23 3,33 -8,10 -23,12 -33,3 -10,-8 -12,-23 -3,-33zm24 -377c9,-12 27,-13 38,-4 12,9 13,27 4,38 -9,12 -27,13 -38,4 -12,-9 -13,-27 -4,-38zm366 1578c8,-10 23,-11 33,-3 10,8 11,23 3,33 -8,10 -23,12 -33,3 -10,-8 -12,-23 -3,-33zm932 -756c-21,0 -38,-17 -38,-38 0,-21 17,-38 38,-38 21,0 38,17 38,38 0,21 -17,38 -38,38zm614 82c-30,0 -54,-24 -54,-54 0,-30 24,-54 54,-54 30,0 54,24 54,54 0,30 -24,54 -54,54zm-10793 -598c13,-16 37,-19 53,-5 16,13 19,37 5,53 -13,16 -37,19 -53,5 -16,-13 -19,-37 -5,-53zm389 -45c8,-10 23,-11 33,-3 10,8 11,23 3,33 -8,10 -23,12 -33,3 -10,-8 -12,-23 -3,-33zm-127 270c8,-10 23,-12 33,-3 10,8 12,23 3,33 -8,10 -23,12 -33,3 -10,-8 -12,-23 -3,-33zm-1170 115c-30,0 -54,-24 -54,-54 0,-30 24,-54 54,-54 30,0 54,24 54,54 0,30 -24,54 -54,54zm3475 1468c8,-10 23,-12 33,-3 10,8 11,23 3,33 -8,10 -23,12 -33,3 -10,-8 -12,-23 -3,-33zm-124 -472c13,-16 37,-19 53,-5 16,13 19,37 5,53 -13,16 -37,18 -53,5 -16,-13 -19,-37 -5,-53zm405 322c8,-10 23,-12 33,-3 10,8 12,23 3,33 -8,10 -23,11 -33,3 -10,-8 -12,-23 -3,-33zm-5067 -2381c8,-10 23,-11 33,-3 10,8 12,23 3,33 -8,10 -23,11 -33,3 -10,-8 -11,-23 -3,-33zm-222 -249c16,-19 43,-22 62,-6 19,16 22,43 6,62 -16,19 -43,22 -62,6 -19,-16 -22,-43 -6,-62zm107 735c-21,0 -38,-17 -38,-38 0,-21 17,-38 38,-38 21,0 38,17 38,38 0,21 -17,38 -38,38zm10296 1119c8,-10 23,-12 33,-3 10,8 12,23 3,33 -8,10 -23,12 -33,3 -10,-8 -11,-23 -3,-33zm-633 -463c16,-19 43,-22 62,-6 19,16 22,43 6,62 -16,19 -43,22 -62,6 -19,-16 -22,-43 -6,-62zm139 887c-21,0 -38,-17 -38,-38 0,-21 17,-38 38,-38 21,0 38,17 38,38 0,21 -17,38 -38,38zm-1420 -356c13,-16 37,-19 53,-5 16,13 19,37 5,53 -13,16 -37,18 -53,5 -16,-13 -19,-37 -5,-53zm403 170c8,-10 23,-11 33,-3 10,8 12,23 3,33 -8,10 -23,11 -33,3 -10,-8 -12,-23 -3,-33zm-996 306c13,-16 37,-19 53,-5 16,13 19,37 5,53 -13,16 -37,19 -53,5 -16,-13 -19,-37 -5,-53zm415 217c8,-10 23,-11 33,-3 10,8 12,23 3,33 -8,10 -23,12 -33,3 -10,-8 -12,-23 -3,-33zm-5400 -58c-21,0 -38,-17 -38,-38 0,-21 17,-38 38,-38 21,0 38,17 38,38 0,21 -17,38 -38,38zm-498 -182c-30,0 -54,-24 -54,-54 0,-30 24,-54 54,-54 30,0 54,24 54,54 0,30 -24,54 -54,54zm-1216 -899c8,-10 23,-12 33,-3 10,8 12,23 3,33 -8,10 -23,12 -33,3 -10,-8 -12,-23 -3,-33zm62 388c8,-10 23,-12 33,-3 10,8 12,23 3,33 -8,10 -23,12 -33,3 -10,-8 -11,-23 -3,-33zm627 172c-21,0 -38,-17 -38,-38 0,-21 17,-38 38,-38 21,0 38,17 38,38 0,21 -17,38 -38,38zm92 1128c-30,0 -54,-24 -54,-54 0,-30 24,-54 54,-54 30,0 54,24 54,54 0,30 -24,54 -54,54zm-2295 -1873c8,-10 23,-11 33,-3 10,8 12,23 3,33 -8,10 -23,12 -33,3 -10,-8 -12,-23 -3,-33zm540 617c16,-20 45,-22 65,-6 20,16 22,45 6,65 -16,20 -45,22 -65,6 -20,-16 -22,-45 -6,-65zm-233 374c13,-16 37,-19 53,-5 16,13 19,37 5,53 -13,16 -37,19 -53,5 -16,-13 -19,-37 -5,-53zm-168 -503c8,-10 23,-11 33,-3 10,8 12,23 3,33 -8,10 -23,12 -33,3 -10,-8 -11,-23 -3,-33zm-250 371c19,-23 53,-26 76,-7 23,19 26,53 7,76 -19,23 -53,26 -76,7 -23,-19 -26,-53 -7,-76zm12095 -673c13,-16 37,-19 53,-5 16,13 19,37 5,53 -13,16 -37,19 -53,5 -16,-13 -19,-37 -5,-53zm-2764 -1138c8,-10 23,-12 33,-3 10,8 12,23 3,33 -8,10 -23,11 -33,3 -10,-8 -11,-23 -3,-33zm1594 475c13,-16 37,-19 53,-5 16,13 18,37 5,53 -13,16 -37,19 -53,5 -16,-13 -18,-37 -5,-53zm306 769c8,-10 23,-12 33,-3 10,8 11,23 3,33 -8,10 -23,12 -33,3 -10,-8 -12,-23 -3,-33zm-426 41c16,-19 43,-22 62,-6 19,16 22,43 6,62 -16,19 -43,22 -62,6 -19,-16 -22,-43 -6,-62zm175 455c-21,0 -38,-17 -38,-38 0,-21 17,-38 38,-38 21,0 38,17 38,38 0,21 -17,38 -38,38zm-5767 -1046c13,-16 37,-19 53,-5 16,13 18,37 5,53 -13,16 -37,19 -53,5 -16,-13 -18,-37 -5,-53zm839 1638c8,-10 23,-12 33,-3 10,8 11,23 3,33 -8,10 -23,12 -33,3 -10,-8 -11,-23 -3,-33zm887 -2865c13,-16 37,-19 53,-5 16,13 18,37 5,53 -13,16 -37,18 -53,5 -16,-13 -18,-37 -5,-53zm389 -45c8,-10 23,-12 33,-3 10,8 12,23 3,33 -8,10 -23,12 -33,3 -10,-8 -12,-23 -3,-33zm-1401 672c16,-20 45,-22 65,-6 20,16 22,45 6,65 -16,20 -45,22 -65,6 -20,-16 -22,-45 -6,-65zm1275 -402c8,-10 23,-12 33,-3 10,8 12,23 3,33 -8,10 -23,11 -33,3 -10,-8 -11,-23 -3,-33zm-812 1014c-17,0 -30,-13 -30,-30 0,-17 13,-30 30,-30 17,0 30,13 30,30 0,17 -13,30 -30,30zm-65 394c13,-16 37,-19 53,-5 16,13 19,37 5,53 -13,16 -37,18 -53,5 -16,-13 -19,-37 -5,-53zm350 -161c8,-10 23,-12 33,-3 10,8 12,23 3,33 -8,10 -23,12 -33,3 -10,-8 -12,-23 -3,-33zm-114 437c13,-16 37,-19 53,-5 16,13 19,37 5,53 -13,16 -37,19 -53,5 -16,-13 -19,-37 -5,-53zm799 1037c8,-10 23,-12 33,-3 10,8 11,23 3,33 -8,10 -23,12 -33,3 -10,-8 -12,-23 -3,-33zm-119 -311c-21,0 -38,-17 -38,-38 0,-21 17,-38 38,-38 21,0 38,17 38,38 0,21 -17,38 -38,38zm163 -328c-30,0 -54,-24 -54,-54 0,-30 24,-54 54,-54 30,0 54,24 54,54 0,30 -24,54 -54,54zm444 -994c13,-16 37,-19 53,-5 16,13 18,37 5,53 -13,16 -37,18 -53,5 -16,-13 -18,-37 -5,-53zm350 -161c8,-10 23,-11 33,-3 10,8 11,23 3,33 -8,10 -23,12 -33,3 -10,-8 -12,-23 -3,-33zm24 -377c9,-12 27,-13 38,-4 12,10 13,27 4,38 -9,12 -27,13 -38,4 -12,-9 -13,-27 -4,-38zm-138 814c13,-16 37,-19 53,-5 16,13 19,37 5,53 -13,16 -37,19 -53,5 -16,-13 -19,-37 -5,-53zm504 763c8,-10 23,-12 33,-3 10,8 12,23 3,33 -8,10 -23,11 -33,3 -10,-8 -11,-23 -3,-33zm-1375 -952c16,-19 43,-22 62,-6 19,16 22,43 6,62 -16,19 -43,22 -62,6 -19,-16 -22,-43 -6,-62zm2307 196c-21,0 -38,-17 -38,-38 0,-21 17,-38 38,-38 21,0 38,17 38,38 0,21 -17,38 -38,38zm163 -328c-30,0 -54,-24 -54,-54 0,-30 24,-54 54,-54 30,0 54,24 54,54 0,30 -24,54 -54,54zm-5910 -671c13,-16 37,-19 53,-5 16,13 18,37 5,53 -13,16 -37,19 -53,5 -16,-13 -18,-37 -5,-53zm224 -550c8,-10 23,-12 33,-3 10,8 12,23 3,33 -8,10 -23,12 -33,3 -10,-8 -12,-23 -3,-33zm352 223c19,-23 53,-26 76,-7 23,19 26,53 7,76 -19,23 -53,26 -76,7 -23,-19 -26,-53 -7,-76zm2543 684c13,-16 37,-19 53,-5 16,13 18,37 5,53 -13,16 -37,19 -53,5 -16,-13 -18,-37 -5,-53zm-1311 -375c8,-10 23,-12 33,-3 10,8 12,23 3,33 -8,10 -23,12 -33,3 -10,-8 -12,-23 -3,-33zm-435 1360c19,-23 53,-26 76,-7 23,19 26,53 7,76 -19,23 -53,26 -76,7 -23,-19 -26,-53 -7,-76zm-1289 -146c13,-16 37,-19 53,-5 16,13 19,37 5,53 -13,16 -37,19 -53,5 -16,-13 -19,-37 -5,-53zm113 -248c8,-10 23,-12 33,-3 10,8 11,23 3,33 -8,10 -23,12 -33,3 -10,-8 -12,-23 -3,-33zm154 945c19,-23 53,-26 76,-7 23,19 26,53 7,76 -19,23 -53,26 -76,7 -23,-19 -26,-53 -7,-76zm711 -1761c-21,0 -38,-17 -38,-38 0,-21 17,-38 38,-38 21,0 38,17 38,38 0,21 -17,38 -38,38zm-488 146c-42,0 -76,-34 -76,-76 0,-42 34,-76 76,-76 42,0 76,34 76,76 0,42 -34,76 -76,76zm1359 1568c-30,0 -54,-24 -54,-54 0,-30 24,-54 54,-54 30,0 54,24 54,54 0,30 -24,54 -54,54zm-3532 -1411c-21,0 -38,-17 -38,-38 0,-21 17,-38 38,-38 21,0 38,17 38,38 0,21 -17,38 -38,38zm70 -733c-42,0 -76,-34 -76,-76 0,-42 34,-76 76,-76 42,0 76,34 76,76 0,42 -34,76 -76,76zm14868 -6652c8,-10 23,-12 33,-3 10,8 12,23 3,33 -8,10 -23,12 -33,3 -10,-8 -11,-23 -3,-33zm-222 -249c16,-19 43,-22 62,-6 19,16 22,43 6,62 -16,19 -43,22 -62,6 -19,-16 -22,-43 -6,-62zm6512 272c13,-16 37,-19 53,-5 16,13 19,37 5,53 -13,16 -37,18 -53,5 -16,-13 -19,-37 -5,-53zm389 -45c8,-10 23,-12 33,-3 10,8 11,23 3,33 -8,10 -23,12 -33,3 -10,-8 -12,-23 -3,-33zm-1401 206c16,-20 45,-22 65,-6 20,16 22,45 6,65 -16,20 -45,22 -65,6 -20,-16 -22,-45 -6,-65zm1275 63c8,-10 23,-11 33,-3 10,8 12,23 3,33 -8,10 -23,11 -33,3 -10,-8 -12,-23 -3,-33zm-3430 -93c13,-16 37,-19 53,-5 16,13 18,37 5,53 -13,16 -37,18 -53,5 -16,-13 -18,-37 -5,-53zm1808 -18c8,-10 23,-12 33,-3 10,8 12,23 3,33 -8,10 -23,12 -33,3 -10,-8 -12,-23 -3,-33zm-747 149c-21,0 -38,-17 -38,-38 0,-21 17,-38 38,-38 21,0 38,17 38,38 0,21 -17,38 -38,38zm-2205 -142c-42,0 -76,-34 -76,-76 0,-42 34,-76 76,-76 42,0 76,34 76,76 0,42 -34,76 -76,76zm4301 1975c8,-10 23,-12 33,-3 10,8 12,23 3,33 -8,10 -23,12 -33,3 -10,-8 -11,-23 -3,-33zm-426 41c16,-19 43,-22 62,-6 19,16 22,43 6,62 -16,19 -43,22 -62,6 -19,-16 -22,-43 -6,-62zm-68 382c-21,0 -38,-17 -38,-38 0,-21 17,-38 38,-38 21,0 38,17 38,38 0,21 -17,38 -38,38zm-1420 -356c13,-16 37,-19 53,-5 16,13 19,37 5,53 -13,16 -37,19 -53,5 -16,-13 -19,-37 -5,-53zm403 170c8,-10 23,-11 33,-3 10,8 12,23 3,33 -8,10 -23,12 -33,3 -10,-8 -12,-23 -3,-33zm-996 306c13,-16 37,-19 53,-5 16,13 18,37 5,53 -13,16 -37,18 -53,5 -16,-13 -18,-37 -5,-53zm415 217c8,-10 23,-12 33,-3 10,8 12,23 3,33 -8,10 -23,12 -33,3 -10,-8 -12,-23 -3,-33zm2374 -1530c13,-16 37,-19 53,-5 16,13 18,37 5,53 -13,16 -37,19 -53,5 -16,-13 -18,-37 -5,-53zm-1462 -289c8,-10 23,-11 33,-3 10,8 11,23 3,33 -8,10 -23,11 -33,3 -10,-8 -12,-23 -3,-33zm1275 18c13,-16 37,-19 53,-5 16,13 18,37 5,53 -13,16 -37,19 -53,5 -16,-13 -18,-37 -5,-53zm306 769c8,-10 23,-12 33,-3 10,8 11,23 3,33 -8,10 -23,11 -33,3 -10,-8 -12,-23 -3,-33zm-677 -254c16,-19 43,-22 62,-6 19,16 22,43 6,62 -16,19 -43,22 -62,6 -19,-16 -22,-43 -6,-62zm427 751c-21,0 -38,-17 -38,-38 0,-21 17,-38 38,-38 21,0 38,17 38,38 0,21 -17,38 -38,38zm-2784 -1120c8,-10 23,-12 33,-3 10,8 11,23 3,33 -8,10 -23,12 -33,3 -10,-8 -12,-23 -3,-33zm24 -377c9,-12 27,-13 38,-4 12,10 13,27 4,38 -9,12 -27,13 -38,4 -12,-9 -13,-27 -4,-38zm366 1578c8,-10 23,-11 33,-3 10,8 12,23 3,33 -8,10 -23,11 -33,3 -10,-8 -11,-23 -3,-33zm932 -756c-21,0 -38,-17 -38,-38 0,-21 17,-38 38,-38 21,0 38,17 38,38 0,21 -17,38 -38,38zm614 82c-30,0 -54,-24 -54,-54 0,-30 24,-54 54,-54 30,0 54,24 54,54 0,30 -24,54 -54,54zm-2831 282c8,-10 23,-12 33,-3 10,8 12,23 3,33 -8,10 -23,12 -33,3 -10,-8 -12,-23 -3,-33zm-633 -463c16,-19 43,-22 62,-6 19,16 22,43 6,62 -16,19 -43,22 -62,6 -19,-16 -22,-43 -6,-62zm139 887c-21,0 -38,-17 -38,-38 0,-21 17,-38 38,-38 21,0 38,17 38,38 0,21 -17,38 -38,38zm-1420 -356c13,-16 37,-19 53,-5 16,13 19,37 5,53 -13,16 -37,19 -53,5 -16,-13 -19,-37 -5,-53zm403 170c8,-10 23,-12 33,-3 10,8 11,23 3,33 -8,10 -23,11 -33,3 -10,-8 -12,-23 -3,-33zm-996 306c13,-16 37,-19 53,-5 16,13 19,37 5,53 -13,16 -37,19 -53,5 -16,-13 -19,-37 -5,-53zm415 217c8,-10 23,-11 33,-3 10,8 11,23 3,33 -8,10 -23,11 -33,3 -10,-8 -12,-23 -3,-33zm3357 -1138c13,-16 37,-19 53,-5 16,13 18,37 5,53 -13,16 -37,19 -53,5 -16,-13 -18,-37 -5,-53zm-2764 -1138c8,-10 23,-12 33,-3 10,8 12,23 3,33 -8,10 -23,12 -33,3 -10,-8 -12,-23 -3,-33zm1594 475c13,-16 37,-19 53,-5 16,13 19,37 5,53 -13,16 -37,18 -53,5 -16,-13 -19,-37 -5,-53zm306 769c8,-10 23,-12 33,-3 10,8 12,23 3,33 -8,10 -23,12 -33,3 -10,-8 -11,-23 -3,-33zm-426 41c16,-19 43,-22 62,-6 19,16 22,43 6,62 -16,19 -43,22 -62,6 -19,-16 -22,-43 -6,-62zm175 455c-21,0 -38,-17 -38,-38 0,-21 17,-38 38,-38 21,0 38,17 38,38 0,21 -17,38 -38,38zm-4041 -2272c13,-16 37,-19 53,-5 16,13 19,37 5,53 -13,16 -37,19 -53,5 -16,-13 -19,-37 -5,-53zm389 -45c8,-10 23,-11 33,-3 10,8 11,23 3,33 -8,10 -23,12 -33,3 -10,-8 -11,-23 -3,-33zm-127 270c8,-10 23,-12 33,-3 10,8 12,23 3,33 -8,10 -23,12 -33,3 -10,-8 -12,-23 -3,-33zm-812 1014c-17,0 -30,-13 -30,-30 0,-17 13,-30 30,-30 17,0 30,13 30,30 0,17 -13,30 -30,30zm-65 394c13,-16 37,-19 53,-5 16,13 19,37 5,53 -13,16 -37,18 -53,5 -16,-13 -19,-37 -5,-53zm350 -161c8,-10 23,-11 33,-3 10,8 12,23 3,33 -8,10 -23,12 -33,3 -10,-8 -11,-23 -3,-33zm-114 437c13,-16 37,-19 53,-5 16,13 19,37 5,53 -13,16 -37,19 -53,5 -16,-13 -19,-37 -5,-53zm799 1037c8,-10 23,-12 33,-3 10,8 12,23 3,33 -8,10 -23,12 -33,3 -10,-8 -12,-23 -3,-33zm-119 -311c-21,0 -38,-17 -38,-38 0,-21 17,-38 38,-38 21,0 38,17 38,38 0,21 -17,38 -38,38zm163 -328c-30,0 -54,-24 -54,-54 0,-30 24,-54 54,-54 30,0 54,24 54,54 0,30 -24,54 -54,54zm444 -994c13,-16 37,-19 53,-5 16,13 19,37 5,53 -13,16 -37,19 -53,5 -16,-13 -19,-37 -5,-53zm350 -161c8,-10 23,-11 33,-3 10,8 12,23 3,33 -8,10 -23,12 -33,3 -10,-8 -11,-23 -3,-33zm24 -377c9,-12 27,-13 38,-4 12,9 13,27 4,38 -9,12 -27,13 -38,4 -12,-10 -13,-27 -4,-38zm-138 814c13,-16 37,-19 53,-5 16,13 19,37 5,53 -13,16 -37,19 -53,5 -16,-13 -19,-37 -5,-53zm504 763c8,-10 23,-12 33,-3 10,8 12,23 3,33 -8,10 -23,12 -33,3 -10,-8 -12,-23 -3,-33zm-1374 -952c16,-19 43,-22 62,-6 19,16 22,43 6,62 -16,19 -43,22 -62,6 -19,-16 -22,-43 -6,-62zm2307 196c-21,0 -38,-17 -38,-38 0,-21 17,-38 38,-38 21,0 38,17 38,38 0,21 -17,38 -38,38zm163 -328c-30,0 -54,-24 -54,-54 0,-30 24,-54 54,-54 30,0 54,24 54,54 0,30 -24,54 -54,54zm-2792 -315c13,-16 37,-19 53,-5 16,13 19,37 5,53 -13,16 -37,19 -53,5 -16,-13 -19,-37 -5,-53zm-1159 -1110c8,-10 23,-11 33,-3 10,8 12,23 3,33 -8,10 -23,11 -33,3 -10,-8 -12,-23 -3,-33zm-127 270c8,-10 23,-12 33,-3 10,8 11,23 3,33 -8,10 -23,12 -33,3 -10,-8 -11,-23 -3,-33zm-3430 -93c13,-16 37,-19 53,-5 16,13 19,37 5,53 -13,16 -37,19 -53,5 -16,-13 -19,-37 -5,-53zm576 -327c19,-23 53,-26 76,-7 23,19 26,53 7,76 -19,23 -53,26 -76,7 -23,-19 -26,-53 -7,-76zm1232 309c8,-10 23,-11 33,-3 10,8 11,23 3,33 -8,10 -23,12 -33,3 -10,-8 -12,-23 -3,-33zm-747 149c-21,0 -38,-17 -38,-38 0,-21 17,-38 38,-38 21,0 38,17 38,38 0,21 -17,38 -38,38zm2095 1833c8,-10 23,-12 33,-3 10,8 12,23 3,33 -8,10 -23,11 -33,3 -10,-8 -12,-23 -3,-33zm-426 41c16,-19 43,-22 62,-6 19,16 22,43 6,62 -16,19 -43,22 -62,6 -19,-16 -22,-43 -6,-62zm-68 382c-21,0 -38,-17 -38,-38 0,-21 17,-38 38,-38 21,0 38,17 38,38 0,21 -17,38 -38,38zm-1420 -356c13,-16 37,-19 53,-5 16,13 18,37 5,53 -13,16 -37,19 -53,5 -16,-13 -19,-37 -5,-53zm403 170c8,-10 23,-12 33,-3 10,8 12,23 3,33 -8,10 -23,12 -33,3 -10,-8 -11,-23 -3,-33zm-996 306c13,-16 37,-19 53,-5 16,13 19,37 5,53 -13,16 -37,19 -53,5 -16,-13 -19,-37 -5,-53zm415 217c8,-10 23,-12 33,-3 10,8 12,23 3,33 -8,10 -23,12 -33,3 -10,-8 -11,-23 -3,-33zm2374 -1530c13,-16 37,-19 53,-5 16,13 19,37 5,53 -13,16 -37,19 -53,5 -16,-13 -19,-37 -5,-53zm-1462 -289c8,-10 23,-12 33,-3 10,8 12,23 3,33 -8,10 -23,12 -33,3 -10,-8 -12,-23 -3,-33zm1275 18c13,-16 37,-19 53,-5 16,13 19,37 5,53 -13,16 -37,19 -53,5 -16,-13 -19,-37 -5,-53zm306 769c8,-10 23,-11 33,-3 10,8 12,23 3,33 -8,10 -23,12 -33,3 -10,-8 -12,-23 -3,-33zm-677 -254c16,-19 43,-22 62,-6 19,16 22,43 6,62 -16,19 -43,22 -62,6 -19,-16 -22,-43 -6,-62zm427 751c-21,0 -38,-17 -38,-38 0,-21 17,-38 38,-38 21,0 38,17 38,38 0,21 -17,38 -38,38zm-2784 -1120c8,-10 23,-12 33,-3 10,8 12,23 3,33 -8,10 -23,11 -33,3 -10,-8 -12,-23 -3,-33zm24 -377c9,-12 27,-13 38,-4 12,9 13,27 4,38 -9,12 -27,13 -38,4 -12,-10 -13,-27 -4,-38zm366 1578c8,-10 23,-12 33,-3 10,8 11,23 3,33 -8,10 -23,12 -33,3 -10,-8 -12,-23 -3,-33zm932 -756c-21,0 -38,-17 -38,-38 0,-21 17,-38 38,-38 21,0 38,17 38,38 0,21 -17,38 -38,38zm614 83c-30,0 -54,-24 -54,-54 0,-30 24,-54 54,-54 30,0 54,24 54,54 0,30 -24,54 -54,54zm-11701 -258c-30,0 -54,-24 -54,-54 0,-30 24,-54 54,-54 30,0 54,24 54,54 0,30 -24,54 -54,54zm3475 1468c8,-10 23,-12 33,-3 10,8 11,23 3,33 -8,10 -23,11 -33,3 -10,-8 -12,-23 -3,-33zm-124 -472c13,-16 37,-19 53,-5 16,13 19,37 5,53 -13,16 -37,19 -53,5 -16,-13 -19,-37 -5,-53zm405 321c8,-10 23,-11 33,-3 10,8 12,23 3,33 -8,10 -23,12 -33,3 -10,-8 -12,-23 -3,-33zm-5067 -2381c8,-10 23,-12 33,-3 10,8 12,23 3,33 -8,10 -23,12 -33,3 -10,-8 -11,-23 -3,-33zm-222 -249c16,-19 43,-22 62,-6 19,16 22,43 6,62 -16,19 -43,22 -62,6 -19,-16 -22,-43 -6,-62zm107 735c-21,0 -38,-17 -38,-38 0,-21 17,-38 38,-38 21,0 38,17 38,38 0,21 -17,38 -38,38zm10296 1119c8,-10 23,-12 33,-3 10,8 12,23 3,33 -8,10 -23,12 -33,3 -10,-8 -11,-23 -3,-33zm-633 -463c16,-19 43,-22 62,-6 19,16 22,43 6,62 -16,19 -43,22 -62,6 -19,-16 -22,-43 -6,-62zm139 887c-21,0 -38,-17 -38,-38 0,-21 17,-38 38,-38 21,0 38,17 38,38 0,21 -17,38 -38,38zm-1420 -356c13,-16 37,-19 53,-5 16,13 19,37 5,53 -13,16 -37,19 -53,5 -16,-13 -19,-37 -5,-53zm403 170c8,-10 23,-11 33,-3 10,8 12,23 3,33 -8,10 -23,12 -33,3 -10,-8 -12,-23 -3,-33zm-996 306c13,-16 37,-19 53,-5 16,13 19,37 5,53 -13,16 -37,18 -53,5 -16,-13 -19,-37 -5,-53zm415 217c8,-10 23,-12 33,-3 10,8 12,23 3,33 -8,10 -23,12 -33,3 -10,-8 -12,-23 -3,-33zm-5400 -58c-21,0 -38,-17 -38,-38 0,-21 17,-38 38,-38 21,0 38,17 38,38 0,21 -17,38 -38,38zm-498 -182c-30,0 -54,-24 -54,-54 0,-30 24,-54 54,-54 30,0 54,24 54,54 0,30 -24,54 -54,54zm-1216 -899c8,-10 23,-12 33,-3 10,8 12,23 3,33 -8,10 -23,12 -33,3 -10,-8 -12,-23 -3,-33zm62 388c8,-10 23,-12 33,-3 10,8 12,23 3,33 -8,10 -23,11 -33,3 -10,-8 -11,-23 -3,-33zm627 172c-21,0 -38,-17 -38,-38 0,-21 17,-38 38,-38 21,0 38,17 38,38 0,21 -17,38 -38,38zm-2203 -745c8,-10 23,-12 33,-3 10,8 12,23 3,33 -8,10 -23,12 -33,3 -10,-8 -12,-23 -3,-33zm540 617c16,-20 45,-22 65,-6 20,16 22,45 6,65 -16,20 -45,22 -65,6 -20,-16 -22,-45 -6,-65zm-233 374c13,-16 37,-19 53,-5 16,13 19,37 5,53 -13,16 -37,19 -53,5 -16,-13 -19,-37 -5,-53zm-168 -503c8,-10 23,-12 33,-3 10,8 12,23 3,33 -8,10 -23,12 -33,3 -10,-8 -11,-23 -3,-33zm-250 371c19,-23 53,-26 76,-7 23,19 26,53 7,76 -19,23 -53,26 -76,7 -23,-19 -26,-53 -7,-76zm12095 -673c13,-16 37,-19 53,-5 16,13 19,37 5,53 -13,16 -37,19 -53,5 -16,-13 -19,-37 -5,-53zm-2764 -1138c8,-10 23,-11 33,-3 10,8 12,23 3,33 -8,10 -23,11 -33,3 -10,-8 -11,-23 -3,-33zm1594 475c13,-16 37,-19 53,-5 16,13 18,37 5,53 -13,16 -37,19 -53,5 -16,-13 -18,-37 -5,-53zm306 769c8,-10 23,-12 33,-3 10,8 11,23 3,33 -8,10 -23,11 -33,3 -10,-8 -12,-23 -3,-33zm-426 41c16,-19 43,-22 62,-6 19,16 22,43 6,62 -16,19 -43,22 -62,6 -19,-16 -22,-43 -6,-62zm175 455c-21,0 -38,-17 -38,-38 0,-21 17,-38 38,-38 21,0 38,17 38,38 0,21 -17,38 -38,38zm-5767 -1046c13,-16 37,-19 53,-5 16,13 18,37 5,53 -13,16 -37,18 -53,5 -16,-13 -18,-37 -5,-53zm839 1638c8,-10 23,-12 33,-3 10,8 11,23 3,33 -8,10 -23,11 -33,3 -10,-8 -11,-23 -3,-33zm337 -1626c-17,0 -30,-13 -30,-30 0,-17 13,-30 30,-30 17,0 30,13 30,30 0,17 -13,30 -30,30zm-65 394c13,-16 37,-19 53,-5 16,13 19,37 5,53 -13,16 -37,19 -53,5 -16,-13 -19,-37 -5,-53zm350 -161c8,-10 23,-12 33,-3 10,8 12,23 3,33 -8,10 -23,12 -33,3 -10,-8 -12,-23 -3,-33zm-114 437c13,-16 37,-19 53,-5 16,13 19,37 5,53 -13,16 -37,18 -53,5 -16,-13 -19,-37 -5,-53zm799 1037c8,-10 23,-11 33,-3 10,8 11,23 3,33 -8,10 -23,12 -33,3 -10,-8 -12,-23 -3,-33zm-119 -311c-21,0 -38,-17 -38,-38 0,-21 17,-38 38,-38 21,0 38,17 38,38 0,21 -17,38 -38,38zm163 -328c-30,0 -54,-24 -54,-54 0,-30 24,-54 54,-54 30,0 54,24 54,54 0,30 -24,54 -54,54zm444 -994c13,-16 37,-19 53,-5 16,13 18,37 5,53 -13,16 -37,19 -53,5 -16,-13 -18,-37 -5,-53zm350 -161c8,-10 23,-12 33,-3 10,8 11,23 3,33 -8,10 -23,12 -33,3 -10,-8 -12,-23 -3,-33zm24 -377c9,-12 27,-13 38,-4 12,10 13,27 4,38 -9,12 -27,13 -38,4 -12,-9 -13,-27 -4,-38zm-138 814c13,-16 37,-19 53,-5 16,13 19,37 5,53 -13,16 -37,18 -53,5 -16,-13 -19,-37 -5,-53zm504 763c8,-10 23,-11 33,-3 10,8 12,23 3,33 -8,10 -23,12 -33,3 -10,-8 -11,-23 -3,-33zm-1375 -952c16,-19 43,-22 62,-6 19,16 22,43 6,62 -16,19 -43,22 -62,6 -19,-16 -22,-43 -6,-62zm2307 196c-21,0 -38,-17 -38,-38 0,-21 17,-38 38,-38 21,0 38,17 38,38 0,21 -17,38 -38,38zm163 -328c-30,0 -54,-24 -54,-54 0,-30 24,-54 54,-54 30,0 54,24 54,54 0,30 -24,54 -54,54zm-2792 -315c13,-16 37,-19 53,-5 16,13 18,37 5,53 -13,16 -37,19 -53,5 -16,-13 -18,-37 -5,-53zm-1746 985c19,-23 53,-26 76,-7 23,19 26,53 7,76 -19,23 -53,26 -76,7 -23,-19 -26,-53 -7,-76zm-1023 551c19,-23 53,-26 76,-7 23,19 26,53 7,76 -19,23 -53,26 -76,7 -23,-19 -26,-53 -7,-76zm1583 -48c-30,0 -54,-24 -54,-54 0,-30 24,-54 54,-54 30,0 54,24 54,54 0,30 -24,54 -54,54zm-3532 -1410c-21,0 -38,-17 -38,-38 0,-21 17,-38 38,-38 21,0 38,17 38,38 0,21 -17,38 -38,38zm15010 2238c8,-10 23,-11 33,-3 10,8 11,23 3,33 -8,10 -23,11 -33,3 -10,-8 -12,-23 -3,-33zm-222 -249c16,-19 43,-22 62,-6 19,16 22,43 6,62 -16,19 -43,22 -62,6 -19,-16 -22,-43 -6,-62zm6512 272c13,-16 37,-19 53,-5 16,13 18,37 5,53 -13,16 -37,19 -53,5 -16,-13 -18,-37 -5,-53zm389 -45c8,-10 23,-12 33,-3 10,8 12,23 3,33 -8,10 -23,11 -33,3 -10,-8 -12,-23 -3,-33zm-1401 206c16,-20 45,-22 65,-6 20,16 22,45 6,65 -16,20 -45,22 -65,6 -20,-16 -22,-45 -6,-65zm1275 63c8,-10 23,-12 33,-3 10,8 11,23 3,33 -8,10 -23,12 -33,3 -10,-8 -11,-23 -3,-33zm-3430 -93c13,-16 37,-19 53,-5 16,13 19,37 5,53 -13,16 -37,19 -53,5 -16,-13 -19,-37 -5,-53zm224 -550c8,-10 23,-12 33,-3 10,8 12,23 3,33 -8,10 -23,12 -33,3 -10,-8 -12,-23 -3,-33zm352 223c19,-23 53,-26 76,-7 23,19 26,53 7,76 -19,23 -53,26 -76,7 -23,-19 -26,-53 -7,-76zm1232 309c8,-10 23,-12 33,-3 10,8 11,23 3,33 -8,10 -23,12 -33,3 -10,-8 -12,-23 -3,-33zm-747 149c-21,0 -38,-17 -38,-38 0,-21 17,-38 38,-38 21,0 38,17 38,38 0,21 -17,38 -38,38zm-2205 -142c-42,0 -76,-34 -76,-76 0,-42 34,-76 76,-76 42,0 76,34 76,76 0,42 -34,76 -76,76zm4301 1975c8,-10 23,-12 33,-3 10,8 11,23 3,33 -8,10 -23,11 -33,3 -10,-8 -12,-23 -3,-33zm-426 41c16,-19 43,-22 62,-6 19,16 22,43 6,62 -16,19 -43,22 -62,6 -19,-16 -22,-43 -6,-62zm-68 382c-21,0 -38,-17 -38,-38 0,-21 17,-38 38,-38 21,0 38,17 38,38 0,21 -17,38 -38,38zm-1420 -356c13,-16 37,-19 53,-5 16,13 18,37 5,53 -13,16 -37,19 -53,5 -16,-13 -18,-37 -5,-53zm403 170c8,-10 23,-12 33,-3 10,8 12,23 3,33 -8,10 -23,12 -33,3 -10,-8 -11,-23 -3,-33zm-996 306c13,-16 37,-19 53,-5 16,13 18,37 5,53 -13,16 -37,19 -53,5 -16,-13 -19,-37 -5,-53zm415 217c8,-10 23,-12 33,-3 10,8 12,23 3,33 -8,10 -23,12 -33,3 -10,-8 -11,-23 -3,-33zm2374 -1530c13,-16 37,-19 53,-5 16,13 19,37 5,53 -13,16 -37,19 -53,5 -16,-13 -19,-37 -5,-53zm-1462 -289c8,-10 23,-12 33,-3 10,8 12,23 3,33 -8,10 -23,12 -33,3 -10,-8 -12,-23 -3,-33zm1275 18c13,-16 37,-19 53,-5 16,13 19,37 5,53 -13,16 -37,19 -53,5 -16,-13 -19,-37 -5,-53zm306 769c8,-10 23,-11 33,-3 10,8 12,23 3,33 -8,10 -23,11 -33,3 -10,-8 -12,-23 -3,-33zm-677 -254c16,-19 43,-22 62,-6 19,16 22,43 6,62 -16,19 -43,22 -62,6 -19,-16 -22,-43 -6,-62zm427 751c-21,0 -38,-17 -38,-38 0,-21 17,-38 38,-38 21,0 38,17 38,38 0,21 -17,38 -38,38zm-2784 -1120c8,-10 23,-12 33,-3 10,8 12,23 3,33 -8,10 -23,11 -33,3 -10,-8 -12,-23 -3,-33zm24 -377c9,-12 27,-13 38,-4 12,9 13,27 4,38 -9,12 -27,13 -38,4 -12,-9 -13,-27 -4,-38zm366 1578c8,-10 23,-12 33,-3 10,8 11,23 3,33 -8,10 -23,12 -33,3 -10,-8 -12,-23 -3,-33zm932 -756c-21,0 -38,-17 -38,-38 0,-21 17,-38 38,-38 21,0 38,17 38,38 0,21 -17,38 -38,38zm614 83c-30,0 -54,-24 -54,-54 0,-30 24,-54 54,-54 30,0 54,24 54,54 0,30 -24,54 -54,54zm-2831 282c8,-10 23,-12 33,-3 10,8 12,23 3,33 -8,10 -23,12 -33,3 -10,-8 -11,-23 -3,-33zm-633 -463c16,-19 43,-22 62,-6 19,16 22,43 6,62 -16,19 -43,22 -62,6 -19,-16 -22,-43 -6,-62zm139 887c-21,0 -38,-17 -38,-38 0,-21 17,-38 38,-38 21,0 38,17 38,38 0,21 -17,38 -38,38zm-1420 -356c13,-16 37,-19 53,-5 16,13 19,37 5,53 -13,16 -37,18 -53,5 -16,-13 -19,-37 -5,-53zm403 170c8,-10 23,-11 33,-3 10,8 12,23 3,33 -8,10 -23,12 -33,3 -10,-8 -12,-23 -3,-33zm-996 306c13,-16 37,-19 53,-5 16,13 19,37 5,53 -13,16 -37,19 -53,5 -16,-13 -19,-37 -5,-53zm415 217c8,-10 23,-11 33,-3 10,8 12,23 3,33 -8,10 -23,12 -33,3 -10,-8 -12,-23 -3,-33zm3357 -1138c13,-16 37,-19 53,-5 16,13 18,37 5,53 -13,16 -37,19 -53,5 -16,-13 -19,-37 -5,-53zm-2764 -1138c8,-10 23,-12 33,-3 10,8 12,23 3,33 -8,10 -23,11 -33,3 -10,-8 -11,-23 -3,-33zm1594 475c13,-16 37,-19 53,-5 16,13 18,37 5,53 -13,16 -37,19 -53,5 -16,-13 -18,-37 -5,-53zm306 769c8,-10 23,-12 33,-3 10,8 11,23 3,33 -8,10 -23,12 -33,3 -10,-8 -12,-23 -3,-33zm-426 41c16,-19 43,-22 62,-6 19,16 22,43 6,62 -16,19 -43,22 -62,6 -19,-16 -22,-43 -6,-62zm175 455c-21,0 -38,-17 -38,-38 0,-21 17,-38 38,-38 21,0 38,17 38,38 0,21 -17,38 -38,38zm-4041 -2272c13,-16 37,-19 53,-5 16,13 19,37 5,53 -13,16 -37,18 -53,5 -16,-13 -19,-37 -5,-53zm389 -45c8,-10 23,-12 33,-3 10,8 12,23 3,33 -8,10 -23,12 -33,3 -10,-8 -12,-23 -3,-33zm-127 270c8,-10 23,-11 33,-3 10,8 12,23 3,33 -8,10 -23,11 -33,3 -10,-8 -12,-23 -3,-33zm-812 1014c-17,0 -30,-13 -30,-30 0,-17 13,-30 30,-30 17,0 30,13 30,30 0,17 -13,30 -30,30zm-65 394c13,-16 37,-19 53,-5 16,13 19,37 5,53 -13,16 -37,19 -53,5 -16,-13 -19,-37 -5,-53zm350 -161c8,-10 23,-12 33,-3 10,8 12,23 3,33 -8,10 -23,12 -33,3 -10,-8 -11,-23 -3,-33zm-114 437c13,-16 37,-19 53,-5 16,13 19,37 5,53 -13,16 -37,18 -53,5 -16,-13 -19,-37 -5,-53zm799 1037c8,-10 23,-12 33,-3 10,8 11,23 3,33 -8,10 -23,12 -33,3 -10,-8 -12,-23 -3,-33zm-119 -311c-21,0 -38,-17 -38,-38 0,-21 17,-38 38,-38 21,0 38,17 38,38 0,21 -17,38 -38,38zm163 -328c-30,0 -54,-24 -54,-54 0,-30 24,-54 54,-54 30,0 54,24 54,54 0,30 -24,54 -54,54zm444 -994c13,-16 37,-19 53,-5 16,13 19,37 5,53 -13,16 -37,18 -53,5 -16,-13 -19,-37 -5,-53zm350 -161c8,-10 23,-12 33,-3 10,8 11,23 3,33 -8,10 -23,12 -33,3 -10,-8 -12,-23 -3,-33zm24 -377c10,-12 27,-13 38,-4 12,10 13,27 4,38 -9,12 -27,13 -38,4 -12,-9 -13,-27 -4,-38zm-138 814c13,-16 37,-19 53,-5 16,13 19,37 5,53 -13,16 -37,18 -53,5 -16,-13 -19,-37 -5,-53zm504 763c8,-10 23,-11 33,-3 10,8 12,23 3,33 -8,10 -23,11 -33,3 -10,-8 -11,-23 -3,-33zm-1375 -952c16,-19 43,-22 62,-6 19,16 22,43 6,62 -16,19 -43,22 -62,6 -19,-16 -22,-43 -6,-62zm2307 196c-21,0 -38,-17 -38,-38 0,-21 17,-38 38,-38 21,0 38,17 38,38 0,21 -17,38 -38,38zm163 -328c-30,0 -54,-24 -54,-54 0,-30 24,-54 54,-54 30,0 54,24 54,54 0,30 -24,54 -54,54zm-2792 -315c13,-16 37,-19 53,-5 16,13 18,37 5,53 -13,16 -37,19 -53,5 -16,-13 -18,-37 -5,-53zm-7838 -1088c8,-10 23,-12 33,-3 10,8 12,23 3,33 -8,10 -23,12 -33,3 -10,-8 -12,-23 -3,-33zm-222 -249c16,-19 43,-22 62,-6 19,16 22,43 6,62 -16,19 -43,22 -62,6 -19,-16 -22,-43 -6,-62zm6512 272c13,-16 37,-19 53,-5 16,13 19,37 5,53 -13,16 -37,18 -53,5 -16,-13 -19,-37 -5,-53zm389 -45c8,-10 23,-12 33,-3 10,8 12,23 3,33 -8,10 -23,12 -33,3 -10,-8 -11,-23 -3,-33zm-1401 206c16,-20 45,-22 65,-6 20,16 22,45 6,65 -16,20 -45,22 -65,6 -20,-16 -22,-45 -6,-65zm1275 63c8,-10 23,-12 33,-3 10,8 12,23 3,33 -8,10 -23,12 -33,3 -10,-8 -12,-23 -3,-33zm-3430 -93c13,-16 37,-19 53,-5 16,13 19,37 5,53 -13,16 -37,19 -53,5 -16,-13 -19,-37 -5,-53zm224 -550c8,-10 23,-12 33,-3 10,8 11,23 3,33 -8,10 -23,11 -33,3 -10,-8 -11,-23 -3,-33zm352 223c19,-23 53,-26 76,-7 23,19 26,53 7,76 -19,23 -53,26 -76,7 -23,-19 -26,-53 -7,-76zm1232 309c8,-10 23,-12 33,-3 10,8 12,23 3,33 -8,10 -23,12 -33,3 -10,-8 -12,-23 -3,-33zm-747 149c-21,0 -38,-17 -38,-38 0,-21 17,-38 38,-38 21,0 38,17 38,38 0,21 -17,38 -38,38zm-2205 -142c-42,0 -76,-34 -76,-76 0,-42 34,-76 76,-76 42,0 76,34 76,76 0,42 -34,76 -76,76zm4301 1975c8,-10 23,-12 33,-3 10,8 12,23 3,33 -8,10 -23,12 -33,3 -10,-8 -12,-23 -3,-33zm-426 41c16,-19 43,-22 62,-6 19,16 22,43 6,62 -16,19 -43,22 -62,6 -19,-16 -22,-43 -6,-62zm-68 382c-21,0 -38,-17 -38,-38 0,-21 17,-38 38,-38 21,0 38,17 38,38 0,21 -17,38 -38,38zm-1420 -356c13,-16 37,-19 53,-5 16,13 19,37 5,53 -13,16 -37,18 -53,5 -16,-13 -19,-37 -5,-53zm403 170c8,-10 23,-12 33,-3 10,8 11,23 3,33 -8,10 -23,11 -33,3 -10,-8 -12,-23 -3,-33zm-996 306c13,-16 37,-19 53,-5 16,13 19,37 5,53 -13,16 -37,19 -53,5 -16,-13 -19,-37 -5,-53zm415 217c8,-10 23,-11 33,-3 10,8 11,23 3,33 -8,10 -23,11 -33,3 -10,-8 -12,-23 -3,-33zm2374 -1530c13,-16 37,-19 53,-5 16,13 19,37 5,53 -13,16 -37,18 -53,5 -16,-13 -19,-37 -5,-53zm-1462 -289c8,-10 23,-12 33,-3 10,8 12,23 3,33 -8,10 -23,12 -33,3 -10,-8 -11,-23 -3,-33zm1275 18c13,-16 37,-19 53,-5 16,13 19,37 5,53 -13,16 -37,18 -53,5 -16,-13 -19,-37 -5,-53zm306 769c8,-10 23,-12 33,-3 10,8 12,23 3,33 -8,10 -23,12 -33,3 -10,-8 -11,-23 -3,-33zm-677 -254c16,-19 43,-22 62,-6 19,16 22,43 6,62 -16,19 -43,22 -62,6 -19,-16 -22,-43 -6,-62zm427 751c-21,0 -38,-17 -38,-38 0,-21 17,-38 38,-38 21,0 38,17 38,38 0,21 -17,38 -38,38zm-2784 -1120c8,-10 23,-11 33,-3 10,8 12,23 3,33 -8,10 -23,12 -33,3 -10,-8 -11,-23 -3,-33zm24 -377c10,-12 27,-13 38,-4 12,9 13,27 4,38 -9,12 -27,13 -38,4 -12,-9 -13,-27 -4,-38zm366 1578c8,-10 23,-12 33,-3 10,8 12,23 3,33 -8,10 -23,11 -33,3 -10,-8 -12,-23 -3,-33zm932 -756c-21,0 -38,-17 -38,-38 0,-21 17,-38 38,-38 21,0 38,17 38,38 0,21 -17,38 -38,38zm614 83c-30,0 -54,-24 -54,-54 0,-30 24,-54 54,-54 30,0 54,24 54,54 0,30 -24,54 -54,54zm-10793 -598c13,-16 37,-19 53,-5 16,13 18,37 5,53 -13,16 -37,19 -53,5 -16,-13 -18,-37 -5,-53zm389 -45c8,-10 23,-12 33,-3 10,8 12,23 3,33 -8,10 -23,12 -33,3 -10,-8 -12,-23 -3,-33zm-127 270c8,-10 23,-11 33,-3 10,8 12,23 3,33 -8,10 -23,12 -33,3 -10,-8 -11,-23 -3,-33zm-1170 115c-30,0 -54,-24 -54,-54 0,-30 24,-54 54,-54 30,0 54,24 54,54 0,30 -24,54 -54,54zm3475 1468c8,-10 23,-11 33,-3 10,8 12,23 3,33 -8,10 -23,12 -33,3 -10,-8 -12,-23 -3,-33zm-124 -472c13,-16 37,-19 53,-5 16,13 18,37 5,53 -13,16 -37,19 -53,5 -16,-13 -18,-37 -5,-53zm406 321c8,-10 23,-12 33,-3 10,8 12,23 3,33 -8,10 -23,12 -33,3 -10,-8 -11,-23 -3,-33zm-5067 -2381c8,-10 23,-12 33,-3 10,8 11,23 3,33 -8,10 -23,12 -33,3 -10,-8 -12,-23 -3,-33zm-222 -249c16,-19 43,-22 62,-6 19,16 22,43 6,62 -16,19 -43,22 -62,6 -19,-16 -22,-43 -6,-62zm107 735c-21,0 -38,-17 -38,-38 0,-21 17,-38 38,-38 21,0 38,17 38,38 0,21 -17,38 -38,38zm10296 1119c8,-10 23,-12 33,-3 10,8 11,23 3,33 -8,10 -23,11 -33,3 -10,-8 -12,-23 -3,-33zm-633 -463c16,-19 43,-22 62,-6 19,16 22,43 6,62 -16,19 -43,22 -62,6 -19,-16 -22,-43 -6,-62zm139 887c-21,0 -38,-17 -38,-38 0,-21 17,-38 38,-38 21,0 38,17 38,38 0,21 -17,38 -38,38zm-1420 -356c13,-16 37,-19 53,-5 16,13 18,37 5,53 -13,16 -37,19 -53,5 -16,-13 -18,-37 -5,-53zm403 170c8,-10 23,-12 33,-3 10,8 12,23 3,33 -8,10 -23,12 -33,3 -10,-8 -11,-23 -3,-33zm-996 306c13,-16 37,-19 53,-5 16,13 18,37 5,53 -13,16 -37,19 -53,5 -16,-13 -18,-37 -5,-53zm415 217c8,-10 23,-12 33,-3 10,8 12,23 3,33 -8,10 -23,12 -33,3 -10,-8 -11,-23 -3,-33zm-5400 -59c-21,0 -38,-17 -38,-38 0,-21 17,-38 38,-38 21,0 38,17 38,38 0,21 -17,38 -38,38zm-498 -182c-30,0 -54,-24 -54,-54 0,-30 24,-54 54,-54 30,0 54,24 54,54 0,30 -24,54 -54,54zm-1216 -899c8,-10 23,-12 33,-3 10,8 12,23 3,33 -8,10 -23,11 -33,3 -10,-8 -11,-23 -3,-33zm62 388c8,-10 23,-11 33,-3 10,8 11,23 3,33 -8,10 -23,11 -33,3 -10,-8 -12,-23 -3,-33zm627 172c-21,0 -38,-17 -38,-38 0,-21 17,-38 38,-38 21,0 38,17 38,38 0,21 -17,38 -38,38zm92 1128c-30,0 -54,-24 -54,-54 0,-30 24,-54 54,-54 30,0 54,24 54,54 0,30 -24,54 -54,54zm-2295 -1873c8,-10 23,-12 33,-3 10,8 11,23 3,33 -8,10 -23,11 -33,3 -10,-8 -11,-23 -3,-33zm540 617c16,-20 45,-22 65,-6 20,16 22,45 6,65 -16,20 -45,22 -65,6 -20,-16 -22,-45 -6,-65zm-233 374c13,-16 37,-19 53,-5 16,13 19,37 5,53 -13,16 -37,19 -53,5 -16,-13 -19,-37 -5,-53zm-168 -503c8,-10 23,-12 33,-3 10,8 11,23 3,33 -8,10 -23,11 -33,3 -10,-8 -12,-23 -3,-33zm-250 371c19,-23 53,-26 76,-7 23,19 26,53 7,76 -19,23 -53,26 -76,7 -23,-19 -26,-53 -7,-76zm12095 -673c13,-16 37,-19 53,-5 16,13 19,37 5,53 -13,16 -37,18 -53,5 -16,-13 -19,-37 -5,-53zm-2764 -1138c8,-10 23,-12 33,-3 10,8 11,23 3,33 -8,10 -23,12 -33,3 -10,-8 -12,-23 -3,-33zm1594 475c13,-16 37,-19 53,-5 16,13 19,37 5,53 -13,16 -37,19 -53,5 -16,-13 -19,-37 -5,-53zm306 769c8,-10 23,-11 33,-3 10,8 12,23 3,33 -8,10 -23,12 -33,3 -10,-8 -12,-23 -3,-33zm-426 41c16,-19 43,-22 62,-6 19,16 22,43 6,62 -16,19 -43,22 -62,6 -19,-16 -22,-43 -6,-62zm175 455c-21,0 -38,-17 -38,-38 0,-21 17,-38 38,-38 21,0 38,17 38,38 0,21 -17,38 -38,38zm-5767 -1046c13,-16 37,-19 53,-5 16,13 19,37 5,53 -13,16 -37,19 -53,5 -16,-13 -19,-37 -5,-53zm839 1638c8,-10 23,-11 33,-3 10,8 12,23 3,33 -8,10 -23,12 -33,3 -10,-8 -12,-23 -3,-33zm887 -2865c13,-16 37,-19 53,-5 16,13 18,37 5,53 -13,16 -37,19 -53,5 -16,-13 -18,-37 -5,-53zm389 -45c8,-10 23,-12 33,-3 10,8 12,23 3,33 -8,10 -23,11 -33,3 -10,-8 -12,-23 -3,-33zm-1401 672c16,-20 45,-22 65,-6 20,16 22,45 6,65 -16,20 -45,22 -65,6 -20,-16 -22,-45 -6,-65zm1275 -402c8,-10 23,-12 33,-3 10,8 11,23 3,33 -8,10 -23,12 -33,3 -10,-8 -11,-23 -3,-33zm-812 1014c-17,0 -30,-13 -30,-30 0,-17 13,-30 30,-30 17,0 30,13 30,30 0,17 -13,30 -30,30zm-65 394c13,-16 37,-19 53,-5 16,13 18,37 5,53 -13,16 -37,19 -53,5 -16,-13 -18,-37 -5,-53zm350 -161c8,-10 23,-12 33,-3 10,8 12,23 3,33 -8,10 -23,11 -33,3 -10,-8 -12,-23 -3,-33zm-114 437c13,-16 37,-19 53,-5 16,13 18,37 5,53 -13,16 -37,19 -53,5 -16,-13 -18,-37 -5,-53zm799 1037c8,-10 23,-11 33,-3 10,8 12,23 3,33 -8,10 -23,12 -33,3 -10,-8 -12,-23 -3,-33zm-119 -311c-21,0 -38,-17 -38,-38 0,-21 17,-38 38,-38 21,0 38,17 38,38 0,21 -17,38 -38,38zm163 -328c-30,0 -54,-24 -54,-54 0,-30 24,-54 54,-54 30,0 54,24 54,54 0,30 -24,54 -54,54zm444 -994c13,-16 37,-19 53,-5 16,13 18,37 5,53 -13,16 -37,19 -53,5 -16,-13 -18,-37 -5,-53zm350 -161c8,-10 23,-12 33,-3 10,8 12,23 3,33 -8,10 -23,11 -33,3 -10,-8 -12,-23 -3,-33zm24 -377c9,-12 27,-13 38,-4 12,9 13,27 4,38 -10,12 -27,13 -38,4 -12,-9 -13,-27 -4,-38zm-138 814c13,-16 37,-19 53,-5 16,13 18,37 5,53 -13,16 -37,19 -53,5 -16,-13 -18,-37 -5,-53zm504 763c8,-10 23,-12 33,-3 10,8 11,23 3,33 -8,10 -23,12 -33,3 -10,-8 -12,-23 -3,-33zm-1375 -952c16,-19 43,-22 62,-6 19,16 22,43 6,62 -16,19 -43,22 -62,6 -19,-16 -22,-43 -6,-62zm2307 196c-21,0 -38,-17 -38,-38 0,-21 17,-38 38,-38 21,0 38,17 38,38 0,21 -17,38 -38,38zm163 -328c-30,0 -54,-24 -54,-54 0,-30 24,-54 54,-54 30,0 54,24 54,54 0,30 -24,54 -54,54zm-5910 -671c13,-16 37,-19 53,-5 16,13 19,37 5,53 -13,16 -37,19 -53,5 -16,-13 -19,-37 -5,-53zm224 -550c8,-10 23,-12 33,-3 10,8 12,23 3,33 -8,10 -23,11 -33,3 -10,-8 -12,-23 -3,-33zm352 223c19,-23 53,-26 76,-7 23,19 26,53 7,76 -19,23 -53,26 -76,7 -23,-19 -26,-53 -7,-76zm2543 684c13,-16 37,-19 53,-5 16,13 19,37 5,53 -13,16 -37,18 -53,5 -16,-13 -19,-37 -5,-53zm-1311 -375c8,-10 23,-12 33,-3 10,8 11,23 3,33 -8,10 -23,12 -33,3 -10,-8 -12,-23 -3,-33zm-435 1360c19,-23 53,-26 76,-7 23,19 26,53 7,76 -19,23 -53,26 -76,7 -23,-19 -26,-53 -7,-76zm-1289 -146c13,-16 37,-19 53,-5 16,13 18,37 5,53 -13,16 -37,18 -53,5 -16,-13 -18,-37 -5,-53zm113 -248c8,-10 23,-12 33,-3 10,8 12,23 3,33 -8,10 -23,11 -33,3 -10,-8 -12,-23 -3,-33zm154 945c19,-23 53,-26 76,-7 23,19 26,53 7,76 -19,23 -53,26 -76,7 -23,-19 -26,-53 -7,-76zm711 -1761c-21,0 -38,-17 -38,-38 0,-21 17,-38 38,-38 21,0 38,17 38,38 0,21 -17,38 -38,38zm-488 146c-42,0 -76,-34 -76,-76 0,-42 34,-76 76,-76 42,0 76,34 76,76 0,42 -34,76 -76,76zm1359 1568c-30,0 -54,-24 -54,-54 0,-30 24,-54 54,-54 30,0 54,24 54,54 0,30 -24,54 -54,54zm-3532 -1410c-21,0 -38,-17 -38,-38 0,-21 17,-38 38,-38 21,0 38,17 38,38 0,21 -17,38 -38,38zm4575 7718c-8,10 -23,12 -33,3 -10,-8 -12,-23 -3,-33 8,-10 23,-12 33,-3 10,8 11,23 3,33zm222 249c-16,19 -43,22 -62,6 -19,-16 -22,-43 -6,-62 16,-19 43,-22 62,-6 19,16 22,43 6,62zm-6512 -272c-13,16 -37,19 -53,5 -16,-13 -19,-37 -5,-53 13,-16 37,-18 53,-5 16,13 19,37 5,53zm-389 45c-8,10 -23,12 -33,3 -10,-8 -11,-23 -3,-33 8,-10 23,-12 33,-3 10,8 12,23 3,33zm1401 -206c-16,20 -45,22 -65,6 -20,-16 -22,-45 -6,-65 16,-20 45,-22 65,-6 20,16 22,45 6,65zm-1275 -63c-8,10 -23,12 -33,3 -10,-8 -12,-23 -3,-33 8,-10 23,-12 33,-3 10,8 12,23 3,33zm3430 93c-13,16 -37,19 -53,5 -16,-13 -18,-37 -5,-53 13,-16 37,-19 53,-5 16,13 18,37 5,53zm-224 550c-8,10 -23,12 -33,3 -10,-8 -12,-23 -3,-33 8,-10 23,-11 33,-3 10,8 12,23 3,33zm-352 -223c-19,23 -53,26 -76,7 -23,-19 -26,-53 -7,-76 19,-23 53,-26 76,-7 23,19 26,53 7,76zm-1232 -309c-8,10 -23,12 -33,3 -10,-8 -12,-23 -3,-33 8,-10 23,-12 33,-3 10,8 12,23 3,33zm747 -149c21,0 38,17 38,38 0,21 -17,38 -38,38 -21,0 -38,-17 -38,-38 0,-21 17,-38 38,-38zm2205 142c42,0 76,34 76,76 0,42 -34,76 -76,76 -42,0 -76,-34 -76,-76 0,-42 34,-76 76,-76zm-4301 -1975c-8,10 -23,12 -33,3 -10,-8 -12,-23 -3,-33 8,-10 23,-12 33,-3 10,8 11,23 3,33zm426 -41c-16,19 -43,22 -62,6 -19,-16 -22,-43 -6,-62 16,-19 43,-22 62,-6 19,16 22,43 6,62zm68 -382c21,0 38,17 38,38 0,21 -17,38 -38,38 -21,0 -38,-17 -38,-38 0,-21 17,-38 38,-38zm1420 356c-13,16 -37,19 -53,5 -16,-13 -19,-37 -5,-53 13,-16 37,-18 53,-5 16,13 19,37 5,53zm-403 -170c-8,10 -23,12 -33,3 -10,-8 -12,-23 -3,-33 8,-10 23,-11 33,-3 10,8 12,23 3,33zm996 -306c-13,16 -37,19 -53,5 -16,-13 -18,-37 -5,-53 13,-16 37,-19 53,-5 16,13 18,37 5,53zm-415 -217c-8,10 -23,11 -33,3 -10,-8 -12,-23 -3,-33 8,-10 23,-12 33,-3 10,8 12,23 3,33zm-2374 1530c-13,16 -37,19 -53,5 -16,-13 -18,-37 -5,-53 13,-16 37,-18 53,-5 16,13 18,37 5,53zm1462 289c-8,10 -23,12 -33,3 -10,-8 -11,-23 -3,-33 8,-10 23,-12 33,-3 10,8 12,23 3,33zm-1275 -18c-13,16 -37,19 -53,5 -16,-13 -18,-37 -5,-53 13,-16 37,-18 53,-5 16,13 18,37 5,53zm-306 -769c-8,10 -23,12 -33,3 -10,-8 -11,-23 -3,-33 8,-10 23,-12 33,-3 10,8 12,23 3,33zm677 254c-16,19 -43,22 -62,6 -19,-16 -22,-43 -6,-62 16,-19 43,-22 62,-6 19,16 22,43 6,62zm-427 -751c21,0 38,17 38,38 0,21 -17,38 -38,38 -21,0 -38,-17 -38,-38 0,-21 17,-38 38,-38zm2784 1120c-8,10 -23,11 -33,3 -10,-8 -11,-23 -3,-33 8,-10 23,-12 33,-3 10,8 12,23 3,33zm-24 377c-9,12 -27,13 -38,4 -12,-9 -13,-27 -4,-38 9,-12 27,-13 38,-4 12,9 13,27 4,38zm-366 -1578c-8,10 -23,12 -33,3 -10,-8 -12,-23 -3,-33 8,-10 23,-11 33,-3 10,8 11,23 3,33zm-932 756c21,0 38,17 38,38 0,21 -17,38 -38,38 -21,0 -38,-17 -38,-38 0,-21 17,-38 38,-38zm-614 -83c30,0 54,24 54,54 0,30 -24,54 -54,54 -30,0 -54,-24 -54,-54 0,-30 24,-54 54,-54zm2831 -282c-8,10 -23,12 -33,3 -10,-8 -12,-23 -3,-33 8,-10 23,-11 33,-3 10,8 12,23 3,33zm633 463c-16,19 -43,22 -62,6 -19,-16 -22,-43 -6,-62 16,-19 43,-22 62,-6 19,16 22,43 6,62zm-139 -887c21,0 38,17 38,38 0,21 -17,38 -38,38 -21,0 -38,-17 -38,-38 0,-21 17,-38 38,-38zm1420 356c-13,16 -37,19 -53,5 -16,-13 -19,-37 -5,-53 13,-16 37,-19 53,-5 16,13 19,37 5,53zm-403 -170c-8,10 -23,12 -33,3 -10,-8 -11,-23 -3,-33 8,-10 23,-12 33,-3 10,8 12,23 3,33zm996 -306c-13,16 -37,19 -53,5 -16,-13 -19,-37 -5,-53 13,-16 37,-19 53,-5 16,13 19,37 5,53zm-415 -217c-8,10 -23,12 -33,3 -10,-8 -11,-23 -3,-33 8,-10 23,-12 33,-3 10,8 12,23 3,33zm-3357 1138c-13,16 -37,19 -53,5 -16,-13 -18,-37 -5,-53 13,-16 37,-18 53,-5 16,13 18,37 5,53zm2764 1138c-8,10 -23,12 -33,3 -10,-8 -12,-23 -3,-33 8,-10 23,-12 33,-3 10,8 12,23 3,33zm-1594 -475c-13,16 -37,19 -53,5 -16,-13 -19,-37 -5,-53 13,-16 37,-19 53,-5 16,13 19,37 5,53zm-306 -769c-8,10 -23,11 -33,3 -10,-8 -12,-23 -3,-33 8,-10 23,-12 33,-3 10,8 11,23 3,33zm426 -41c-16,19 -43,22 -62,6 -19,-16 -22,-43 -6,-62 16,-19 43,-22 62,-6 19,16 22,43 6,62zm-175 -455c21,0 38,17 38,38 0,21 -17,38 -38,38 -21,0 -38,-17 -38,-38 0,-21 17,-38 38,-38zm4041 2272c-13,16 -37,19 -53,5 -16,-13 -19,-37 -5,-53 13,-16 37,-19 53,-5 16,13 19,37 5,53zm-389 45c-8,10 -23,11 -33,3 -10,-8 -11,-23 -3,-33 8,-10 23,-11 33,-3 10,8 11,23 3,33zm127 -270c-8,10 -23,12 -33,3 -10,-8 -12,-23 -3,-33 8,-10 23,-12 33,-3 10,8 12,23 3,33zm812 -1014c17,0 30,13 30,30 0,17 -13,30 -30,30 -17,0 -30,-13 -30,-30 0,-17 13,-30 30,-30zm65 -394c-13,16 -37,19 -53,5 -16,-13 -19,-37 -5,-53 13,-16 37,-19 53,-5 16,13 19,37 5,53zm-350 161c-8,10 -23,12 -33,3 -10,-8 -12,-23 -3,-33 8,-10 23,-11 33,-3 10,8 11,23 3,33zm114 -437c-13,16 -37,19 -53,5 -16,-13 -19,-37 -5,-53 13,-16 37,-19 53,-5 16,13 19,37 5,53zm-799 -1037c-8,10 -23,12 -33,3 -10,-8 -12,-23 -3,-33 8,-10 23,-12 33,-3 10,8 12,23 3,33zm119 311c21,0 38,17 38,38 0,21 -17,38 -38,38 -21,0 -38,-17 -38,-38 0,-21 17,-38 38,-38zm-163 328c30,0 54,24 54,54 0,30 -24,54 -54,54 -30,0 -54,-24 -54,-54 0,-30 24,-54 54,-54zm-444 994c-13,16 -37,19 -53,5 -16,-13 -19,-37 -5,-53 13,-16 37,-19 53,-5 16,13 19,37 5,53zm-350 161c-8,10 -23,12 -33,3 -10,-8 -12,-23 -3,-33 8,-10 23,-11 33,-3 10,8 11,23 3,33zm-24 377c-9,12 -27,13 -38,4 -12,-9 -13,-27 -4,-38 9,-12 27,-13 38,-4 12,9 13,27 4,38zm138 -814c-13,16 -37,19 -53,5 -16,-13 -19,-37 -5,-53 13,-16 37,-19 53,-5 16,13 19,37 5,53zm-504 -763c-8,10 -23,12 -33,3 -10,-8 -12,-23 -3,-33 8,-10 23,-12 33,-3 10,8 12,23 3,33zm1374 952c-16,19 -43,22 -62,6 -19,-16 -22,-43 -6,-62 16,-19 43,-22 62,-6 19,16 22,43 6,62zm-2307 -196c21,0 38,17 38,38 0,21 -17,38 -38,38 -21,0 -38,-17 -38,-38 0,-21 17,-38 38,-38zm-163 328c30,0 54,24 54,54 0,30 -24,54 -54,54 -30,0 -54,-24 -54,-54 0,-30 24,-54 54,-54zm2792 315c-13,16 -37,19 -53,5 -16,-13 -19,-37 -5,-53 13,-16 37,-18 53,-5 16,13 19,37 5,53zm7838 1088c-8,10 -23,12 -33,3 -10,-8 -11,-23 -3,-33 8,-10 23,-11 33,-3 10,8 12,23 3,33zm222 249c-16,19 -43,22 -62,6 -19,-16 -22,-43 -6,-62 16,-19 43,-22 62,-6 19,16 22,43 6,62zm-6512 -272c-13,16 -37,19 -53,5 -16,-13 -18,-37 -5,-53 13,-16 37,-19 53,-5 16,13 18,37 5,53zm-389 45c-8,10 -23,12 -33,3 -10,-8 -12,-23 -3,-33 8,-10 23,-12 33,-3 10,8 12,23 3,33zm1401 -206c-16,20 -45,22 -65,6 -20,-16 -22,-45 -6,-65 16,-20 45,-22 65,-6 20,16 22,45 6,65zm-1275 -63c-8,10 -23,11 -33,3 -10,-8 -11,-23 -3,-33 8,-10 23,-12 33,-3 10,8 11,23 3,33zm3430 93c-13,16 -37,19 -53,5 -16,-13 -19,-37 -5,-53 13,-16 37,-18 53,-5 16,13 19,37 5,53zm-224 550c-8,10 -23,12 -33,3 -10,-8 -12,-23 -3,-33 8,-10 23,-12 33,-3 10,8 12,23 3,33zm-352 -223c-19,23 -53,26 -76,7 -23,-19 -26,-53 -7,-76 19,-23 53,-26 76,-7 23,19 26,53 7,76zm-1232 -309c-8,10 -23,12 -33,3 -10,-8 -11,-23 -3,-33 8,-10 23,-12 33,-3 10,8 12,23 3,33zm747 -149c21,0 38,17 38,38 0,21 -17,38 -38,38 -21,0 -38,-17 -38,-38 0,-21 17,-38 38,-38zm2205 142c42,0 76,34 76,76 0,42 -34,76 -76,76 -42,0 -76,-34 -76,-76 0,-42 34,-76 76,-76zm-4301 -1975c-8,10 -23,12 -33,3 -10,-8 -12,-23 -3,-33 8,-10 23,-12 33,-3 10,8 12,23 3,33zm426 -41c-16,19 -43,22 -62,6 -19,-16 -22,-43 -6,-62 16,-19 43,-22 62,-6 19,16 22,43 6,62zm68 -382c21,0 38,17 38,38 0,21 -17,38 -38,38 -21,0 -38,-17 -38,-38 0,-21 17,-38 38,-38zm1420 356c-13,16 -37,19 -53,5 -16,-13 -18,-37 -5,-53 13,-16 37,-19 53,-5 16,13 19,37 5,53zm-403 -170c-8,10 -23,12 -33,3 -10,-8 -12,-23 -3,-33 8,-10 23,-12 33,-3 10,8 11,23 3,33zm996 -306c-13,16 -37,19 -53,5 -16,-13 -19,-37 -5,-53 13,-16 37,-18 53,-5 16,13 19,37 5,53zm-415 -217c-8,10 -23,12 -33,3 -10,-8 -12,-23 -3,-33 8,-10 23,-12 33,-3 10,8 11,23 3,33zm-2374 1530c-13,16 -37,19 -53,5 -16,-13 -19,-37 -5,-53 13,-16 37,-19 53,-5 16,13 19,37 5,53zm1462 289c-8,10 -23,11 -33,3 -10,-8 -12,-23 -3,-33 8,-10 23,-12 33,-3 10,8 12,23 3,33zm-1275 -18c-13,16 -37,19 -53,5 -16,-13 -19,-37 -5,-53 13,-16 37,-19 53,-5 16,13 19,37 5,53zm-306 -769c-8,10 -23,12 -33,3 -10,-8 -12,-23 -3,-33 8,-10 23,-11 33,-3 10,8 12,23 3,33zm677 254c-16,19 -43,22 -62,6 -19,-16 -22,-43 -6,-62 16,-19 43,-22 62,-6 19,16 22,43 6,62zm-427 -751c21,0 38,17 38,38 0,21 -17,38 -38,38 -21,0 -38,-17 -38,-38 0,-21 17,-38 38,-38zm2784 1120c-8,10 -23,12 -33,3 -10,-8 -12,-23 -3,-33 8,-10 23,-12 33,-3 10,8 12,23 3,33zm-24 377c-9,12 -27,13 -38,4 -12,-9 -13,-27 -4,-38 9,-12 27,-13 38,-4 12,9 13,27 4,38zm-366 -1578c-8,10 -23,11 -33,3 -10,-8 -11,-23 -3,-33 8,-10 23,-12 33,-3 10,8 12,23 3,33zm-932 756c21,0 38,17 38,38 0,21 -17,38 -38,38 -21,0 -38,-17 -38,-38 0,-21 17,-38 38,-38zm-614 -82c30,0 54,24 54,54 0,30 -24,54 -54,54 -30,0 -54,-24 -54,-54 0,-30 24,-54 54,-54zm10793 598c-13,16 -37,19 -53,5 -16,-13 -19,-37 -5,-53 13,-16 37,-19 53,-5 16,13 19,37 5,53zm-389 45c-8,10 -23,11 -33,3 -10,-8 -11,-23 -3,-33 8,-10 23,-12 33,-3 10,8 12,23 3,33zm127 -270c-8,10 -23,12 -33,3 -10,-8 -12,-23 -3,-33 8,-10 23,-12 33,-3 10,8 12,23 3,33zm1170 -115c30,0 54,24 54,54 0,30 -24,54 -54,54 -30,0 -54,-24 -54,-54 0,-30 24,-54 54,-54zm-3475 -1468c-8,10 -23,12 -33,3 -10,-8 -11,-23 -3,-33 8,-10 23,-12 33,-3 10,8 12,23 3,33zm124 472c-13,16 -37,19 -53,5 -16,-13 -19,-37 -5,-53 13,-16 37,-18 53,-5 16,13 19,37 5,53zm-405 -322c-8,10 -23,12 -33,3 -10,-8 -12,-23 -3,-33 8,-10 23,-11 33,-3 10,8 12,23 3,33zm5067 2381c-8,10 -23,11 -33,3 -10,-8 -12,-23 -3,-33 8,-10 23,-11 33,-3 10,8 11,23 3,33zm222 249c-16,19 -43,22 -62,6 -19,-16 -22,-43 -6,-62 16,-19 43,-22 62,-6 19,16 22,43 6,62zm-107 -735c21,0 38,17 38,38 0,21 -17,38 -38,38 -21,0 -38,-17 -38,-38 0,-21 17,-38 38,-38zm-10296 -1119c-8,10 -23,12 -33,3 -10,-8 -12,-23 -3,-33 8,-10 23,-12 33,-3 10,8 11,23 3,33zm633 463c-16,19 -43,22 -62,6 -19,-16 -22,-43 -6,-62 16,-19 43,-22 62,-6 19,16 22,43 6,62zm-139 -887c21,0 38,17 38,38 0,21 -17,38 -38,38 -21,0 -38,-17 -38,-38 0,-21 17,-38 38,-38zm1420 356c-13,16 -37,19 -53,5 -16,-13 -19,-37 -5,-53 13,-16 37,-18 53,-5 16,13 19,37 5,53zm-403 -170c-8,10 -23,11 -33,3 -10,-8 -12,-23 -3,-33 8,-10 23,-11 33,-3 10,8 12,23 3,33zm996 -306c-13,16 -37,19 -53,5 -16,-13 -19,-37 -5,-53 13,-16 37,-19 53,-5 16,13 19,37 5,53zm-415 -217c-8,10 -23,11 -33,3 -10,-8 -12,-23 -3,-33 8,-10 23,-12 33,-3 10,8 12,23 3,33zm5400 58c21,0 38,17 38,38 0,21 -17,38 -38,38 -21,0 -38,-17 -38,-38 0,-21 17,-38 38,-38zm498 182c30,0 54,24 54,54 0,30 -24,54 -54,54 -30,0 -54,-24 -54,-54 0,-30 24,-54 54,-54zm1216 899c-8,10 -23,12 -33,3 -10,-8 -12,-23 -3,-33 8,-10 23,-12 33,-3 10,8 12,23 3,33zm-62 -388c-8,10 -23,12 -33,3 -10,-8 -12,-23 -3,-33 8,-10 23,-12 33,-3 10,8 11,23 3,33zm-627 -172c21,0 38,17 38,38 0,21 -17,38 -38,38 -21,0 -38,-17 -38,-38 0,-21 17,-38 38,-38zm-92 -1128c30,0 54,24 54,54 0,30 -24,54 -54,54 -30,0 -54,-24 -54,-54 0,-30 24,-54 54,-54zm2295 1873c-8,10 -23,11 -33,3 -10,-8 -12,-23 -3,-33 8,-10 23,-12 33,-3 10,8 12,23 3,33zm-540 -617c-16,20 -45,22 -65,6 -20,-16 -22,-45 -6,-65 16,-20 45,-22 65,-6 20,16 22,45 6,65zm233 -374c-13,16 -37,19 -53,5 -16,-13 -19,-37 -5,-53 13,-16 37,-19 53,-5 16,13 19,37 5,53zm168 503c-8,10 -23,11 -33,3 -10,-8 -12,-23 -3,-33 8,-10 23,-12 33,-3 10,8 11,23 3,33zm250 -371c-19,23 -53,26 -76,7 -23,-19 -26,-53 -7,-76 19,-23 53,-26 76,-7 23,19 26,53 7,76zm-12095 673c-13,16 -37,19 -53,5 -16,-13 -19,-37 -5,-53 13,-16 37,-19 53,-5 16,13 19,37 5,53zm2764 1138c-8,10 -23,12 -33,3 -10,-8 -12,-23 -3,-33 8,-10 23,-11 33,-3 10,8 11,23 3,33zm-1594 -475c-13,16 -37,19 -53,5 -16,-13 -18,-37 -5,-53 13,-16 37,-19 53,-5 16,13 18,37 5,53zm-306 -769c-8,10 -23,12 -33,3 -10,-8 -11,-23 -3,-33 8,-10 23,-12 33,-3 10,8 12,23 3,33zm426 -41c-16,19 -43,22 -62,6 -19,-16 -22,-43 -6,-62 16,-19 43,-22 62,-6 19,16 22,43 6,62zm-175 -455c21,0 38,17 38,38 0,21 -17,38 -38,38 -21,0 -38,-17 -38,-38 0,-21 17,-38 38,-38zm5767 1046c-13,16 -37,19 -53,5 -16,-13 -18,-37 -5,-53 13,-16 37,-19 53,-5 16,13 18,37 5,53zm-839 -1638c-8,10 -23,12 -33,3 -10,-8 -11,-23 -3,-33 8,-10 23,-12 33,-3 10,8 11,23 3,33zm-887 2865c-13,16 -37,19 -53,5 -16,-13 -18,-37 -5,-53 13,-16 37,-18 53,-5 16,13 18,37 5,53zm-389 45c-8,10 -23,12 -33,3 -10,-8 -12,-23 -3,-33 8,-10 23,-12 33,-3 10,8 12,23 3,33zm1401 -672c-16,20 -45,22 -65,6 -20,-16 -22,-45 -6,-65 16,-20 45,-22 65,-6 20,16 22,45 6,65zm-1275 402c-8,10 -23,12 -33,3 -10,-8 -12,-23 -3,-33 8,-10 23,-11 33,-3 10,8 11,23 3,33zm812 -1014c17,0 30,13 30,30 0,17 -13,30 -30,30 -17,0 -30,-13 -30,-30 0,-17 13,-30 30,-30zm65 -394c-13,16 -37,19 -53,5 -16,-13 -19,-37 -5,-53 13,-16 37,-18 53,-5 16,13 19,37 5,53zm-350 161c-8,10 -23,12 -33,3 -10,-8 -12,-23 -3,-33 8,-10 23,-12 33,-3 10,8 12,23 3,33zm114 -437c-13,16 -37,19 -53,5 -16,-13 -19,-37 -5,-53 13,-16 37,-19 53,-5 16,13 19,37 5,53zm-799 -1037c-8,10 -23,12 -33,3 -10,-8 -11,-23 -3,-33 8,-10 23,-12 33,-3 10,8 12,23 3,33zm119 311c21,0 38,17 38,38 0,21 -17,38 -38,38 -21,0 -38,-17 -38,-38 0,-21 17,-38 38,-38zm-163 328c30,0 54,24 54,54 0,30 -24,54 -54,54 -30,0 -54,-24 -54,-54 0,-30 24,-54 54,-54zm-444 994c-13,16 -37,19 -53,5 -16,-13 -18,-37 -5,-53 13,-16 37,-18 53,-5 16,13 18,37 5,53zm-350 161c-8,10 -23,11 -33,3 -10,-8 -11,-23 -3,-33 8,-10 23,-12 33,-3 10,8 12,23 3,33zm-24 377c-9,12 -27,13 -38,4 -12,-10 -13,-27 -4,-38 9,-12 27,-13 38,-4 12,9 13,27 4,38zm138 -814c-13,16 -37,19 -53,5 -16,-13 -19,-37 -5,-53 13,-16 37,-19 53,-5 16,13 19,37 5,53zm-504 -763c-8,10 -23,12 -33,3 -10,-8 -12,-23 -3,-33 8,-10 23,-11 33,-3 10,8 11,23 3,33zm1375 952c-16,19 -43,22 -62,6 -19,-16 -22,-43 -6,-62 16,-19 43,-22 62,-6 19,16 22,43 6,62zm-2307 -196c21,0 38,17 38,38 0,21 -17,38 -38,38 -21,0 -38,-17 -38,-38 0,-21 17,-38 38,-38zm-163 328c30,0 54,24 54,54 0,30 -24,54 -54,54 -30,0 -54,-24 -54,-54 0,-30 24,-54 54,-54zm5910 671c-13,16 -37,19 -53,5 -16,-13 -18,-37 -5,-53 13,-16 37,-19 53,-5 16,13 18,37 5,53zm-224 550c-8,10 -23,12 -33,3 -10,-8 -12,-23 -3,-33 8,-10 23,-12 33,-3 10,8 12,23 3,33zm-352 -223c-19,23 -53,26 -76,7 -23,-19 -26,-53 -7,-76 19,-23 53,-26 76,-7 23,19 26,53 7,76zm-2543 -684c-13,16 -37,19 -53,5 -16,-13 -18,-37 -5,-53 13,-16 37,-19 53,-5 16,13 18,37 5,53zm1311 375c-8,10 -23,12 -33,3 -10,-8 -12,-23 -3,-33 8,-10 23,-12 33,-3 10,8 12,23 3,33zm435 -1360c-19,23 -53,26 -76,7 -23,-19 -26,-53 -7,-76 19,-23 53,-26 76,-7 23,19 26,53 7,76zm1289 146c-13,16 -37,19 -53,5 -16,-13 -19,-37 -5,-53 13,-16 37,-19 53,-5 16,13 19,37 5,53zm-113 248c-8,10 -23,12 -33,3 -10,-8 -11,-23 -3,-33 8,-10 23,-12 33,-3 10,8 12,23 3,33zm-154 -945c-19,23 -53,26 -76,7 -23,-19 -26,-53 -7,-76 19,-23 53,-26 76,-7 23,19 26,53 7,76zm-711 1761c21,0 38,17 38,38 0,21 -17,38 -38,38 -21,0 -38,-17 -38,-38 0,-21 17,-38 38,-38zm488 -146c42,0 76,34 76,76 0,42 -34,76 -76,76 -42,0 -76,-34 -76,-76 0,-42 34,-76 76,-76zm-1359 -1568c30,0 54,24 54,54 0,30 -24,54 -54,54 -30,0 -54,-24 -54,-54 0,-30 24,-54 54,-54zm3532 1411c21,0 38,17 38,38 0,21 -17,38 -38,38 -21,0 -38,-17 -38,-38 0,-21 17,-38 38,-38zm-70 733c42,0 76,34 76,76 0,42 -34,76 -76,76 -42,0 -76,-34 -76,-76 0,-42 34,-76 76,-76zm-14868 6652c-8,10 -23,12 -33,3 -10,-8 -12,-23 -3,-33 8,-10 23,-12 33,-3 10,8 11,23 3,33zm222 249c-16,19 -43,22 -62,6 -19,-16 -22,-43 -6,-62 16,-19 43,-22 62,-6 19,16 22,43 6,62zm-6512 -272c-13,16 -37,19 -53,5 -16,-13 -19,-37 -5,-53 13,-16 37,-18 53,-5 16,13 19,37 5,53zm-389 45c-8,10 -23,12 -33,3 -10,-8 -11,-23 -3,-33 8,-10 23,-12 33,-3 10,8 12,23 3,33zm1401 -206c-16,20 -45,22 -65,6 -20,-16 -22,-45 -6,-65 16,-20 45,-22 65,-6 20,16 22,45 6,65zm-1275 -63c-8,10 -23,11 -33,3 -10,-8 -12,-23 -3,-33 8,-10 23,-11 33,-3 10,8 12,23 3,33zm3430 93c-13,16 -37,19 -53,5 -16,-13 -18,-37 -5,-53 13,-16 37,-18 53,-5 16,13 18,37 5,53zm-1808 18c-8,10 -23,12 -33,3 -10,-8 -12,-23 -3,-33 8,-10 23,-12 33,-3 10,8 12,23 3,33zm747 -149c21,0 38,17 38,38 0,21 -17,38 -38,38 -21,0 -38,-17 -38,-38 0,-21 17,-38 38,-38zm2205 142c42,0 76,34 76,76 0,42 -34,76 -76,76 -42,0 -76,-34 -76,-76 0,-42 34,-76 76,-76zm-4301 -1975c-8,10 -23,12 -33,3 -10,-8 -12,-23 -3,-33 8,-10 23,-12 33,-3 10,8 11,23 3,33zm426 -41c-16,19 -43,22 -62,6 -19,-16 -22,-43 -6,-62 16,-19 43,-22 62,-6 19,16 22,43 6,62zm68 -382c21,0 38,17 38,38 0,21 -17,38 -38,38 -21,0 -38,-17 -38,-38 0,-21 17,-38 38,-38zm1420 356c-13,16 -37,19 -53,5 -16,-13 -19,-37 -5,-53 13,-16 37,-19 53,-5 16,13 19,37 5,53zm-403 -170c-8,10 -23,11 -33,3 -10,-8 -12,-23 -3,-33 8,-10 23,-12 33,-3 10,8 12,23 3,33zm996 -306c-13,16 -37,19 -53,5 -16,-13 -18,-37 -5,-53 13,-16 37,-18 53,-5 16,13 18,37 5,53zm-415 -217c-8,10 -23,12 -33,3 -10,-8 -12,-23 -3,-33 8,-10 23,-12 33,-3 10,8 12,23 3,33zm-2374 1530c-13,16 -37,19 -53,5 -16,-13 -18,-37 -5,-53 13,-16 37,-19 53,-5 16,13 18,37 5,53zm1462 289c-8,10 -23,11 -33,3 -10,-8 -11,-23 -3,-33 8,-10 23,-11 33,-3 10,8 12,23 3,33zm-1275 -18c-13,16 -37,19 -53,5 -16,-13 -18,-37 -5,-53 13,-16 37,-19 53,-5 16,13 18,37 5,53zm-306 -769c-8,10 -23,12 -33,3 -10,-8 -11,-23 -3,-33 8,-10 23,-11 33,-3 10,8 12,23 3,33zm677 254c-16,19 -43,22 -62,6 -19,-16 -22,-43 -6,-62 16,-19 43,-22 62,-6 19,16 22,43 6,62zm-427 -751c21,0 38,17 38,38 0,21 -17,38 -38,38 -21,0 -38,-17 -38,-38 0,-21 17,-38 38,-38zm2784 1120c-8,10 -23,12 -33,3 -10,-8 -11,-23 -3,-33 8,-10 23,-12 33,-3 10,8 12,23 3,33zm-24 377c-9,12 -27,13 -38,4 -12,-10 -13,-27 -4,-38 9,-12 27,-13 38,-4 12,9 13,27 4,38zm-366 -1578c-8,10 -23,11 -33,3 -10,-8 -12,-23 -3,-33 8,-10 23,-11 33,-3 10,8 11,23 3,33zm-932 756c21,0 38,17 38,38 0,21 -17,38 -38,38 -21,0 -38,-17 -38,-38 0,-21 17,-38 38,-38zm-614 -82c30,0 54,24 54,54 0,30 -24,54 -54,54 -30,0 -54,-24 -54,-54 0,-30 24,-54 54,-54zm2831 -282c-8,10 -23,12 -33,3 -10,-8 -12,-23 -3,-33 8,-10 23,-12 33,-3 10,8 12,23 3,33zm633 463c-16,19 -43,22 -62,6 -19,-16 -22,-43 -6,-62 16,-19 43,-22 62,-6 19,16 22,43 6,62zm-139 -887c21,0 38,17 38,38 0,21 -17,38 -38,38 -21,0 -38,-17 -38,-38 0,-21 17,-38 38,-38zm1420 356c-13,16 -37,19 -53,5 -16,-13 -19,-37 -5,-53 13,-16 37,-19 53,-5 16,13 19,37 5,53zm-403 -170c-8,10 -23,12 -33,3 -10,-8 -11,-23 -3,-33 8,-10 23,-11 33,-3 10,8 12,23 3,33zm996 -306c-13,16 -37,19 -53,5 -16,-13 -19,-37 -5,-53 13,-16 37,-19 53,-5 16,13 19,37 5,53zm-415 -217c-8,10 -23,11 -33,3 -10,-8 -11,-23 -3,-33 8,-10 23,-11 33,-3 10,8 12,23 3,33zm-3357 1138c-13,16 -37,19 -53,5 -16,-13 -18,-37 -5,-53 13,-16 37,-19 53,-5 16,13 18,37 5,53zm2764 1138c-8,10 -23,12 -33,3 -10,-8 -12,-23 -3,-33 8,-10 23,-12 33,-3 10,8 12,23 3,33zm-1594 -475c-13,16 -37,19 -53,5 -16,-13 -19,-37 -5,-53 13,-16 37,-18 53,-5 16,13 19,37 5,53zm-306 -769c-8,10 -23,12 -33,3 -10,-8 -12,-23 -3,-33 8,-10 23,-12 33,-3 10,8 11,23 3,33zm426 -41c-16,19 -43,22 -62,6 -19,-16 -22,-43 -6,-62 16,-19 43,-22 62,-6 19,16 22,43 6,62zm-175 -455c21,0 38,17 38,38 0,21 -17,38 -38,38 -21,0 -38,-17 -38,-38 0,-21 17,-38 38,-38zm4041 2272c-13,16 -37,19 -53,5 -16,-13 -19,-37 -5,-53 13,-16 37,-19 53,-5 16,13 19,37 5,53zm-389 45c-8,10 -23,11 -33,3 -10,-8 -11,-23 -3,-33 8,-10 23,-12 33,-3 10,8 11,23 3,33zm127 -270c-8,10 -23,12 -33,3 -10,-8 -12,-23 -3,-33 8,-10 23,-12 33,-3 10,8 12,23 3,33zm812 -1014c17,0 30,13 30,30 0,17 -13,30 -30,30 -17,0 -30,-13 -30,-30 0,-17 13,-30 30,-30zm65 -394c-13,16 -37,19 -53,5 -16,-13 -19,-37 -5,-53 13,-16 37,-18 53,-5 16,13 19,37 5,53zm-350 161c-8,10 -23,11 -33,3 -10,-8 -12,-23 -3,-33 8,-10 23,-12 33,-3 10,8 11,23 3,33zm114 -437c-13,16 -37,19 -53,5 -16,-13 -19,-37 -5,-53 13,-16 37,-19 53,-5 16,13 19,37 5,53zm-799 -1037c-8,10 -23,12 -33,3 -10,-8 -12,-23 -3,-33 8,-10 23,-12 33,-3 10,8 12,23 3,33zm119 311c21,0 38,17 38,38 0,21 -17,38 -38,38 -21,0 -38,-17 -38,-38 0,-21 17,-38 38,-38zm-163 328c30,0 54,24 54,54 0,30 -24,54 -54,54 -30,0 -54,-24 -54,-54 0,-30 24,-54 54,-54zm-444 994c-13,16 -37,19 -53,5 -16,-13 -19,-37 -5,-53 13,-16 37,-19 53,-5 16,13 19,37 5,53zm-350 161c-8,10 -23,11 -33,3 -10,-8 -12,-23 -3,-33 8,-10 23,-12 33,-3 10,8 11,23 3,33zm-24 377c-9,12 -27,13 -38,4 -12,-9 -13,-27 -4,-38 9,-12 27,-13 38,-4 12,10 13,27 4,38zm138 -814c-13,16 -37,19 -53,5 -16,-13 -19,-37 -5,-53 13,-16 37,-19 53,-5 16,13 19,37 5,53zm-504 -763c-8,10 -23,12 -33,3 -10,-8 -12,-23 -3,-33 8,-10 23,-12 33,-3 10,8 12,23 3,33zm1374 952c-16,19 -43,22 -62,6 -19,-16 -22,-43 -6,-62 16,-19 43,-22 62,-6 19,16 22,43 6,62zm-2307 -196c21,0 38,17 38,38 0,21 -17,38 -38,38 -21,0 -38,-17 -38,-38 0,-21 17,-38 38,-38zm-163 328c30,0 54,24 54,54 0,30 -24,54 -54,54 -30,0 -54,-24 -54,-54 0,-30 24,-54 54,-54zm2792 315c-13,16 -37,19 -53,5 -16,-13 -19,-37 -5,-53 13,-16 37,-19 53,-5 16,13 19,37 5,53zm1159 1110c-8,10 -23,11 -33,3 -10,-8 -12,-23 -3,-33 8,-10 23,-11 33,-3 10,8 12,23 3,33zm127 -270c-8,10 -23,12 -33,3 -10,-8 -11,-23 -3,-33 8,-10 23,-12 33,-3 10,8 11,23 3,33zm3430 93c-13,16 -37,19 -53,5 -16,-13 -19,-37 -5,-53 13,-16 37,-19 53,-5 16,13 19,37 5,53zm-576 327c-19,23 -53,26 -76,7 -23,-19 -26,-53 -7,-76 19,-23 53,-26 76,-7 23,19 26,53 7,76zm-1232 -309c-8,10 -23,11 -33,3 -10,-8 -11,-23 -3,-33 8,-10 23,-12 33,-3 10,8 12,23 3,33zm747 -149c21,0 38,17 38,38 0,21 -17,38 -38,38 -21,0 -38,-17 -38,-38 0,-21 17,-38 38,-38zm-2095 -1833c-8,10 -23,12 -33,3 -10,-8 -12,-23 -3,-33 8,-10 23,-11 33,-3 10,8 12,23 3,33zm426 -41c-16,19 -43,22 -62,6 -19,-16 -22,-43 -6,-62 16,-19 43,-22 62,-6 19,16 22,43 6,62zm68 -382c21,0 38,17 38,38 0,21 -17,38 -38,38 -21,0 -38,-17 -38,-38 0,-21 17,-38 38,-38zm1420 356c-13,16 -37,19 -53,5 -16,-13 -18,-37 -5,-53 13,-16 37,-19 53,-5 16,13 19,37 5,53zm-403 -170c-8,10 -23,12 -33,3 -10,-8 -12,-23 -3,-33 8,-10 23,-12 33,-3 10,8 11,23 3,33zm996 -306c-13,16 -37,19 -53,5 -16,-13 -19,-37 -5,-53 13,-16 37,-19 53,-5 16,13 19,37 5,53zm-415 -217c-8,10 -23,12 -33,3 -10,-8 -12,-23 -3,-33 8,-10 23,-12 33,-3 10,8 11,23 3,33zm-2374 1530c-13,16 -37,19 -53,5 -16,-13 -19,-37 -5,-53 13,-16 37,-19 53,-5 16,13 19,37 5,53zm1462 289c-8,10 -23,12 -33,3 -10,-8 -12,-23 -3,-33 8,-10 23,-12 33,-3 10,8 12,23 3,33zm-1275 -18c-13,16 -37,19 -53,5 -16,-13 -19,-37 -5,-53 13,-16 37,-19 53,-5 16,13 19,37 5,53zm-306 -769c-8,10 -23,11 -33,3 -10,-8 -12,-23 -3,-33 8,-10 23,-12 33,-3 10,8 12,23 3,33zm677 254c-16,19 -43,22 -62,6 -19,-16 -22,-43 -6,-62 16,-19 43,-22 62,-6 19,16 22,43 6,62zm-427 -751c21,0 38,17 38,38 0,21 -17,38 -38,38 -21,0 -38,-17 -38,-38 0,-21 17,-38 38,-38zm2784 1120c-8,10 -23,12 -33,3 -10,-8 -12,-23 -3,-33 8,-10 23,-11 33,-3 10,8 12,23 3,33zm-24 377c-9,12 -27,13 -38,4 -12,-9 -13,-27 -4,-38 9,-12 27,-13 38,-4 12,10 13,27 4,38zm-366 -1578c-8,10 -23,12 -33,3 -10,-8 -11,-23 -3,-33 8,-10 23,-12 33,-3 10,8 12,23 3,33zm-932 756c21,0 38,17 38,38 0,21 -17,38 -38,38 -21,0 -38,-17 -38,-38 0,-21 17,-38 38,-38zm-614 -83c30,0 54,24 54,54 0,30 -24,54 -54,54 -30,0 -54,-24 -54,-54 0,-30 24,-54 54,-54zm11701 258c30,0 54,24 54,54 0,30 -24,54 -54,54 -30,0 -54,-24 -54,-54 0,-30 24,-54 54,-54zm-3475 -1468c-8,10 -23,12 -33,3 -10,-8 -11,-23 -3,-33 8,-10 23,-11 33,-3 10,8 12,23 3,33zm124 472c-13,16 -37,19 -53,5 -16,-13 -19,-37 -5,-53 13,-16 37,-19 53,-5 16,13 19,37 5,53zm-405 -321c-8,10 -23,11 -33,3 -10,-8 -12,-23 -3,-33 8,-10 23,-12 33,-3 10,8 12,23 3,33zm5067 2381c-8,10 -23,12 -33,3 -10,-8 -12,-23 -3,-33 8,-10 23,-12 33,-3 10,8 11,23 3,33zm222 249c-16,19 -43,22 -62,6 -19,-16 -22,-43 -6,-62 16,-19 43,-22 62,-6 19,16 22,43 6,62zm-107 -735c21,0 38,17 38,38 0,21 -17,38 -38,38 -21,0 -38,-17 -38,-38 0,-21 17,-38 38,-38zm-10296 -1119c-8,10 -23,12 -33,3 -10,-8 -12,-23 -3,-33 8,-10 23,-12 33,-3 10,8 11,23 3,33zm633 463c-16,19 -43,22 -62,6 -19,-16 -22,-43 -6,-62 16,-19 43,-22 62,-6 19,16 22,43 6,62zm-139 -887c21,0 38,17 38,38 0,21 -17,38 -38,38 -21,0 -38,-17 -38,-38 0,-21 17,-38 38,-38zm1420 356c-13,16 -37,19 -53,5 -16,-13 -19,-37 -5,-53 13,-16 37,-19 53,-5 16,13 19,37 5,53zm-403 -170c-8,10 -23,11 -33,3 -10,-8 -12,-23 -3,-33 8,-10 23,-12 33,-3 10,8 12,23 3,33zm996 -306c-13,16 -37,19 -53,5 -16,-13 -19,-37 -5,-53 13,-16 37,-18 53,-5 16,13 19,37 5,53zm-415 -217c-8,10 -23,12 -33,3 -10,-8 -12,-23 -3,-33 8,-10 23,-12 33,-3 10,8 12,23 3,33zm5400 58c21,0 38,17 38,38 0,21 -17,38 -38,38 -21,0 -38,-17 -38,-38 0,-21 17,-38 38,-38zm498 182c30,0 54,24 54,54 0,30 -24,54 -54,54 -30,0 -54,-24 -54,-54 0,-30 24,-54 54,-54zm1216 899c-8,10 -23,12 -33,3 -10,-8 -12,-23 -3,-33 8,-10 23,-12 33,-3 10,8 12,23 3,33zm-62 -388c-8,10 -23,12 -33,3 -10,-8 -12,-23 -3,-33 8,-10 23,-11 33,-3 10,8 11,23 3,33zm-627 -172c21,0 38,17 38,38 0,21 -17,38 -38,38 -21,0 -38,-17 -38,-38 0,-21 17,-38 38,-38zm2203 745c-8,10 -23,12 -33,3 -10,-8 -12,-23 -3,-33 8,-10 23,-12 33,-3 10,8 12,23 3,33zm-540 -617c-16,20 -45,22 -65,6 -20,-16 -22,-45 -6,-65 16,-20 45,-22 65,-6 20,16 22,45 6,65zm233 -374c-13,16 -37,19 -53,5 -16,-13 -19,-37 -5,-53 13,-16 37,-19 53,-5 16,13 19,37 5,53zm168 503c-8,10 -23,12 -33,3 -10,-8 -12,-23 -3,-33 8,-10 23,-12 33,-3 10,8 11,23 3,33zm250 -371c-19,23 -53,26 -76,7 -23,-19 -26,-53 -7,-76 19,-23 53,-26 76,-7 23,19 26,53 7,76zm-12095 673c-13,16 -37,19 -53,5 -16,-13 -19,-37 -5,-53 13,-16 37,-19 53,-5 16,13 19,37 5,53zm2764 1138c-8,10 -23,11 -33,3 -10,-8 -12,-23 -3,-33 8,-10 23,-11 33,-3 10,8 11,23 3,33zm-1594 -475c-13,16 -37,19 -53,5 -16,-13 -18,-37 -5,-53 13,-16 37,-19 53,-5 16,13 18,37 5,53zm-306 -769c-8,10 -23,12 -33,3 -10,-8 -11,-23 -3,-33 8,-10 23,-11 33,-3 10,8 12,23 3,33zm426 -41c-16,19 -43,22 -62,6 -19,-16 -22,-43 -6,-62 16,-19 43,-22 62,-6 19,16 22,43 6,62zm-175 -455c21,0 38,17 38,38 0,21 -17,38 -38,38 -21,0 -38,-17 -38,-38 0,-21 17,-38 38,-38zm5767 1046c-13,16 -37,19 -53,5 -16,-13 -18,-37 -5,-53 13,-16 37,-18 53,-5 16,13 18,37 5,53zm-839 -1638c-8,10 -23,12 -33,3 -10,-8 -11,-23 -3,-33 8,-10 23,-11 33,-3 10,8 11,23 3,33zm-337 1626c17,0 30,13 30,30 0,17 -13,30 -30,30 -17,0 -30,-13 -30,-30 0,-17 13,-30 30,-30zm65 -394c-13,16 -37,19 -53,5 -16,-13 -19,-37 -5,-53 13,-16 37,-19 53,-5 16,13 19,37 5,53zm-350 161c-8,10 -23,12 -33,3 -10,-8 -12,-23 -3,-33 8,-10 23,-12 33,-3 10,8 12,23 3,33zm114 -437c-13,16 -37,19 -53,5 -16,-13 -19,-37 -5,-53 13,-16 37,-18 53,-5 16,13 19,37 5,53zm-799 -1037c-8,10 -23,11 -33,3 -10,-8 -11,-23 -3,-33 8,-10 23,-12 33,-3 10,8 12,23 3,33zm119 311c21,0 38,17 38,38 0,21 -17,38 -38,38 -21,0 -38,-17 -38,-38 0,-21 17,-38 38,-38zm-163 328c30,0 54,24 54,54 0,30 -24,54 -54,54 -30,0 -54,-24 -54,-54 0,-30 24,-54 54,-54zm-444 994c-13,16 -37,19 -53,5 -16,-13 -18,-37 -5,-53 13,-16 37,-19 53,-5 16,13 18,37 5,53zm-350 161c-8,10 -23,12 -33,3 -10,-8 -11,-23 -3,-33 8,-10 23,-12 33,-3 10,8 12,23 3,33zm-24 377c-9,12 -27,13 -38,4 -12,-10 -13,-27 -4,-38 9,-12 27,-13 38,-4 12,9 13,27 4,38zm138 -814c-13,16 -37,19 -53,5 -16,-13 -19,-37 -5,-53 13,-16 37,-18 53,-5 16,13 19,37 5,53zm-504 -763c-8,10 -23,11 -33,3 -10,-8 -12,-23 -3,-33 8,-10 23,-12 33,-3 10,8 11,23 3,33zm1375 952c-16,19 -43,22 -62,6 -19,-16 -22,-43 -6,-62 16,-19 43,-22 62,-6 19,16 22,43 6,62zm-2307 -196c21,0 38,17 38,38 0,21 -17,38 -38,38 -21,0 -38,-17 -38,-38 0,-21 17,-38 38,-38zm-163 328c30,0 54,24 54,54 0,30 -24,54 -54,54 -30,0 -54,-24 -54,-54 0,-30 24,-54 54,-54zm2792 315c-13,16 -37,19 -53,5 -16,-13 -18,-37 -5,-53 13,-16 37,-19 53,-5 16,13 18,37 5,53zm1746 -985c-19,23 -53,26 -76,7 -23,-19 -26,-53 -7,-76 19,-23 53,-26 76,-7 23,19 26,53 7,76zm1023 -551c-19,23 -53,26 -76,7 -23,-19 -26,-53 -7,-76 19,-23 53,-26 76,-7 23,19 26,53 7,76zm-1583 48c30,0 54,24 54,54 0,30 -24,54 -54,54 -30,0 -54,-24 -54,-54 0,-30 24,-54 54,-54zm3532 1410c21,0 38,17 38,38 0,21 -17,38 -38,38 -21,0 -38,-17 -38,-38 0,-21 17,-38 38,-38zm-15010 -2238c-8,10 -23,11 -33,3 -10,-8 -11,-23 -3,-33 8,-10 23,-11 33,-3 10,8 12,23 3,33zm222 249c-16,19 -43,22 -62,6 -19,-16 -22,-43 -6,-62 16,-19 43,-22 62,-6 19,16 22,43 6,62zm-6512 -272c-13,16 -37,19 -53,5 -16,-13 -18,-37 -5,-53 13,-16 37,-19 53,-5 16,13 18,37 5,53zm-389 45c-8,10 -23,12 -33,3 -10,-8 -12,-23 -3,-33 8,-10 23,-11 33,-3 10,8 12,23 3,33zm1401 -206c-16,20 -45,22 -65,6 -20,-16 -22,-45 -6,-65 16,-20 45,-22 65,-6 20,16 22,45 6,65zm-1275 -63c-8,10 -23,12 -33,3 -10,-8 -11,-23 -3,-33 8,-10 23,-12 33,-3 10,8 11,23 3,33zm3430 93c-13,16 -37,19 -53,5 -16,-13 -19,-37 -5,-53 13,-16 37,-19 53,-5 16,13 19,37 5,53zm-224 550c-8,10 -23,12 -33,3 -10,-8 -12,-23 -3,-33 8,-10 23,-12 33,-3 10,8 12,23 3,33zm-352 -223c-19,23 -53,26 -76,7 -23,-19 -26,-53 -7,-76 19,-23 53,-26 76,-7 23,19 26,53 7,76zm-1232 -309c-8,10 -23,12 -33,3 -10,-8 -11,-23 -3,-33 8,-10 23,-12 33,-3 10,8 12,23 3,33zm747 -149c21,0 38,17 38,38 0,21 -17,38 -38,38 -21,0 -38,-17 -38,-38 0,-21 17,-38 38,-38zm2205 142c42,0 76,34 76,76 0,42 -34,76 -76,76 -42,0 -76,-34 -76,-76 0,-42 34,-76 76,-76zm-4301 -1975c-8,10 -23,12 -33,3 -10,-8 -11,-23 -3,-33 8,-10 23,-11 33,-3 10,8 12,23 3,33zm426 -41c-16,19 -43,22 -62,6 -19,-16 -22,-43 -6,-62 16,-19 43,-22 62,-6 19,16 22,43 6,62zm68 -382c21,0 38,17 38,38 0,21 -17,38 -38,38 -21,0 -38,-17 -38,-38 0,-21 17,-38 38,-38zm1420 356c-13,16 -37,19 -53,5 -16,-13 -18,-37 -5,-53 13,-16 37,-19 53,-5 16,13 18,37 5,53zm-403 -170c-8,10 -23,12 -33,3 -10,-8 -12,-23 -3,-33 8,-10 23,-12 33,-3 10,8 11,23 3,33zm996 -306c-13,16 -37,19 -53,5 -16,-13 -18,-37 -5,-53 13,-16 37,-19 53,-5 16,13 19,37 5,53zm-415 -217c-8,10 -23,12 -33,3 -10,-8 -12,-23 -3,-33 8,-10 23,-12 33,-3 10,8 11,23 3,33zm-2374 1530c-13,16 -37,19 -53,5 -16,-13 -19,-37 -5,-53 13,-16 37,-19 53,-5 16,13 19,37 5,53zm1462 289c-8,10 -23,12 -33,3 -10,-8 -12,-23 -3,-33 8,-10 23,-12 33,-3 10,8 12,23 3,33zm-1275 -18c-13,16 -37,19 -53,5 -16,-13 -19,-37 -5,-53 13,-16 37,-19 53,-5 16,13 19,37 5,53zm-306 -769c-8,10 -23,11 -33,3 -10,-8 -12,-23 -3,-33 8,-10 23,-11 33,-3 10,8 12,23 3,33zm677 254c-16,19 -43,22 -62,6 -19,-16 -22,-43 -6,-62 16,-19 43,-22 62,-6 19,16 22,43 6,62zm-427 -751c21,0 38,17 38,38 0,21 -17,38 -38,38 -21,0 -38,-17 -38,-38 0,-21 17,-38 38,-38zm2784 1120c-8,10 -23,12 -33,3 -10,-8 -12,-23 -3,-33 8,-10 23,-11 33,-3 10,8 12,23 3,33zm-24 377c-9,12 -27,13 -38,4 -12,-9 -13,-27 -4,-38 9,-12 27,-13 38,-4 12,9 13,27 4,38zm-366 -1578c-8,10 -23,12 -33,3 -10,-8 -11,-23 -3,-33 8,-10 23,-12 33,-3 10,8 12,23 3,33zm-932 756c21,0 38,17 38,38 0,21 -17,38 -38,38 -21,0 -38,-17 -38,-38 0,-21 17,-38 38,-38zm-614 -83c30,0 54,24 54,54 0,30 -24,54 -54,54 -30,0 -54,-24 -54,-54 0,-30 24,-54 54,-54zm2831 -282c-8,10 -23,12 -33,3 -10,-8 -12,-23 -3,-33 8,-10 23,-12 33,-3 10,8 11,23 3,33zm633 463c-16,19 -43,22 -62,6 -19,-16 -22,-43 -6,-62 16,-19 43,-22 62,-6 19,16 22,43 6,62zm-139 -887c21,0 38,17 38,38 0,21 -17,38 -38,38 -21,0 -38,-17 -38,-38 0,-21 17,-38 38,-38zm1420 356c-13,16 -37,19 -53,5 -16,-13 -19,-37 -5,-53 13,-16 37,-18 53,-5 16,13 19,37 5,53zm-403 -170c-8,10 -23,11 -33,3 -10,-8 -12,-23 -3,-33 8,-10 23,-12 33,-3 10,8 12,23 3,33zm996 -306c-13,16 -37,19 -53,5 -16,-13 -19,-37 -5,-53 13,-16 37,-19 53,-5 16,13 19,37 5,53zm-415 -217c-8,10 -23,11 -33,3 -10,-8 -12,-23 -3,-33 8,-10 23,-12 33,-3 10,8 12,23 3,33zm-3357 1138c-13,16 -37,19 -53,5 -16,-13 -18,-37 -5,-53 13,-16 37,-19 53,-5 16,13 19,37 5,53zm2764 1138c-8,10 -23,12 -33,3 -10,-8 -12,-23 -3,-33 8,-10 23,-11 33,-3 10,8 11,23 3,33zm-1594 -475c-13,16 -37,19 -53,5 -16,-13 -18,-37 -5,-53 13,-16 37,-19 53,-5 16,13 18,37 5,53zm-306 -769c-8,10 -23,12 -33,3 -10,-8 -11,-23 -3,-33 8,-10 23,-12 33,-3 10,8 12,23 3,33zm426 -41c-16,19 -43,22 -62,6 -19,-16 -22,-43 -6,-62 16,-19 43,-22 62,-6 19,16 22,43 6,62zm-175 -455c21,0 38,17 38,38 0,21 -17,38 -38,38 -21,0 -38,-17 -38,-38 0,-21 17,-38 38,-38zm4041 2272c-13,16 -37,19 -53,5 -16,-13 -19,-37 -5,-53 13,-16 37,-18 53,-5 16,13 19,37 5,53zm-389 45c-8,10 -23,12 -33,3 -10,-8 -12,-23 -3,-33 8,-10 23,-12 33,-3 10,8 12,23 3,33zm127 -270c-8,10 -23,11 -33,3 -10,-8 -12,-23 -3,-33 8,-10 23,-11 33,-3 10,8 12,23 3,33zm812 -1014c17,0 30,13 30,30 0,17 -13,30 -30,30 -17,0 -30,-13 -30,-30 0,-17 13,-30 30,-30zm65 -394c-13,16 -37,19 -53,5 -16,-13 -19,-37 -5,-53 13,-16 37,-19 53,-5 16,13 19,37 5,53zm-350 161c-8,10 -23,12 -33,3 -10,-8 -12,-23 -3,-33 8,-10 23,-12 33,-3 10,8 11,23 3,33zm114 -437c-13,16 -37,19 -53,5 -16,-13 -19,-37 -5,-53 13,-16 37,-18 53,-5 16,13 19,37 5,53zm-799 -1037c-8,10 -23,12 -33,3 -10,-8 -11,-23 -3,-33 8,-10 23,-12 33,-3 10,8 12,23 3,33zm119 311c21,0 38,17 38,38 0,21 -17,38 -38,38 -21,0 -38,-17 -38,-38 0,-21 17,-38 38,-38zm-163 328c30,0 54,24 54,54 0,30 -24,54 -54,54 -30,0 -54,-24 -54,-54 0,-30 24,-54 54,-54zm-444 994c-13,16 -37,19 -53,5 -16,-13 -19,-37 -5,-53 13,-16 37,-18 53,-5 16,13 19,37 5,53zm-350 161c-8,10 -23,12 -33,3 -10,-8 -11,-23 -3,-33 8,-10 23,-12 33,-3 10,8 12,23 3,33zm-24 377c-10,12 -27,13 -38,4 -12,-10 -13,-27 -4,-38 9,-12 27,-13 38,-4 12,9 13,27 4,38zm138 -814c-13,16 -37,19 -53,5 -16,-13 -19,-37 -5,-53 13,-16 37,-18 53,-5 16,13 19,37 5,53zm-504 -763c-8,10 -23,11 -33,3 -10,-8 -12,-23 -3,-33 8,-10 23,-11 33,-3 10,8 11,23 3,33zm1375 952c-16,19 -43,22 -62,6 -19,-16 -22,-43 -6,-62 16,-19 43,-22 62,-6 19,16 22,43 6,62zm-2307 -196c21,0 38,17 38,38 0,21 -17,38 -38,38 -21,0 -38,-17 -38,-38 0,-21 17,-38 38,-38zm-163 328c30,0 54,24 54,54 0,30 -24,54 -54,54 -30,0 -54,-24 -54,-54 0,-30 24,-54 54,-54zm2792 315c-13,16 -37,19 -53,5 -16,-13 -18,-37 -5,-53 13,-16 37,-19 53,-5 16,13 18,37 5,53zm7838 1088c-8,10 -23,12 -33,3 -10,-8 -12,-23 -3,-33 8,-10 23,-12 33,-3 10,8 12,23 3,33zm222 249c-16,19 -43,22 -62,6 -19,-16 -22,-43 -6,-62 16,-19 43,-22 62,-6 19,16 22,43 6,62zm-6512 -272c-13,16 -37,19 -53,5 -16,-13 -19,-37 -5,-53 13,-16 37,-18 53,-5 16,13 19,37 5,53zm-389 45c-8,10 -23,12 -33,3 -10,-8 -12,-23 -3,-33 8,-10 23,-12 33,-3 10,8 11,23 3,33zm1401 -206c-16,20 -45,22 -65,6 -20,-16 -22,-45 -6,-65 16,-20 45,-22 65,-6 20,16 22,45 6,65zm-1275 -63c-8,10 -23,12 -33,3 -10,-8 -12,-23 -3,-33 8,-10 23,-12 33,-3 10,8 12,23 3,33zm3430 93c-13,16 -37,19 -53,5 -16,-13 -19,-37 -5,-53 13,-16 37,-19 53,-5 16,13 19,37 5,53zm-224 550c-8,10 -23,12 -33,3 -10,-8 -11,-23 -3,-33 8,-10 23,-11 33,-3 10,8 11,23 3,33zm-352 -223c-19,23 -53,26 -76,7 -23,-19 -26,-53 -7,-76 19,-23 53,-26 76,-7 23,19 26,53 7,76zm-1232 -309c-8,10 -23,12 -33,3 -10,-8 -12,-23 -3,-33 8,-10 23,-12 33,-3 10,8 12,23 3,33zm747 -149c21,0 38,17 38,38 0,21 -17,38 -38,38 -21,0 -38,-17 -38,-38 0,-21 17,-38 38,-38zm2205 142c42,0 76,34 76,76 0,42 -34,76 -76,76 -42,0 -76,-34 -76,-76 0,-42 34,-76 76,-76zm-4301 -1975c-8,10 -23,12 -33,3 -10,-8 -12,-23 -3,-33 8,-10 23,-12 33,-3 10,8 12,23 3,33zm426 -41c-16,19 -43,22 -62,6 -19,-16 -22,-43 -6,-62 16,-19 43,-22 62,-6 19,16 22,43 6,62zm68 -382c21,0 38,17 38,38 0,21 -17,38 -38,38 -21,0 -38,-17 -38,-38 0,-21 17,-38 38,-38zm1420 356c-13,16 -37,19 -53,5 -16,-13 -19,-37 -5,-53 13,-16 37,-18 53,-5 16,13 19,37 5,53zm-403 -170c-8,10 -23,12 -33,3 -10,-8 -11,-23 -3,-33 8,-10 23,-11 33,-3 10,8 12,23 3,33zm996 -306c-13,16 -37,19 -53,5 -16,-13 -19,-37 -5,-53 13,-16 37,-19 53,-5 16,13 19,37 5,53zm-415 -217c-8,10 -23,11 -33,3 -10,-8 -11,-23 -3,-33 8,-10 23,-11 33,-3 10,8 12,23 3,33zm-2374 1530c-13,16 -37,19 -53,5 -16,-13 -19,-37 -5,-53 13,-16 37,-18 53,-5 16,13 19,37 5,53zm1462 289c-8,10 -23,12 -33,3 -10,-8 -12,-23 -3,-33 8,-10 23,-12 33,-3 10,8 11,23 3,33zm-1275 -18c-13,16 -37,19 -53,5 -16,-13 -19,-37 -5,-53 13,-16 37,-18 53,-5 16,13 19,37 5,53zm-306 -769c-8,10 -23,12 -33,3 -10,-8 -12,-23 -3,-33 8,-10 23,-12 33,-3 10,8 11,23 3,33zm677 254c-16,19 -43,22 -62,6 -19,-16 -22,-43 -6,-62 16,-19 43,-22 62,-6 19,16 22,43 6,62zm-427 -751c21,0 38,17 38,38 0,21 -17,38 -38,38 -21,0 -38,-17 -38,-38 0,-21 17,-38 38,-38zm2784 1120c-8,10 -23,11 -33,3 -10,-8 -12,-23 -3,-33 8,-10 23,-12 33,-3 10,8 11,23 3,33zm-24 377c-10,12 -27,13 -38,4 -12,-9 -13,-27 -4,-38 9,-12 27,-13 38,-4 12,9 13,27 4,38zm-366 -1578c-8,10 -23,12 -33,3 -10,-8 -12,-23 -3,-33 8,-10 23,-11 33,-3 10,8 12,23 3,33zm-932 756c21,0 38,17 38,38 0,21 -17,38 -38,38 -21,0 -38,-17 -38,-38 0,-21 17,-38 38,-38zm-614 -83c30,0 54,24 54,54 0,30 -24,54 -54,54 -30,0 -54,-24 -54,-54 0,-30 24,-54 54,-54zm10793 598c-13,16 -37,19 -53,5 -16,-13 -18,-37 -5,-53 13,-16 37,-19 53,-5 16,13 18,37 5,53zm-389 45c-8,10 -23,12 -33,3 -10,-8 -12,-23 -3,-33 8,-10 23,-12 33,-3 10,8 12,23 3,33zm127 -270c-8,10 -23,11 -33,3 -10,-8 -12,-23 -3,-33 8,-10 23,-12 33,-3 10,8 11,23 3,33zm1170 -115c30,0 54,24 54,54 0,30 -24,54 -54,54 -30,0 -54,-24 -54,-54 0,-30 24,-54 54,-54zm-3475 -1468c-8,10 -23,11 -33,3 -10,-8 -12,-23 -3,-33 8,-10 23,-12 33,-3 10,8 12,23 3,33zm124 472c-13,16 -37,19 -53,5 -16,-13 -18,-37 -5,-53 13,-16 37,-19 53,-5 16,13 18,37 5,53zm-406 -321c-8,10 -23,12 -33,3 -10,-8 -12,-23 -3,-33 8,-10 23,-12 33,-3 10,8 11,23 3,33zm5067 2381c-8,10 -23,12 -33,3 -10,-8 -11,-23 -3,-33 8,-10 23,-12 33,-3 10,8 12,23 3,33zm222 249c-16,19 -43,22 -62,6 -19,-16 -22,-43 -6,-62 16,-19 43,-22 62,-6 19,16 22,43 6,62zm-107 -735c21,0 38,17 38,38 0,21 -17,38 -38,38 -21,0 -38,-17 -38,-38 0,-21 17,-38 38,-38zm-10296 -1119c-8,10 -23,12 -33,3 -10,-8 -11,-23 -3,-33 8,-10 23,-11 33,-3 10,8 12,23 3,33zm633 463c-16,19 -43,22 -62,6 -19,-16 -22,-43 -6,-62 16,-19 43,-22 62,-6 19,16 22,43 6,62zm-139 -887c21,0 38,17 38,38 0,21 -17,38 -38,38 -21,0 -38,-17 -38,-38 0,-21 17,-38 38,-38zm1420 356c-13,16 -37,19 -53,5 -16,-13 -18,-37 -5,-53 13,-16 37,-19 53,-5 16,13 18,37 5,53zm-403 -170c-8,10 -23,12 -33,3 -10,-8 -12,-23 -3,-33 8,-10 23,-12 33,-3 10,8 11,23 3,33zm996 -306c-13,16 -37,19 -53,5 -16,-13 -18,-37 -5,-53 13,-16 37,-19 53,-5 16,13 18,37 5,53zm-415 -217c-8,10 -23,12 -33,3 -10,-8 -12,-23 -3,-33 8,-10 23,-12 33,-3 10,8 11,23 3,33zm5400 59c21,0 38,17 38,38 0,21 -17,38 -38,38 -21,0 -38,-17 -38,-38 0,-21 17,-38 38,-38zm498 182c30,0 54,24 54,54 0,30 -24,54 -54,54 -30,0 -54,-24 -54,-54 0,-30 24,-54 54,-54zm1216 899c-8,10 -23,12 -33,3 -10,-8 -12,-23 -3,-33 8,-10 23,-11 33,-3 10,8 11,23 3,33zm-62 -388c-8,10 -23,11 -33,3 -10,-8 -11,-23 -3,-33 8,-10 23,-11 33,-3 10,8 12,23 3,33zm-627 -172c21,0 38,17 38,38 0,21 -17,38 -38,38 -21,0 -38,-17 -38,-38 0,-21 17,-38 38,-38zm-92 -1128c30,0 54,24 54,54 0,30 -24,54 -54,54 -30,0 -54,-24 -54,-54 0,-30 24,-54 54,-54zm2295 1873c-8,10 -23,12 -33,3 -10,-8 -11,-23 -3,-33 8,-10 23,-11 33,-3 10,8 11,23 3,33zm-540 -617c-16,20 -45,22 -65,6 -20,-16 -22,-45 -6,-65 16,-20 45,-22 65,-6 20,16 22,45 6,65zm233 -374c-13,16 -37,19 -53,5 -16,-13 -19,-37 -5,-53 13,-16 37,-19 53,-5 16,13 19,37 5,53zm168 503c-8,10 -23,12 -33,3 -10,-8 -11,-23 -3,-33 8,-10 23,-11 33,-3 10,8 12,23 3,33zm250 -371c-19,23 -53,26 -76,7 -23,-19 -26,-53 -7,-76 19,-23 53,-26 76,-7 23,19 26,53 7,76zm-12095 673c-13,16 -37,19 -53,5 -16,-13 -19,-37 -5,-53 13,-16 37,-18 53,-5 16,13 19,37 5,53zm2764 1138c-8,10 -23,12 -33,3 -10,-8 -11,-23 -3,-33 8,-10 23,-12 33,-3 10,8 12,23 3,33zm-1594 -475c-13,16 -37,19 -53,5 -16,-13 -19,-37 -5,-53 13,-16 37,-19 53,-5 16,13 19,37 5,53zm-306 -769c-8,10 -23,11 -33,3 -10,-8 -12,-23 -3,-33 8,-10 23,-12 33,-3 10,8 12,23 3,33zm426 -41c-16,19 -43,22 -62,6 -19,-16 -22,-43 -6,-62 16,-19 43,-22 62,-6 19,16 22,43 6,62zm-175 -455c21,0 38,17 38,38 0,21 -17,38 -38,38 -21,0 -38,-17 -38,-38 0,-21 17,-38 38,-38zm5767 1046c-13,16 -37,19 -53,5 -16,-13 -19,-37 -5,-53 13,-16 37,-19 53,-5 16,13 19,37 5,53zm-839 -1638c-8,10 -23,11 -33,3 -10,-8 -12,-23 -3,-33 8,-10 23,-12 33,-3 10,8 12,23 3,33zm-887 2865c-13,16 -37,19 -53,5 -16,-13 -18,-37 -5,-53 13,-16 37,-19 53,-5 16,13 18,37 5,53zm-389 45c-8,10 -23,12 -33,3 -10,-8 -12,-23 -3,-33 8,-10 23,-11 33,-3 10,8 12,23 3,33zm1401 -672c-16,20 -45,22 -65,6 -20,-16 -22,-45 -6,-65 16,-20 45,-22 65,-6 20,16 22,45 6,65zm-1275 402c-8,10 -23,12 -33,3 -10,-8 -11,-23 -3,-33 8,-10 23,-12 33,-3 10,8 11,23 3,33zm812 -1014c17,0 30,13 30,30 0,17 -13,30 -30,30 -17,0 -30,-13 -30,-30 0,-17 13,-30 30,-30zm65 -394c-13,16 -37,19 -53,5 -16,-13 -18,-37 -5,-53 13,-16 37,-19 53,-5 16,13 18,37 5,53zm-350 161c-8,10 -23,12 -33,3 -10,-8 -12,-23 -3,-33 8,-10 23,-11 33,-3 10,8 12,23 3,33zm114 -437c-13,16 -37,19 -53,5 -16,-13 -18,-37 -5,-53 13,-16 37,-19 53,-5 16,13 18,37 5,53zm-799 -1037c-8,10 -23,11 -33,3 -10,-8 -12,-23 -3,-33 8,-10 23,-12 33,-3 10,8 12,23 3,33zm119 311c21,0 38,17 38,38 0,21 -17,38 -38,38 -21,0 -38,-17 -38,-38 0,-21 17,-38 38,-38zm-163 328c30,0 54,24 54,54 0,30 -24,54 -54,54 -30,0 -54,-24 -54,-54 0,-30 24,-54 54,-54zm-444 994c-13,16 -37,19 -53,5 -16,-13 -18,-37 -5,-53 13,-16 37,-19 53,-5 16,13 18,37 5,53zm-350 161c-8,10 -23,12 -33,3 -10,-8 -12,-23 -3,-33 8,-10 23,-11 33,-3 10,8 12,23 3,33zm-24 377c-9,12 -27,13 -38,4 -12,-9 -13,-27 -4,-38 10,-12 27,-13 38,-4 12,9 13,27 4,38zm138 -814c-13,16 -37,19 -53,5 -16,-13 -18,-37 -5,-53 13,-16 37,-19 53,-5 16,13 18,37 5,53zm-504 -763c-8,10 -23,12 -33,3 -10,-8 -11,-23 -3,-33 8,-10 23,-12 33,-3 10,8 12,23 3,33zm1375 952c-16,19 -43,22 -62,6 -19,-16 -22,-43 -6,-62 16,-19 43,-22 62,-6 19,16 22,43 6,62zm-2307 -196c21,0 38,17 38,38 0,21 -17,38 -38,38 -21,0 -38,-17 -38,-38 0,-21 17,-38 38,-38zm-163 328c30,0 54,24 54,54 0,30 -24,54 -54,54 -30,0 -54,-24 -54,-54 0,-30 24,-54 54,-54zm5910 671c-13,16 -37,19 -53,5 -16,-13 -19,-37 -5,-53 13,-16 37,-19 53,-5 16,13 19,37 5,53zm-224 550c-8,10 -23,12 -33,3 -10,-8 -12,-23 -3,-33 8,-10 23,-11 33,-3 10,8 12,23 3,33zm-352 -223c-19,23 -53,26 -76,7 -23,-19 -26,-53 -7,-76 19,-23 53,-26 76,-7 23,19 26,53 7,76zm-2543 -684c-13,16 -37,19 -53,5 -16,-13 -19,-37 -5,-53 13,-16 37,-18 53,-5 16,13 19,37 5,53zm1311 375c-8,10 -23,12 -33,3 -10,-8 -11,-23 -3,-33 8,-10 23,-12 33,-3 10,8 12,23 3,33zm435 -1360c-19,23 -53,26 -76,7 -23,-19 -26,-53 -7,-76 19,-23 53,-26 76,-7 23,19 26,53 7,76zm1289 146c-13,16 -37,19 -53,5 -16,-13 -18,-37 -5,-53 13,-16 37,-18 53,-5 16,13 18,37 5,53zm-113 248c-8,10 -23,12 -33,3 -10,-8 -12,-23 -3,-33 8,-10 23,-11 33,-3 10,8 12,23 3,33zm-154 -945c-19,23 -53,26 -76,7 -23,-19 -26,-53 -7,-76 19,-23 53,-26 76,-7 23,19 26,53 7,76zm-711 1761c21,0 38,17 38,38 0,21 -17,38 -38,38 -21,0 -38,-17 -38,-38 0,-21 17,-38 38,-38zm488 -146c42,0 76,34 76,76 0,42 -34,76 -76,76 -42,0 -76,-34 -76,-76 0,-42 34,-76 76,-76zm-1359 -1568c30,0 54,24 54,54 0,30 -24,54 -54,54 -30,0 -54,-24 -54,-54 0,-30 24,-54 54,-54zm3532 1410c21,0 38,17 38,38 0,21 -17,38 -38,38 -21,0 -38,-17 -38,-38 0,-21 17,-38 38,-38z"/>
  <path id="moon" class="fil1" d="M6199 11026c-64,82 -164,135 -277,135 -194,0 -351,-157 -351,-351 0,-142 85,-265 207,-320 -47,60 -75,135 -75,216 0,194 157,351 351,351 52,0 101,-11 145,-31z"/>
 </g>
</svg>
