<?xml version="1.0" encoding="UTF-8"?>
<!DOCTYPE svg PUBLIC "-//W3C//DTD SVG 1.1//EN" "http://www.w3.org/Graphics/SVG/1.1/DTD/svg11.dtd">
<!-- Creator: CorelDRAW X6 -->
<svg xmlns="http://www.w3.org/2000/svg" xml:space="preserve" width="12612px" height="24000px" version="1.1" style="shape-rendering:geometricPrecision; text-rendering:geometricPrecision; image-rendering:optimizeQuality; fill-rule:evenodd; clip-rule:evenodd"
viewBox="0 0 45288 86071"
 xmlns:xlink="http://www.w3.org/1999/xlink">
 <defs>
  <style type="text/css">
   <![CDATA[
    .fil1 {fill:#000066}
    .fil4 {fill:#9493C9}
    .fil3 {fill:#99FFFF}
    .fil2 {fill:#CECDE7}
    .fil0 {fill:#FFFFCC}
   ]]>
  </style>
    <mask id="id0">
  <linearGradient id="id1" gradientUnits="userSpaceOnUse" x1="21569.7" y1="16765.9" x2="23718.2" y2="85107.4">
   <stop offset="0" style="stop-opacity:1; stop-color:white"/>
   <stop offset="0.811765" style="stop-opacity:0.501961; stop-color:white"/>
   <stop offset="1" style="stop-opacity:0; stop-color:white"/>
  </linearGradient>
     <rect style="fill:url(#id1)" x="6417" y="15345" width="32454" height="71183"/>
    </mask>
 </defs>
 <g id="UFO">
  <metadata id="CorelCorpID_0Corel-Layer"/>
  <g id="_752114912">
   <polygon id="beam" class="fil0" style="mask:url(#id0)" points="26656,15873 30529,38999 38414,86071 22644,86071 6875,86071 14759,38999 18645,15803 "/>
   <g id="UFO_0">
    <path class="fil1" d="M31671 5691c4335,469 13617,1878 13617,6262 0,6284 -18714,6738 -22644,6738 -3930,0 -22644,-453 -22644,-6738 0,-4406 9380,-5811 13731,-6274 1147,-3584 5320,-5679 8961,-5679 3626,0 7851,2103 8978,5691z"/>
    <path class="fil2" d="M22644 6962c11542,0 20898,2235 20898,4991 0,2757 -9357,4992 -20898,4992 -11542,0 -20899,-2235 -20899,-4992 0,-2756 9357,-4991 20899,-4991z"/>
    <path class="fil3" d="M22693 1745c4153,0 7565,2835 7520,5859 -56,3698 -15031,4253 -15039,0 -6,-3041 3366,-5859 7519,-5859z"/>
    <path class="fil4" d="M22596 14775c11542,0 17777,-2905 20707,-2861 650,10 -182,1200 -1033,1759 -2964,1949 -10572,3296 -19626,3272 -9175,-23 -16826,-1385 -19754,-3359 -769,-518 -1499,-1704 -876,-1759 3258,-293 9040,2947 20582,2947z"/>
   </g>
   <path id="dude" class="fil1" d="M25760 30055c219,337 124,788 -213,1008 -278,182 -633,149 -872,-58 44,152 32,312 -29,455l50 12 2 0c197,61 308,270 247,466l-448 1462c-61,197 -269,308 -465,247l-2 0c-197,-61 -308,-268 -247,-467l391 -1277 -897 586c-50,32 -102,57 -156,75l-32 49 -1671 2152c-129,167 -369,197 -534,67l0 0c-167,-128 -197,-367 -67,-534l1536 -1980 -19 -27 0 -2 -19 -31 -2432 611c-203,51 -411,-73 -461,-276l0 0c-52,-203 73,-411 276,-463l2643 -662 61 -11c38,-41 80,-78 129,-109l897 -586 -1327 -157c-205,-24 -352,-209 -328,-414l2 -1c24,-205 209,-350 413,-327l1519 178c205,25 350,211 326,414l0 1 -9 52c155,1 305,56 427,155 -91,-301 22,-640 298,-821 337,-219 788,-124 1009,211z"/>
  </g>
 </g>
</svg>
