<?xml version="1.0" encoding="UTF-8"?>
<!DOCTYPE svg PUBLIC "-//W3C//DTD SVG 1.1//EN" "http://www.w3.org/Graphics/SVG/1.1/DTD/svg11.dtd">
<!-- Creator: CorelDRAW X6 -->
<svg xmlns="http://www.w3.org/2000/svg" xml:space="preserve" width="558px" height="342px" version="1.1" style="shape-rendering:geometricPrecision; text-rendering:geometricPrecision; image-rendering:optimizeQuality; fill-rule:evenodd; clip-rule:evenodd"
viewBox="0 0 159 97"
 xmlns:xlink="http://www.w3.org/1999/xlink">
 <defs>
  <style type="text/css">
   <![CDATA[
    .fil0 {fill:black}
   ]]>
  </style>
 </defs>
 <g id="Layer_x0020_1">
  <metadata id="CorelCorpID_0Corel-Layer"/>
  <path class="fil0" d="M10 0l138 0c6,0 10,5 10,10l0 77c0,6 -5,10 -10,10l-138 0c-6,0 -10,-5 -10,-10l0 -77c0,-6 5,-10 10,-10zm95 49l-21 12 -21 12 0 -24 0 -24 21 12 21 12zm-95 -44l138 0c3,0 5,2 5,5l0 77c0,3 -2,5 -5,5l-138 0c-3,0 -5,-2 -5,-5l0 -77c0,-3 2,-5 5,-5z"/>
 </g>
</svg>
