<?xml version="1.0" encoding="UTF-8"?>
<!DOCTYPE svg PUBLIC "-//W3C//DTD SVG 1.1//EN" "http://www.w3.org/Graphics/SVG/1.1/DTD/svg11.dtd">
<!-- Creator: CorelDRAW X6 -->
<svg xmlns="http://www.w3.org/2000/svg" xml:space="preserve" width="15769px" height="80000px" version="1.1" style="shape-rendering:geometricPrecision; text-rendering:geometricPrecision; image-rendering:optimizeQuality; fill-rule:evenodd; clip-rule:evenodd"
viewBox="0 0 689 3471"
 xmlns:xlink="http://www.w3.org/1999/xlink">
 <defs>
  <style type="text/css">
   <![CDATA[
    .fil2 {fill:#000066}
    .fil3 {fill:#99FFFF}
    .fil4 {fill:red}
    .fil0 {fill:#FF6600}
    .fil1 {fill:yellow}
    .fil5 {fill:#000066;fill-rule:nonzero}
   ]]>
  </style>
 </defs>
 <g id="rocket">
  <metadata id="CorelCorpID_0Corel-Layer"/>
  <polygon class="fil0" points="344,3471 402,2737 461,2003 344,2003 228,2003 286,2737 "/>
  <polygon class="fil1" points="344,2556 388,2279 432,2003 344,2003 257,2003 301,2279 "/>
  <path class="fil2" d="M344 0l31 372 8 97c110,43 163,269 193,456 13,89 20,187 21,289 1,192 -23,367 -63,500l20 41 134 270 -244 -118 -6 7 50 102 -144 1 -144 1 49 -103 -6 -7 -244 120 131 -271 20 -41c-41,-133 -66,-308 -67,-500 0,-102 6,-200 19,-289 18,-185 82,-413 202,-457l8 -97 31 -372z"/>
  <path class="fil3" d="M478 1696c45,-151 61,-325 60,-482 0,-86 -6,-172 -17,-257 -51,-41 -112,-65 -179,-65 -66,0 -127,26 -178,66 -11,85 -15,171 -15,257 1,157 18,331 64,482 32,105 222,143 265,-1z"/>
  <path class="fil4" d="M237 667c35,-10 71,-16 108,-16 37,0 73,5 108,15 -10,-76 -50,-152 -104,-149 -53,-1 -102,77 -111,150z"/>
  <path class="fil1" d="M172 878l0 0c1,-1 30,-136 31,-137 41,-18 93,-28 139,-28 46,0 100,10 141,28 1,0 31,134 33,137 -53,-31 -112,-48 -174,-48 -61,0 -119,17 -171,48z"/>
  <path class="fil5" d="M391 1037l-34 0 -6 -26c0,-1 -1,-3 -1,-5 -1,-2 -1,-4 -2,-5 -1,-1 -2,-2 -3,-2 -3,0 -8,0 -15,0l0 39 -33 0 0 -103c15,-1 28,-2 41,-2 12,0 21,1 28,3 7,2 13,5 16,10 4,5 5,11 5,19 0,7 -2,13 -5,17 -3,4 -9,7 -16,8l0 1c4,0 8,2 11,4 3,2 5,5 6,9l9 34zm-62 -59c1,0 3,0 6,0 9,0 15,-1 16,-2 1,-1 2,-5 2,-10 0,-5 -1,-8 -4,-10 -3,-2 -7,-3 -13,-3 -1,0 -4,0 -8,0l0 25z"/>
  <path id="1" class="fil5" d="M347 1182c-18,0 -32,-4 -41,-13 -9,-9 -14,-22 -14,-41 0,-19 5,-32 15,-41 10,-8 23,-13 40,-13 34,0 52,17 52,52 0,17 -4,31 -13,41 -8,10 -22,15 -39,15zm-1 -21c3,0 6,-1 9,-2 2,-1 4,-3 5,-6 3,-5 4,-13 4,-24 0,-11 -1,-19 -4,-24 -3,-5 -7,-8 -14,-8 -3,0 -5,0 -8,1 -3,1 -4,1 -5,2 -1,2 -3,5 -3,11 -1,6 -1,12 -1,18 0,10 1,18 3,22 1,4 3,6 6,8 2,2 5,2 9,2z"/>
  <path id="2" class="fil5" d="M378 1319c-5,2 -10,3 -16,4 -6,1 -11,1 -17,1 -17,0 -29,-4 -39,-13 -9,-9 -14,-22 -14,-40 0,-18 5,-32 15,-41 10,-9 24,-14 42,-14 8,0 17,1 27,3 0,2 0,6 -1,11 0,5 -1,8 -1,10l-11 0c-8,0 -15,0 -20,0 -5,0 -8,1 -9,2 -2,2 -3,5 -4,10 -1,5 -1,10 -1,15 0,8 1,15 3,19 2,4 5,7 8,9 3,1 8,2 15,2 6,0 13,0 22,-1l2 21z"/>
  <path id="3" class="fil5" d="M394 1465l-36 0 -20 -39c0,-1 -1,-2 -3,-5 -2,-3 -3,-5 -5,-8l0 52 -33 0 0 -104 33 0 0 47c2,-2 4,-5 5,-8 2,-3 2,-4 3,-5l19 -35 35 0 -21 35c0,0 -1,2 -2,4 -1,2 -3,4 -4,6 -1,2 -3,3 -4,5 2,2 4,4 5,6 1,2 3,5 5,8l23 41z"/>
  <polygon id="4" class="fil5" points="296,1504 371,1504 371,1526 329,1526 329,1545 365,1545 365,1564 329,1564 329,1586 371,1586 371,1608 296,1608 "/>
  <polygon id="5" class="fil5" points="351,1750 319,1750 319,1669 289,1669 289,1647 381,1647 381,1669 351,1669 "/>
 </g>
</svg>
